<?xml version="1.0" standalone="no"?>
<!DOCTYPE svg PUBLIC "-//W3C//DTD SVG 1.1//EN" "http://www.w3.org/Graphics/SVG/1.1/DTD/svg11.dtd" >
<svg xmlns="http://www.w3.org/2000/svg" width="100%" height="100%">
<metadata>
Created by FontXChange 20100429 at Mon Sep 17 11:44:30 2012
 By Fredrik Öberg
Copyright (C) 2002, 2007 Hoefler &#38; Frere-Jones. http://www.typography.com
</metadata>
<defs>
<font id="ChronicleDisplay-BoldItalic" horiz-adv-x="773" >
  <font-face 
    font-family="Chronicle Display Bold"
    font-weight="400"
    font-style="italic"
    font-stretch="normal"
    units-per-em="1000"
    panose-1="0 0 0 0 0 0 0 0 0 0"
    ascent="800"
    descent="-200"
    x-height="463"
    cap-height="697"
    bbox="-209 -309 1172 1183"
    underline-thickness="50"
    underline-position="-50"
    slope="-12"
    stemh="20"
    stemv="128"
    unicode-range="U+0020-FB04"
  />
<missing-glyph horiz-adv-x="500" 
d="M0 -200v1000h500v-1000h-500zM71 750l179 -390l179 390h-358zM50 -76l172 376l-172 376v-752zM450 676l-172 -376l172 -376v752zM250 240l-179 -390h358z" />
    <glyph glyph-name="f_b" unicode="fb" horiz-adv-x="872" 
d="M573 405l2 -2c44 42 87 67 142 67c73 0 129 -57 129 -160c0 -166 -123 -318 -312 -318c-72 0 -127 15 -186 59l58 204l45 178h-172l-69 -324c-48 -227 -116 -309 -255 -309c-82 0 -127 31 -127 84c0 36 28 65 68 65c39 0 62 -32 62 -64c0 -24 -16 -48 -36 -57
c9 -5 18 -8 36 -8c35 0 66 23 90 129l107 484h-115l8 25h112l10 41c38 154 126 224 245 224c46 0 86 -10 114 -28l119 25l9 -3zM457 458l24 93c-28 10 -46 34 -46 66c0 24 14 50 33 66c-7 10 -31 21 -51 21c-52 0 -84 -40 -108 -145l-23 -101h171zM548 11
c89 0 164 190 164 312c0 59 -22 94 -69 94c-26 0 -51 -14 -75 -35l-86 -326c8 -30 37 -45 66 -45z" />
    <glyph glyph-name="f_f" unicode="ff" horiz-adv-x="646" 
d="M415 712c65 0 117 -20 139 -56c41 44 94 67 156 67c86 0 142 -36 142 -97c0 -42 -24 -73 -68 -73c-41 0 -68 28 -68 67c0 24 14 51 32 66c-7 9 -23 18 -39 18c-41 0 -69 -42 -93 -142l-23 -104h124l-8 -25h-122l-70 -325c-48 -227 -117 -308 -250 -308
c-80 0 -123 31 -123 81c0 36 27 65 66 65c40 0 62 -32 62 -63c0 -25 -15 -48 -34 -56c8 -4 15 -7 29 -7c32 0 64 21 85 112l111 501h-184l-69 -324c-48 -227 -116 -309 -255 -309c-82 0 -127 31 -127 84c0 36 28 65 68 65c39 0 62 -32 62 -64c0 -24 -16 -48 -36 -57
c9 -5 18 -8 36 -8c35 0 66 23 90 129l107 484h-115l8 25h112l11 41c39 142 122 213 244 213zM467 458l11 42c3 14 7 28 12 42c-36 3 -60 29 -60 67c0 24 14 51 32 65c-7 10 -28 18 -46 18c-53 0 -85 -38 -109 -144l-21 -90h181z" />
    <glyph glyph-name="f_h" unicode="fh" horiz-adv-x="889" 
d="M279 433l-69 -324c-49 -227 -117 -309 -255 -309c-82 0 -127 31 -127 84c0 36 27 65 67 65c39 0 62 -32 62 -64c0 -24 -16 -48 -35 -57c8 -5 17 -8 35 -8c35 0 67 23 90 129l108 484h-115l8 25h112l10 41c38 154 126 224 245 224c46 0 86 -10 114 -28l119 25l9 -3
l-95 -347l2 -2c59 63 126 100 184 100c64 0 100 -35 100 -96c0 -19 -3 -43 -11 -69l-64 -203c-6 -20 -10 -35 -10 -46c0 -28 23 -32 91 -28v-11c-26 -9 -78 -23 -120 -23c-64 0 -97 21 -97 67c0 13 3 31 9 49l62 201c7 23 11 39 11 56c0 29 -12 44 -43 44
c-34 0 -77 -23 -119 -61l-88 -348h-133l47 162l68 271h-172zM457 458l24 93c-28 10 -46 34 -46 66c0 24 14 50 33 66c-7 10 -31 21 -51 21c-52 0 -84 -40 -108 -145l-23 -101h171z" />
    <glyph glyph-name="fi" unicode="fi" horiz-adv-x="619" 
d="M279 433l-69 -324c-48 -227 -116 -309 -255 -309c-82 0 -127 31 -127 84c0 36 28 65 68 65c39 0 62 -32 62 -64c0 -24 -16 -48 -36 -57c9 -5 18 -8 36 -8c35 0 66 23 90 129l107 484h-115l8 25h112l10 41c39 158 132 224 255 224c94 0 167 -40 167 -102
c0 -41 -26 -73 -68 -73s-69 28 -69 68c0 23 14 50 33 65c-7 11 -37 23 -59 23c-60 0 -96 -35 -121 -146l-22 -100h163l142 7l-107 -356c-6 -18 -9 -31 -9 -42c0 -32 27 -40 101 -35v-11c-31 -13 -83 -29 -133 -29c-65 0 -96 24 -96 72c0 13 3 29 8 46l98 323h-174z" />
    <glyph glyph-name="f_j" unicode="fj" horiz-adv-x="605" 
d="M248 -200c-80 0 -122 32 -123 81c-42 -57 -96 -81 -170 -81c-82 0 -127 31 -127 84c0 36 28 65 68 65c39 0 62 -32 62 -64c0 -24 -16 -48 -36 -57c9 -5 18 -8 36 -8c35 0 66 23 90 129l107 484h-115l8 25h112l10 41c39 158 132 224 255 224c94 0 167 -40 167 -102
c0 -41 -26 -73 -68 -73s-69 28 -69 68c0 23 14 50 33 65c-7 11 -37 23 -59 23c-60 0 -96 -35 -121 -146l-22 -100h166l140 7l-121 -471c-30 -123 -90 -194 -223 -194zM279 433l-69 -324c-15 -70 -32 -126 -52 -170c9 5 20 7 33 7c40 0 61 -32 61 -63c0 -24 -13 -46 -31 -56
c8 -3 15 -7 29 -7c32 0 58 21 80 112l123 501h-174z" />
    <glyph glyph-name="f_k" unicode="fk" horiz-adv-x="857" 
d="M279 433l-69 -324c-48 -227 -116 -309 -255 -309c-82 0 -127 31 -127 84c0 36 28 65 68 65c39 0 62 -32 62 -64c0 -24 -16 -48 -36 -57c9 -5 18 -8 36 -8c35 0 66 23 90 129l107 484h-115l8 25h112l10 41c38 154 126 224 245 224c46 0 86 -10 114 -28l119 25l9 -3
l-119 -445h23c95 0 108 198 228 198c50 0 75 -33 75 -69c0 -46 -26 -74 -64 -74c-37 0 -65 19 -65 55c0 13 6 31 14 42c-62 -12 -82 -134 -145 -153v-4c122 3 154 -40 154 -100c0 -27 -7 -72 -7 -105c0 -30 11 -41 79 -39v-11c-26 -9 -71 -20 -112 -20c-84 0 -98 35 -98 83
c0 35 11 84 11 106c0 60 -20 76 -71 76h-26l-65 -257h-133l47 162l68 271h-172zM457 458l24 93c-28 10 -46 34 -46 66c0 24 14 50 33 66c-7 10 -31 21 -51 21c-52 0 -84 -40 -108 -145l-23 -101h171z" />
    <glyph glyph-name="fl" unicode="fl" horiz-adv-x="617" 
d="M279 433l-69 -324c-48 -227 -116 -309 -255 -309c-82 0 -127 31 -127 84c0 36 28 65 68 65c39 0 62 -32 62 -64c0 -24 -16 -48 -36 -57c9 -5 18 -8 36 -8c35 0 66 23 90 129l107 484h-115l8 25h112l10 41c38 154 126 224 245 224c46 0 86 -10 114 -28l121 25l9 -3
l-176 -608c-4 -16 -7 -29 -7 -40c0 -34 27 -41 103 -37v-11c-31 -13 -86 -29 -135 -29c-65 0 -96 24 -96 71c0 14 3 30 8 48l95 322h-172zM458 458l25 93c-30 9 -48 34 -48 66c0 24 14 50 33 66c-7 10 -31 21 -51 21c-52 0 -84 -40 -108 -145l-23 -101h172z" />
    <glyph glyph-name="f_f_b" unicode="ffb" horiz-adv-x="1180" 
d="M722 723c47 0 86 -10 114 -28l120 25l9 -3l-85 -312l2 -2c44 42 87 67 142 67c73 0 129 -57 129 -160c0 -166 -123 -318 -312 -318c-72 0 -127 15 -186 59l58 204l45 178h-171l-70 -325c-48 -227 -117 -308 -250 -308c-80 0 -123 31 -123 81c0 36 27 65 66 65
c40 0 62 -32 62 -63c0 -25 -15 -48 -34 -56c8 -4 15 -7 29 -7c32 0 64 21 85 112l111 501h-184l-69 -324c-48 -227 -116 -309 -255 -309c-82 0 -127 31 -127 84c0 36 28 65 68 65c39 0 62 -32 62 -64c0 -24 -16 -48 -36 -57c9 -5 18 -8 36 -8c35 0 66 23 90 129l107 484
h-115l8 25h112l11 41c39 142 122 213 244 213c66 0 118 -21 140 -57c43 46 100 68 167 68zM855 11c90 0 164 190 164 312c0 59 -22 94 -69 94c-26 0 -51 -14 -75 -35l-86 -326c8 -30 37 -45 66 -45zM764 458l24 93c-27 9 -45 34 -45 66c0 24 14 50 32 66
c-6 10 -30 21 -51 21c-52 0 -84 -40 -108 -145l-23 -101h171zM477 499c4 15 8 29 13 43c-36 3 -60 29 -60 67c0 24 14 51 32 65c-7 10 -28 18 -46 18c-53 0 -85 -38 -109 -144l-21 -90h181z" />
    <glyph glyph-name="f_f_h" unicode="ffh" horiz-adv-x="1197" 
d="M160 458l11 41c39 142 122 213 244 213c66 0 118 -21 140 -57c43 46 100 68 167 68c47 0 86 -10 114 -28l120 25l9 -3l-96 -347l3 -2c58 63 125 100 183 100c65 0 100 -35 100 -96c0 -19 -3 -43 -11 -69l-64 -203c-6 -20 -10 -35 -10 -46c0 -28 23 -32 91 -28v-11
c-26 -9 -78 -23 -120 -23c-64 0 -97 21 -97 67c0 13 3 31 9 49l63 201c7 23 10 39 10 56c0 29 -12 44 -43 44c-34 0 -77 -23 -118 -61l-88 -348h-134l47 162l68 271h-171l-70 -325c-48 -227 -117 -308 -250 -308c-80 0 -123 31 -123 81c0 36 27 65 66 65c40 0 62 -32 62 -63
c0 -25 -15 -48 -34 -56c8 -4 15 -7 29 -7c32 0 64 21 85 112l111 501h-184l-69 -324c-48 -227 -116 -309 -255 -309c-82 0 -127 31 -127 84c0 36 28 65 68 65c39 0 62 -32 62 -64c0 -24 -16 -48 -36 -57c9 -5 18 -8 36 -8c35 0 66 23 90 129l107 484h-115l8 25h112zM764 458
l24 93c-27 9 -45 34 -45 66c0 24 14 50 32 66c-6 10 -30 21 -51 21c-52 0 -84 -40 -108 -145l-23 -101h171zM477 499c4 15 8 29 13 43c-36 3 -60 29 -60 67c0 24 14 51 32 65c-7 10 -28 18 -46 18c-53 0 -85 -38 -109 -144l-21 -90h181z" />
    <glyph glyph-name="f_f_i" unicode="ffi" horiz-adv-x="916" 
d="M732 723c94 0 168 -40 168 -102c0 -41 -27 -73 -69 -73s-69 28 -69 68c0 23 14 50 33 65c-7 11 -37 23 -58 23c-61 0 -97 -36 -121 -146l-23 -100h163l143 7l-108 -356c-6 -18 -9 -31 -9 -42c0 -32 28 -40 101 -35v-11c-31 -13 -83 -29 -133 -29c-65 0 -96 24 -96 72
c0 13 3 29 8 46l98 323h-173l-70 -325c-48 -227 -117 -308 -250 -308c-80 0 -123 31 -123 81c0 36 27 65 66 65c40 0 62 -32 62 -63c0 -25 -15 -48 -34 -56c8 -4 15 -7 29 -7c32 0 64 21 85 112l111 501h-184l-69 -324c-48 -227 -116 -309 -255 -309c-82 0 -127 31 -127 84
c0 36 28 65 68 65c39 0 62 -32 62 -64c0 -24 -16 -48 -36 -57c9 -5 18 -8 36 -8c35 0 66 23 90 129l107 484h-115l8 25h112l11 41c39 142 122 213 244 213c67 0 119 -21 140 -58c45 46 104 69 177 69zM477 499c4 15 8 29 13 43c-36 3 -60 29 -60 67c0 24 14 51 32 65
c-7 10 -28 18 -46 18c-53 0 -85 -38 -109 -144l-21 -90h181z" />
    <glyph glyph-name="f_f_j" unicode="ffj" horiz-adv-x="912" 
d="M160 458l11 41c39 142 122 213 244 213c67 0 119 -21 140 -58c45 46 104 69 177 69c94 0 168 -40 168 -102c0 -41 -27 -73 -69 -73s-69 28 -69 68c0 23 14 50 33 65c-7 11 -37 23 -58 23c-61 0 -97 -36 -121 -146l-23 -100h166l140 7l-120 -471
c-31 -123 -91 -194 -224 -194c-79 0 -122 31 -123 80c-41 -56 -94 -80 -165 -80c-80 0 -123 31 -123 81c0 36 27 65 66 65c40 0 62 -32 62 -63c0 -25 -15 -48 -34 -56c8 -4 15 -7 29 -7c32 0 64 21 85 112l111 501h-184l-69 -324c-48 -227 -116 -309 -255 -309
c-82 0 -127 31 -127 84c0 36 28 65 68 65c39 0 62 -32 62 -64c0 -24 -16 -48 -36 -57c9 -5 18 -8 36 -8c35 0 66 23 90 129l107 484h-115l8 25h112zM517 108c-15 -70 -32 -126 -52 -170c10 5 21 8 34 8c39 0 61 -32 61 -63c0 -24 -14 -46 -32 -56c8 -3 15 -7 29 -7
c32 0 58 21 80 112l123 501h-173zM477 499c4 15 8 29 13 43c-36 3 -60 29 -60 67c0 24 14 51 32 65c-7 10 -28 18 -46 18c-53 0 -85 -38 -109 -144l-21 -90h181z" />
    <glyph glyph-name="f_f_k" unicode="ffk" horiz-adv-x="1164" 
d="M160 458l11 41c39 142 122 213 244 213c66 0 118 -21 140 -57c43 46 100 68 167 68c47 0 86 -10 114 -28l120 25l9 -3l-120 -445h24c94 0 107 198 227 198c50 0 75 -33 75 -69c0 -46 -25 -74 -64 -74c-36 0 -64 19 -64 55c0 13 6 31 13 42c-61 -12 -82 -134 -145 -153v-4
c122 3 154 -40 154 -100c0 -27 -7 -72 -7 -105c0 -30 11 -41 79 -39v-11c-26 -9 -70 -20 -112 -20c-84 0 -97 35 -97 83c0 35 10 84 10 106c0 60 -20 76 -71 76h-26l-64 -257h-134l47 162l68 271h-171l-70 -325c-48 -227 -117 -308 -250 -308c-80 0 -123 31 -123 81
c0 36 27 65 66 65c40 0 62 -32 62 -63c0 -25 -15 -48 -34 -56c8 -4 15 -7 29 -7c32 0 64 21 85 112l111 501h-184l-69 -324c-48 -227 -116 -309 -255 -309c-82 0 -127 31 -127 84c0 36 28 65 68 65c39 0 62 -32 62 -64c0 -24 -16 -48 -36 -57c9 -5 18 -8 36 -8
c35 0 66 23 90 129l107 484h-115l8 25h112zM764 458l24 93c-27 9 -45 34 -45 66c0 24 14 50 32 66c-6 10 -30 21 -51 21c-52 0 -84 -40 -108 -145l-23 -101h171zM477 499c4 15 8 29 13 43c-36 3 -60 29 -60 67c0 24 14 51 32 65c-7 10 -28 18 -46 18
c-53 0 -85 -38 -109 -144l-21 -90h181z" />
    <glyph glyph-name="f_f_l" unicode="ffl" horiz-adv-x="924" 
d="M160 458l11 41c39 142 122 213 244 213c66 0 118 -21 140 -57c43 46 100 68 167 68c47 0 86 -10 114 -28l121 25l9 -3l-176 -608c-4 -16 -7 -29 -7 -40c0 -34 28 -41 103 -37v-11c-31 -13 -85 -29 -135 -29c-65 0 -96 24 -96 71c0 14 3 30 8 48l95 322h-171l-70 -325
c-48 -227 -117 -308 -250 -308c-80 0 -123 31 -123 81c0 36 27 65 66 65c40 0 62 -32 62 -63c0 -25 -15 -48 -34 -56c8 -4 15 -7 29 -7c32 0 64 21 85 112l111 501h-184l-69 -324c-48 -227 -116 -309 -255 -309c-82 0 -127 31 -127 84c0 36 28 65 68 65c39 0 62 -32 62 -64
c0 -24 -16 -48 -36 -57c9 -5 18 -8 36 -8c35 0 66 23 90 129l107 484h-115l8 25h112zM765 458l25 93c-29 9 -47 34 -47 66c0 24 14 50 32 66c-6 10 -30 21 -51 21c-52 0 -84 -40 -108 -145l-23 -101h172zM477 499c4 15 8 29 13 43c-36 3 -60 29 -60 67c0 24 14 51 32 65
c-7 10 -28 18 -46 18c-53 0 -85 -38 -109 -144l-21 -90h181z" />
    <glyph glyph-name=".notdef" horiz-adv-x="500" 
d="M0 -200v1000h500v-1000h-500zM71 750l179 -390l179 390h-358zM50 -76l172 376l-172 376v-752zM450 676l-172 -376l172 -376v752zM250 240l-179 -390h358z" />
    <glyph glyph-name="A" unicode="A" horiz-adv-x="708" 
d="M-70 0l3 14c75 11 124 55 182 148l343 548h72l77 -614c7 -61 18 -72 94 -82l-3 -14h-349l3 14c97 4 114 22 108 73l-21 180h-231l-71 -117c-53 -88 -38 -126 45 -136l-3 -14h-249zM437 287l-33 292h-6l-177 -292h216z" />
    <glyph glyph-name="B" unicode="B" horiz-adv-x="711" 
d="M317 372h81c143 0 174 128 174 202c0 73 -41 103 -123 103h-50zM223 20h104c145 0 182 124 182 222c0 75 -39 111 -136 111h-61zM152 684l3 13h299c195 0 261 -70 261 -146c0 -87 -80 -171 -260 -187l-1 -5c145 -12 206 -67 206 -155c0 -102 -96 -204 -340 -204h-351
l3 14c87 3 106 10 116 46l155 578c7 27 -1 42 -91 46z" />
    <glyph glyph-name="C" unicode="C" horiz-adv-x="714" 
d="M348 -17c-166 0 -287 114 -287 299c0 206 168 432 440 432c84 0 134 -23 178 -49l57 46h16l-65 -253h-16c-51 187 -88 236 -176 236c-146 0 -281 -249 -281 -444c0 -146 63 -227 188 -227c88 0 182 57 261 164l17 -11c-74 -106 -191 -193 -332 -193z" />
    <glyph glyph-name="D" unicode="D" horiz-adv-x="777" 
d="M88 60l155 578c7 27 -1 42 -91 46l3 13h300c196 0 324 -108 324 -283c0 -102 -43 -211 -123 -291c-73 -74 -177 -123 -307 -123h-380l3 14c87 3 106 10 116 46zM223 20h110c64 0 116 26 158 68c100 101 139 294 139 402c0 110 -39 187 -172 187h-59z" />
    <glyph glyph-name="E" unicode="E" horiz-adv-x="709" 
d="M155 697h595l-58 -233h-16c-27 140 -49 212 -168 212h-110l-79 -298h53c78 0 99 24 171 124h15l-73 -280h-15c-22 112 -25 136 -103 136h-54l-90 -337h130c140 0 209 83 301 227h17l-69 -248h-633l3 14c87 3 106 10 116 46l155 578c7 27 -1 42 -91 46z" />
    <glyph glyph-name="F" unicode="F" horiz-adv-x="663" 
d="M330 0h-361l3 14c87 3 106 10 116 46l155 578c7 27 -1 42 -91 46l3 13h594l-61 -242h-16c-28 151 -49 221 -165 221h-109l-84 -314h55c78 0 99 22 171 122h15l-73 -280h-15c-22 112 -24 138 -102 138h-56l-75 -282c-10 -36 7 -42 99 -46z" />
    <glyph glyph-name="G" unicode="G" horiz-adv-x="757" 
d="M760 711l-64 -244h-16c-59 177 -88 227 -175 227c-171 0 -291 -268 -291 -479c0 -119 59 -212 162 -212c39 0 69 8 103 28l62 234c7 28 -1 42 -94 46l3 13h322l-3 -13c-70 -4 -80 -18 -87 -46l-63 -225c-78 -35 -165 -57 -254 -57c-168 0 -304 114 -304 299
c0 200 168 432 440 432c84 0 147 -22 190 -46l53 43h16z" />
    <glyph glyph-name="H" unicode="H" horiz-adv-x="843" 
d="M405 0l3 14c73 4 99 9 109 47l78 291h-283l-78 -292c-10 -36 15 -42 86 -46l-3 -14h-348l3 14c87 3 106 10 116 46l155 578c7 27 -1 42 -91 46l3 13h345l-3 -13c-83 -5 -101 -19 -108 -47l-72 -265h283l71 266c7 26 -1 41 -86 46l3 13h349l-3 -13
c-88 -4 -110 -18 -117 -46l-154 -578c-10 -36 6 -43 91 -46l-3 -14h-346z" />
    <glyph glyph-name="I" unicode="I" horiz-adv-x="437" 
d="M520 684c-89 -4 -113 -18 -120 -45l-155 -579c-10 -37 9 -43 97 -46l-3 -14h-363l3 14c89 3 110 10 120 46l155 578c8 28 -4 42 -96 46l3 13h362z" />
    <glyph glyph-name="J" unicode="J" horiz-adv-x="597" 
d="M194 -17c-122 0 -190 63 -190 138c0 51 38 108 98 108c46 0 73 -31 73 -73c0 -48 -34 -88 -91 -96c12 -33 52 -56 95 -56c67 0 107 51 147 197l118 437c7 28 -7 42 -101 46l3 13h366l-3 -13c-89 -4 -112 -18 -119 -45l-111 -413c-44 -160 -123 -243 -285 -243z" />
    <glyph glyph-name="K" unicode="K" horiz-adv-x="780" 
d="M866 697l-3 -13c-89 -16 -141 -49 -240 -132l-133 -112l148 -342c30 -68 40 -76 105 -84l-3 -14h-337l3 14c87 7 96 20 73 77l-103 252l-86 -72l-56 -211c-10 -36 15 -42 79 -46l-3 -14h-341l3 14c87 3 106 10 116 46l155 578c7 27 -1 42 -91 46l3 13h345l-3 -13
c-83 -5 -101 -19 -108 -47l-90 -334l297 254c78 67 64 119 -18 127l3 13h285z" />
    <glyph glyph-name="L" unicode="L" horiz-adv-x="666" 
d="M389 637l-166 -616h101c120 0 173 64 299 237h17l-75 -258h-596l3 14c87 3 106 10 116 46l155 578c7 27 -1 42 -91 46l3 13h349l-3 -13c-86 -4 -105 -19 -112 -47z" />
    <glyph glyph-name="M" unicode="M" horiz-adv-x="986" 
d="M146 684l3 13h275l68 -512h4l324 512h260l-3 -13c-87 -4 -109 -18 -116 -46l-155 -578c-10 -36 6 -43 92 -46l-3 -14h-345l3 14c73 4 99 9 109 47l153 572h-5l-402 -635h-34l-89 635h-9l-129 -487c-22 -85 -2 -124 95 -132l-3 -14h-277l3 14c91 7 130 39 154 131l122 459
c11 43 -8 75 -95 80z" />
    <glyph glyph-name="N" unicode="N" horiz-adv-x="809" 
d="M367 697l271 -533h1l100 380c27 100 2 132 -95 140l3 13h275l-3 -13c-93 -11 -128 -50 -152 -140l-149 -555h-52l-302 594h-1l-115 -429c-26 -100 -3 -133 94 -140l-3 -14h-276l3 14c93 11 131 50 155 139l115 434c12 43 -10 93 -90 97l3 13h218z" />
    <glyph glyph-name="O" unicode="O" 
d="M354 -17c-165 0 -293 106 -293 291c0 199 162 440 422 440c164 0 293 -106 293 -290c0 -200 -162 -441 -422 -441zM335 3c175 0 295 296 295 506c0 116 -41 185 -128 185c-175 0 -296 -296 -296 -506c0 -116 42 -185 129 -185z" />
    <glyph glyph-name="P" unicode="P" horiz-adv-x="674" 
d="M304 320h58c164 0 205 150 205 246c0 82 -39 111 -116 111h-52zM152 684l3 13h298c203 0 263 -84 263 -167c0 -103 -87 -230 -341 -230h-77l-64 -240c-10 -36 15 -42 86 -46l-3 -14h-348l3 14c87 3 106 10 116 46l155 578c7 27 -1 42 -91 46z" />
    <glyph glyph-name="Q" unicode="Q" 
d="M61 276c0 198 162 438 422 438c164 0 293 -104 293 -289c0 -198 -162 -438 -422 -438h-7c98 -46 134 -181 203 -181c22 0 39 12 39 31c0 32 -38 39 -38 79c0 37 31 68 68 68s68 -34 68 -72c0 -82 -90 -138 -196 -138c-173 0 -187 166 -276 166c-46 0 -78 -22 -129 -79
l-12 12c52 71 119 117 189 126c-119 32 -202 128 -202 277zM630 511c0 115 -41 183 -128 183c-175 0 -296 -295 -296 -504c0 -115 42 -183 129 -183c175 0 295 296 295 504z" />
    <glyph glyph-name="R" unicode="R" horiz-adv-x="732" 
d="M314 358h52c174 0 209 136 209 209c0 72 -31 110 -115 110h-61zM152 684l3 13h311c171 0 254 -53 254 -147c0 -92 -65 -173 -270 -198l-1 -5c147 -9 187 -57 175 -165l-6 -65c-9 -89 2 -103 84 -107l-3 -14c-26 -2 -52 -3 -82 -3c-149 0 -166 42 -151 135l15 88
c14 91 -7 123 -101 123h-72l-74 -279c-10 -36 15 -42 86 -46l-3 -14h-348l3 14c87 3 106 10 116 46l155 578c7 27 -1 42 -91 46z" />
    <glyph glyph-name="S" unicode="S" horiz-adv-x="581" 
d="M-13 -17l73 262h16c48 -173 103 -240 207 -240c84 0 150 49 150 127c0 77 -60 120 -149 165c-85 44 -158 87 -158 184c0 116 103 229 259 229c70 0 124 -17 173 -41l57 47h16l-59 -239h-17c-56 173 -113 215 -190 215c-71 0 -127 -46 -127 -122c0 -70 66 -105 142 -146
c84 -46 158 -95 158 -193c0 -127 -91 -244 -265 -244c-87 0 -165 24 -215 51l-55 -55h-16z" />
    <glyph glyph-name="T" unicode="T" horiz-adv-x="723" 
d="M242 60l165 618h-26c-77 0 -133 -53 -263 -226h-19l70 245h631l-63 -245h-16c-47 188 -67 226 -145 226h-23l-165 -618c-11 -37 8 -43 108 -46l-3 -14h-386l3 14c101 3 122 10 132 46z" />
    <glyph glyph-name="U" unicode="U" horiz-adv-x="807" 
d="M368 637l-101 -374c-10 -39 -15 -72 -15 -101c0 -95 52 -145 154 -145c111 0 192 58 235 219l84 315c23 85 0 125 -97 133l3 13h274l-3 -13c-92 -11 -124 -41 -149 -132l-90 -337c-40 -151 -124 -232 -306 -232c-157 0 -246 70 -245 200c0 29 5 62 14 96l96 359
c7 27 -1 42 -91 46l3 13h345l-3 -13c-83 -5 -101 -19 -108 -47z" />
    <glyph glyph-name="V" unicode="V" horiz-adv-x="714" 
d="M848 684c-73 -10 -118 -49 -181 -147l-358 -549h-53l-80 616c-8 55 -20 69 -96 80l3 13h350l-3 -13c-96 -4 -115 -23 -110 -67l57 -476h5l248 385c62 96 38 148 -48 158l3 13h266z" />
    <glyph glyph-name="W" unicode="W" horiz-adv-x="1044" 
d="M323 616l38 -452h5l211 338l-9 101c-5 56 -16 75 -84 81l3 13h325l-3 -13c-85 -4 -100 -25 -97 -68l34 -449h5l207 357c61 106 38 148 -46 160l3 13h257l-3 -13c-76 -10 -119 -53 -175 -149l-318 -547h-52l-44 476l-292 -476h-53l-55 615c-6 56 -16 70 -91 81l3 13h324
l-3 -13c-81 -4 -93 -25 -90 -68z" />
    <glyph glyph-name="X" unicode="X" horiz-adv-x="723" 
d="M321 0l3 14c101 5 110 28 95 73l-74 218l-168 -177c-59 -61 -47 -107 27 -114l-3 -14h-267l3 14c82 9 137 45 218 127l182 187l-105 279c-19 51 -36 68 -111 77l3 13h352l-3 -13c-102 -5 -113 -28 -96 -74l71 -199l155 159c68 69 43 107 -31 114l3 13h267l-3 -13
c-81 -10 -129 -42 -214 -128l-168 -169l107 -297c18 -51 35 -68 112 -76l-3 -14h-352z" />
    <glyph glyph-name="Y" unicode="Y" horiz-adv-x="692" 
d="M636 545l-196 -240l-65 -245c-10 -37 9 -43 96 -46l-3 -14h-362l3 14c89 3 110 10 120 46l66 245l-95 306c-16 53 -27 61 -103 73l3 13h347l-3 -13c-110 -4 -117 -30 -106 -64l93 -293l178 223c61 79 57 117 -30 134l3 13h251l-3 -13c-72 -12 -117 -44 -194 -139z" />
    <glyph glyph-name="Z" unicode="Z" horiz-adv-x="672" 
d="M584 677h-145c-90 0 -169 -49 -298 -216l-20 2l73 234h561l2 -17l-613 -660h176c92 0 170 61 297 228l17 -2l-72 -246h-592l-2 17z" />
    <glyph glyph-name="a" unicode="a" horiz-adv-x="555" 
d="M495 309l-61 -205c-6 -20 -10 -36 -10 -48c0 -29 24 -34 90 -30v-11c-30 -11 -82 -23 -120 -23c-55 0 -87 16 -86 69c0 4 0 9 1 15l-2 1c-46 -60 -89 -85 -145 -85c-77 0 -136 60 -136 163c0 178 148 315 271 315c60 0 82 -28 99 -64l19 51l134 13zM324 440
c-87 0 -163 -180 -163 -293c0 -64 24 -100 68 -100c28 0 55 23 76 56l77 261c-3 39 -26 76 -58 76z" />
    <glyph glyph-name="b" unicode="b" horiz-adv-x="536" 
d="M212 11c90 0 164 190 164 312c0 59 -22 94 -69 94c-26 0 -51 -14 -75 -35l-86 -326c8 -30 37 -45 66 -45zM510 310c0 -166 -123 -318 -312 -318c-72 0 -127 15 -186 59l58 204l98 387c8 31 -9 44 -83 48v12l237 15l-85 -312l2 -2c44 42 87 67 142 67
c73 0 129 -57 129 -160z" />
    <glyph glyph-name="c" unicode="c" horiz-adv-x="467" 
d="M304 470c98 0 156 -43 156 -107c0 -36 -27 -72 -69 -72s-69 24 -69 64c0 25 18 58 50 72c-13 15 -30 24 -56 24c-84 0 -157 -151 -157 -272c0 -92 36 -139 117 -139c52 0 103 34 141 93l14 -9c-47 -84 -119 -132 -213 -132c-115 0 -192 77 -192 189
c0 155 118 289 278 289z" />
    <glyph glyph-name="d" unicode="d" horiz-adv-x="552" 
d="M611 717l-173 -611c-6 -19 -10 -36 -10 -47c0 -29 22 -38 91 -33v-11c-26 -9 -79 -23 -121 -23c-55 0 -86 17 -86 71v11l-3 1c-44 -56 -87 -83 -143 -83c-74 0 -140 63 -140 167c0 173 149 311 272 311c60 0 83 -23 100 -56l59 227c8 31 -9 45 -83 49v12zM325 440
c-89 0 -164 -180 -164 -293c0 -64 29 -97 73 -97c28 0 53 17 74 50l77 270c-5 35 -26 70 -60 70z" />
    <glyph glyph-name="e" unicode="e" horiz-adv-x="475" 
d="M475 365c0 -80 -96 -146 -313 -136c-3 -17 -4 -34 -4 -51c0 -92 31 -138 112 -138c53 0 113 32 153 88l12 -11c-51 -79 -128 -125 -222 -125c-109 0 -188 69 -188 184c0 157 127 294 303 294c100 0 147 -46 147 -105zM320 451c-62 0 -132 -99 -155 -205
c171 -2 201 85 201 149c0 38 -16 56 -46 56z" />
    <glyph glyph-name="f" unicode="f" horiz-adv-x="339" 
d="M402 433h-123l-69 -324c-48 -227 -116 -309 -255 -309c-82 0 -127 31 -127 84c0 36 28 65 68 65c39 0 62 -32 62 -64c0 -24 -16 -48 -36 -57c9 -5 18 -8 36 -8c35 0 67 23 90 129l107 484h-115l8 25h112l11 42c36 149 118 223 232 223c86 0 142 -36 142 -97
c0 -42 -24 -73 -69 -73c-40 0 -68 28 -68 67c0 24 15 51 32 66c-6 9 -23 18 -38 18c-42 0 -69 -42 -93 -142l-23 -104h124z" />
    <glyph glyph-name="g" unicode="g" horiz-adv-x="539" 
d="M165 0c-75 0 -138 58 -138 162c0 172 144 308 266 308c61 0 84 -26 103 -61l17 48l136 13l-54 -162l-90 -315c-38 -138 -104 -193 -268 -193c-123 0 -174 55 -174 103c0 42 31 77 74 77c42 0 64 -30 64 -66c0 -25 -17 -52 -40 -63c13 -24 51 -32 75 -32
c69 0 108 48 137 149l30 100l-3 2c-38 -47 -79 -70 -135 -70zM321 440c-89 0 -160 -178 -160 -289c0 -65 26 -95 71 -95c27 0 51 14 72 43l79 267c-5 35 -28 74 -62 74z" />
    <glyph glyph-name="h" unicode="h" horiz-adv-x="565" 
d="M512 303l-64 -203c-6 -20 -9 -35 -9 -46c0 -28 23 -32 90 -28v-11c-26 -9 -77 -23 -119 -23c-64 0 -98 21 -98 67c0 13 3 31 9 49l63 201c7 23 10 39 10 56c0 29 -12 44 -42 44c-35 0 -77 -23 -119 -61l-88 -348h-134l48 162l121 480c7 31 -9 44 -83 48v12l236 15
l-96 -347l3 -2c59 63 126 100 184 100c64 0 100 -35 100 -96c0 -19 -4 -43 -12 -69z" />
    <glyph glyph-name="i" unicode="i" horiz-adv-x="318" 
d="M190 609c0 54 40 97 89 97c32 0 61 -23 61 -64c0 -54 -41 -97 -90 -97c-31 0 -60 22 -60 64zM276 32v-11c-31 -13 -84 -29 -133 -29c-65 0 -97 24 -97 72c0 13 3 29 8 46l84 278c11 33 -18 48 -79 52v12l232 13l-108 -356c-5 -18 -9 -31 -9 -42c0 -32 28 -40 102 -35z
" />
    <glyph glyph-name="j" unicode="j" horiz-adv-x="298" 
d="M178 609c0 54 41 97 90 97c31 0 61 -23 61 -64c0 -54 -41 -97 -90 -97c-31 0 -61 22 -61 64zM-65 -200c-81 0 -127 30 -127 84c0 36 27 65 67 65c39 0 62 -32 62 -64c0 -24 -14 -47 -33 -57c9 -5 18 -8 35 -8c35 0 62 27 89 138l106 431c7 32 -17 47 -80 51v12l230 13
l-117 -457c-34 -136 -94 -208 -232 -208z" />
    <glyph glyph-name="k" unicode="k" horiz-adv-x="533" 
d="M333 717l-119 -445h23c95 0 108 198 227 198c51 0 76 -33 76 -69c0 -46 -26 -74 -64 -74c-37 0 -65 19 -65 55c0 13 6 31 14 42c-62 -12 -83 -134 -145 -153v-4c122 3 153 -40 153 -100c0 -27 -7 -72 -7 -105c0 -30 12 -41 80 -39v-11c-26 -9 -71 -20 -113 -20
c-83 0 -97 35 -97 83c0 35 10 84 10 106c0 60 -20 76 -70 76h-26l-65 -257h-133l47 162l121 480c7 31 -9 44 -83 48v12z" />
    <glyph glyph-name="l" unicode="l" horiz-adv-x="303" 
d="M345 717l-176 -608c-4 -16 -7 -29 -7 -40c0 -34 27 -41 103 -37v-11c-31 -13 -86 -29 -135 -29c-65 0 -96 24 -96 71c0 14 3 30 8 48l103 347l48 184c8 31 -9 44 -83 48v12z" />
    <glyph glyph-name="m" unicode="m" horiz-adv-x="843" 
d="M271 465l-29 -95l4 -3c58 64 122 101 180 101c67 0 99 -36 100 -92v-2c64 64 124 94 175 94c65 0 101 -36 101 -97c0 -17 -4 -43 -12 -68l-64 -203c-6 -20 -10 -35 -10 -46c0 -28 24 -32 91 -28v-11c-26 -9 -78 -23 -119 -23c-65 0 -98 22 -98 67c0 11 3 31 9 49l63 201
c7 22 12 42 12 58c0 26 -12 42 -42 42s-66 -17 -106 -51c-1 -10 -4 -22 -7 -35l-92 -323h-130l90 309c6 21 10 44 10 59c0 25 -11 41 -42 41c-34 0 -75 -23 -117 -61l-88 -348h-134l48 162l61 229c8 32 0 45 -62 49v12z" />
    <glyph glyph-name="n" unicode="n" horiz-adv-x="570" 
d="M64 162l61 229c8 32 0 45 -62 49v12l208 13l-29 -95l3 -2c59 63 126 100 184 100c64 0 100 -35 100 -96c0 -19 -4 -43 -12 -69l-64 -203c-6 -20 -9 -35 -9 -46c0 -28 23 -32 91 -28v-11c-27 -9 -78 -23 -120 -23c-64 0 -98 21 -98 67c0 13 3 31 9 49l63 201
c7 23 11 39 11 56c0 29 -13 44 -43 44c-35 0 -77 -23 -119 -61l-88 -348h-134z" />
    <glyph glyph-name="o" unicode="o" horiz-adv-x="525" 
d="M304 470c121 0 196 -78 196 -197c0 -128 -99 -281 -279 -281c-121 0 -196 78 -196 197c0 128 99 281 279 281zM214 11c103 0 164 230 164 344c0 60 -19 96 -67 96c-103 0 -164 -230 -164 -344c0 -60 19 -96 67 -96z" />
    <glyph glyph-name="p" unicode="p" horiz-adv-x="554" 
d="M236 20c87 0 160 179 160 304c0 64 -21 93 -66 93c-25 0 -62 -21 -82 -44l-79 -302c9 -34 38 -51 67 -51zM160 33l-48 -177c-5 -21 8 -31 93 -34v-12h-307v12c59 2 72 12 77 29l42 132l108 409c9 31 0 44 -62 48v12l208 13l-19 -65l2 -2c43 45 90 72 145 72
c72 0 131 -57 131 -160c0 -177 -145 -317 -271 -317c-49 0 -83 17 -99 40z" />
    <glyph glyph-name="q" unicode="q" horiz-adv-x="542" 
d="M323 440c-89 0 -162 -180 -162 -293c0 -64 27 -97 71 -97c28 0 53 17 74 50l79 267c-5 35 -28 73 -62 73zM240 -149l67 215l-7 1c-46 -54 -80 -75 -136 -75c-77 0 -138 63 -138 167c0 173 147 311 270 311c60 0 84 -26 103 -61l17 48l135 13l-54 -162l-120 -454
c-4 -21 -5 -29 77 -32v-12h-306v12c65 2 87 12 92 29z" />
    <glyph glyph-name="r" unicode="r" horiz-adv-x="460" 
d="M397 470c57 0 87 -34 87 -79c0 -52 -32 -87 -77 -87c-41 0 -71 22 -71 64c0 10 3 33 18 47c-40 -1 -87 -47 -121 -85l-83 -330h-134l48 162l61 229c8 32 0 45 -62 49v12l208 13l-32 -106l2 -2c41 63 98 113 156 113z" />
    <glyph glyph-name="s" unicode="s" horiz-adv-x="433" 
d="M172 -8c-90 0 -168 31 -168 91c0 37 27 68 67 68c35 0 60 -24 60 -56c0 -21 -9 -40 -28 -53c18 -18 53 -31 86 -31c62 0 102 33 102 83c0 47 -48 65 -99 86c-73 28 -122 60 -122 131c0 89 74 159 200 159c99 0 156 -41 156 -91c0 -35 -20 -67 -65 -67
c-34 0 -60 27 -60 53c0 18 9 41 31 56c-12 18 -41 30 -74 30c-64 0 -97 -37 -97 -82c0 -43 48 -63 101 -86c77 -33 123 -66 123 -130c0 -85 -57 -161 -213 -161z" />
    <glyph glyph-name="t" unicode="t" horiz-adv-x="362" 
d="M403 433h-126l-80 -285c-6 -22 -9 -41 -9 -55c0 -34 19 -48 57 -48c25 0 61 6 90 15v-11c-39 -24 -100 -57 -173 -57c-74 0 -109 31 -109 89c0 18 4 40 11 64l84 288h-93l9 25h92l43 152l138 18l-53 -170h127z" />
    <glyph glyph-name="u" unicode="u" horiz-adv-x="576" 
d="M52 156l75 232c11 33 -2 48 -64 52v12l216 13l-99 -315c-6 -19 -9 -39 -9 -49c0 -30 16 -45 49 -45c34 0 69 18 111 56l56 193l41 158h135l-110 -362c-6 -19 -9 -33 -9 -45c0 -28 22 -34 90 -30v-11c-26 -9 -79 -23 -121 -23c-56 0 -93 19 -93 61c0 11 2 23 7 36l-3 3
c-58 -66 -122 -100 -180 -100c-68 0 -104 36 -104 96c0 19 4 42 12 68z" />
    <glyph glyph-name="v" unicode="v" horiz-adv-x="496" 
d="M223 -15l-94 10l-10 155l-27 231c-7 42 -20 53 -79 54v12l197 21l32 -296l5 -113h5l50 69c56 78 92 150 104 191c-36 15 -56 40 -56 77c0 44 27 75 74 75c42 0 71 -34 71 -73c0 -46 -13 -75 -105 -194z" />
    <glyph glyph-name="w" unicode="w" horiz-adv-x="752" 
d="M498 -16l-96 11l-9 155l-8 68l-160 -233l-97 10l-9 155l-27 231c-7 42 -20 53 -79 54v12l197 21l32 -296l4 -113h5l63 101c30 47 50 89 63 123l-20 171l129 14l30 -296l5 -114h5l49 70c57 79 89 150 101 191c-36 15 -56 40 -56 77c0 44 27 75 74 75c42 0 71 -34 71 -73
c0 -46 -12 -74 -102 -194z" />
    <glyph glyph-name="x" unicode="x" horiz-adv-x="523" 
d="M243 466l62 -190h3l34 76c35 81 73 120 129 120c48 0 76 -35 76 -74c0 -42 -30 -72 -67 -72c-34 0 -66 21 -64 74c-22 -11 -49 -47 -72 -97l-27 -55l61 -148c29 -70 39 -80 105 -84v-11l-194 -12l-61 192h-3l-39 -79c-45 -94 -86 -123 -134 -123c-50 0 -80 33 -80 72
c0 40 25 72 70 72c41 0 68 -38 62 -81c14 8 49 49 76 99l33 62l-70 171c-17 40 -29 56 -92 58v12z" />
    <glyph glyph-name="y" unicode="y" horiz-adv-x="488" 
d="M203 468l40 -223l28 -200h4l43 69c55 84 83 155 90 203c-41 12 -67 42 -67 79c0 44 27 75 73 75c43 0 71 -34 71 -75c0 -56 -27 -109 -138 -284c-167 -263 -246 -312 -341 -312c-62 0 -97 33 -97 83c0 42 31 76 73 76c39 0 69 -29 69 -72c0 -25 -12 -47 -27 -58
c41 2 96 20 148 92l-46 259l-39 201c-8 42 -22 53 -81 54v12z" />
    <glyph glyph-name="z" unicode="z" horiz-adv-x="456" 
d="M1 -15l-15 28l379 352l-2 5l-161 -3c-72 -2 -90 -14 -134 -85l-14 2l50 179h357l7 -35l-368 -342l2 -3c27 13 52 17 84 17c42 0 95 -7 125 -7c50 0 73 14 94 80l12 -2c-17 -159 -55 -179 -122 -179c-79 0 -132 10 -184 10c-39 0 -80 -3 -110 -17z" />
    <glyph glyph-name="Aacute" unicode="&#xc1;" horiz-adv-x="708" 
d="M-70 0l3 14c75 11 124 55 182 148l343 548h72l77 -614c7 -61 18 -72 94 -82l-3 -14h-349l3 14c97 4 114 22 108 73l-21 180h-231l-71 -117c-53 -88 -38 -126 45 -136l-3 -14h-249zM437 287l-33 292h-6l-177 -292h216zM457 766l88 153c34 59 47 77 79 77
c28 0 50 -23 50 -48c0 -26 -17 -44 -123 -123l-79 -59h-15z" />
    <glyph glyph-name="aacute" unicode="&#xe1;" horiz-adv-x="555" 
d="M495 309l-61 -205c-6 -20 -10 -36 -10 -48c0 -29 24 -34 90 -30v-11c-30 -11 -82 -23 -120 -23c-55 0 -87 16 -86 69c0 4 0 9 1 15l-2 1c-46 -60 -89 -85 -145 -85c-77 0 -136 60 -136 163c0 178 148 315 271 315c60 0 82 -28 99 -64l19 51l134 13zM324 440
c-87 0 -163 -180 -163 -293c0 -64 24 -100 68 -100c28 0 55 23 76 56l77 261c-3 39 -26 76 -58 76zM309 526l88 153c34 59 47 77 79 77c28 0 50 -23 50 -48c0 -26 -17 -44 -123 -123l-79 -59h-15z" />
    <glyph glyph-name="Abreve" unicode="&#x102;" horiz-adv-x="708" 
d="M-70 0l3 14c75 11 124 55 182 148l343 548h72l77 -614c7 -61 18 -72 94 -82l-3 -14h-349l3 14c97 4 114 22 108 73l-21 180h-231l-71 -117c-53 -88 -38 -126 45 -136l-3 -14h-249zM437 287l-33 292h-6l-177 -292h216zM502 771c-80 0 -126 51 -101 167h16
c6 -57 38 -89 99 -89c65 0 111 33 145 89h20c-37 -114 -96 -167 -179 -167z" />
    <glyph glyph-name="abreve" unicode="&#x103;" horiz-adv-x="555" 
d="M495 309l-61 -205c-6 -20 -10 -36 -10 -48c0 -29 24 -34 90 -30v-11c-30 -11 -82 -23 -120 -23c-55 0 -87 16 -86 69c0 4 0 9 1 15l-2 1c-46 -60 -89 -85 -145 -85c-77 0 -136 60 -136 163c0 178 148 315 271 315c60 0 82 -28 99 -64l19 51l134 13zM324 440
c-87 0 -163 -180 -163 -293c0 -64 24 -100 68 -100c28 0 55 23 76 56l77 261c-3 39 -26 76 -58 76zM359 531c-80 0 -126 51 -101 167h16c6 -57 38 -89 99 -89c65 0 111 33 145 89h20c-37 -114 -96 -167 -179 -167z" />
    <glyph glyph-name="Acircumflex" unicode="&#xc2;" horiz-adv-x="708" 
d="M-70 0l3 14c75 11 124 55 182 148l343 548h72l77 -614c7 -61 18 -72 94 -82l-3 -14h-349l3 14c97 4 114 22 108 73l-21 180h-231l-71 -117c-53 -88 -38 -126 45 -136l-3 -14h-249zM437 287l-33 292h-6l-177 -292h216zM351 763l197 208h13l81 -208h-16l-103 89l-150 -89
h-22z" />
    <glyph glyph-name="acircumflex" unicode="&#xe2;" horiz-adv-x="555" 
d="M495 309l-61 -205c-6 -20 -10 -36 -10 -48c0 -29 24 -34 90 -30v-11c-30 -11 -82 -23 -120 -23c-55 0 -87 16 -86 69c0 4 0 9 1 15l-2 1c-46 -60 -89 -85 -145 -85c-77 0 -136 60 -136 163c0 178 148 315 271 315c60 0 82 -28 99 -64l19 51l134 13zM324 440
c-87 0 -163 -180 -163 -293c0 -64 24 -100 68 -100c28 0 55 23 76 56l77 261c-3 39 -26 76 -58 76zM209 526l197 208h13l81 -208h-16l-103 89l-150 -89h-22z" />
    <glyph glyph-name="Adieresis" unicode="&#xc4;" horiz-adv-x="708" 
d="M-70 0l3 14c75 11 124 55 182 148l343 548h72l77 -614c7 -61 18 -72 94 -82l-3 -14h-349l3 14c97 4 114 22 108 73l-21 180h-231l-71 -117c-53 -88 -38 -126 45 -136l-3 -14h-249zM437 287l-33 292h-6l-177 -292h216zM611 771c-29 0 -58 21 -58 61c0 53 39 93 86 93
c30 0 58 -21 58 -61c0 -52 -39 -93 -86 -93zM407 771c-30 0 -59 21 -59 61c0 53 39 93 86 93c30 0 58 -21 58 -61c0 -52 -39 -93 -85 -93z" />
    <glyph glyph-name="adieresis" unicode="&#xe4;" horiz-adv-x="555" 
d="M495 309l-61 -205c-6 -20 -10 -36 -10 -48c0 -29 24 -34 90 -30v-11c-30 -11 -82 -23 -120 -23c-55 0 -87 16 -86 69c0 4 0 9 1 15l-2 1c-46 -60 -89 -85 -145 -85c-77 0 -136 60 -136 163c0 178 148 315 271 315c60 0 82 -28 99 -64l19 51l134 13zM324 440
c-87 0 -163 -180 -163 -293c0 -64 24 -100 68 -100c28 0 55 23 76 56l77 261c-3 39 -26 76 -58 76zM271 531c-30 0 -59 21 -59 61c0 53 39 93 86 93c30 0 58 -21 58 -61c0 -52 -39 -93 -85 -93zM475 531c-29 0 -58 21 -58 61c0 53 39 93 86 93c30 0 58 -21 58 -61
c0 -52 -39 -93 -86 -93z" />
    <glyph glyph-name="AE" unicode="&#xc6;" horiz-adv-x="1098" 
d="M875 222h-15c-22 112 -26 136 -104 136h-53l-90 -337h129c140 0 209 83 301 227h17l-69 -248h-632l3 14c86 3 106 10 116 46l59 224h-246l-122 -139c-31 -36 -47 -64 -47 -86c0 -26 23 -41 72 -45l-4 -14h-259l4 14c86 18 126 48 209 141l387 437c17 19 26 35 26 48
c0 24 -32 38 -100 44l3 13h679l-58 -233h-16c-27 140 -49 212 -168 212h-109l-80 -298h53c78 0 99 24 171 124h15zM542 304l98 364h-11l-320 -364h233z" />
    <glyph glyph-name="ae" unicode="&#xe6;" horiz-adv-x="750" 
d="M603 470c100 0 147 -46 147 -105c0 -80 -96 -146 -313 -136c-3 -17 -4 -34 -4 -51c0 -92 31 -138 112 -138c53 0 113 32 153 88l12 -11c-51 -79 -128 -125 -219 -125c-87 0 -152 49 -163 140h-3c-37 -85 -105 -140 -182 -140s-125 41 -125 104c0 88 92 154 318 155
c5 27 6 50 6 76c0 87 -42 124 -88 124c-33 0 -59 -14 -73 -33c25 -10 32 -33 32 -52c0 -45 -28 -69 -68 -69c-39 0 -64 26 -64 62c0 59 67 111 181 111c69 0 128 -19 152 -69h3c49 43 112 69 186 69zM595 451c-62 0 -132 -99 -155 -205c171 -2 201 85 201 149
c0 38 -16 56 -46 56zM204 51c64 0 115 67 130 183c-154 -2 -196 -57 -196 -113c0 -44 27 -70 66 -70z" />
    <glyph glyph-name="AEacute" unicode="&#x1fc;" horiz-adv-x="1098" 
d="M744 766l88 153c34 59 47 77 79 77c28 0 50 -23 50 -48c0 -26 -17 -44 -123 -123l-79 -59h-15zM875 222h-15c-22 112 -26 136 -104 136h-53l-90 -337h129c140 0 209 83 301 227h17l-69 -248h-632l3 14c86 3 106 10 116 46l59 224h-246l-122 -139c-31 -36 -47 -64 -47 -86
c0 -26 23 -41 72 -45l-4 -14h-259l4 14c86 18 126 48 209 141l387 437c17 19 26 35 26 48c0 24 -32 38 -100 44l3 13h679l-58 -233h-16c-27 140 -49 212 -168 212h-109l-80 -298h53c78 0 99 24 171 124h15zM542 304l98 364h-11l-320 -364h233z" />
    <glyph glyph-name="aeacute" unicode="&#x1fd;" horiz-adv-x="750" 
d="M603 470c100 0 147 -46 147 -105c0 -80 -96 -146 -313 -136c-3 -17 -4 -34 -4 -51c0 -92 31 -138 112 -138c53 0 113 32 153 88l12 -11c-51 -79 -128 -125 -219 -125c-87 0 -152 49 -163 140h-3c-37 -85 -105 -140 -182 -140s-125 41 -125 104c0 88 92 154 318 155
c5 27 6 50 6 76c0 87 -42 124 -88 124c-33 0 -59 -14 -73 -33c25 -10 32 -33 32 -52c0 -45 -28 -69 -68 -69c-39 0 -64 26 -64 62c0 59 67 111 181 111c69 0 128 -19 152 -69h3c49 43 112 69 186 69zM595 451c-62 0 -132 -99 -155 -205c171 -2 201 85 201 149
c0 38 -16 56 -46 56zM204 51c64 0 115 67 130 183c-154 -2 -196 -57 -196 -113c0 -44 27 -70 66 -70zM455 526l88 153c34 59 47 77 79 77c28 0 50 -23 50 -48c0 -26 -17 -44 -123 -123l-79 -59h-15z" />
    <glyph glyph-name="Agrave" unicode="&#xc0;" horiz-adv-x="708" 
d="M-70 0l3 14c75 11 124 55 182 148l343 548h72l77 -614c7 -61 18 -72 94 -82l-3 -14h-349l3 14c97 4 114 22 108 73l-21 180h-231l-71 -117c-53 -88 -38 -126 45 -136l-3 -14h-249zM437 287l-33 292h-6l-177 -292h216zM518 766l-100 96c-38 37 -56 59 -56 83
c0 25 23 49 53 49c32 0 45 -28 64 -83l51 -145h-12z" />
    <glyph glyph-name="agrave" unicode="&#xe0;" horiz-adv-x="555" 
d="M495 309l-61 -205c-6 -20 -10 -36 -10 -48c0 -29 24 -34 90 -30v-11c-30 -11 -82 -23 -120 -23c-55 0 -87 16 -86 69c0 4 0 9 1 15l-2 1c-46 -60 -89 -85 -145 -85c-77 0 -136 60 -136 163c0 178 148 315 271 315c60 0 82 -28 99 -64l19 51l134 13zM324 440
c-87 0 -163 -180 -163 -293c0 -64 24 -100 68 -100c28 0 55 23 76 56l77 261c-3 39 -26 76 -58 76zM386 526l-100 96c-38 37 -56 59 -56 83c0 25 23 49 53 49c32 0 45 -28 64 -83l51 -145h-12z" />
    <glyph glyph-name="Amacron" unicode="&#x100;" horiz-adv-x="708" 
d="M-70 0l3 14c75 11 124 55 182 148l343 548h72l77 -614c7 -61 18 -72 94 -82l-3 -14h-349l3 14c97 4 114 22 108 73l-21 180h-231l-71 -117c-53 -88 -38 -126 45 -136l-3 -14h-249zM437 287l-33 292h-6l-177 -292h216zM361 796l12 47h291l-12 -47h-291z" />
    <glyph glyph-name="amacron" unicode="&#x101;" horiz-adv-x="555" 
d="M495 309l-61 -205c-6 -20 -10 -36 -10 -48c0 -29 24 -34 90 -30v-11c-30 -11 -82 -23 -120 -23c-55 0 -87 16 -86 69c0 4 0 9 1 15l-2 1c-46 -60 -89 -85 -145 -85c-77 0 -136 60 -136 163c0 178 148 315 271 315c60 0 82 -28 99 -64l19 51l134 13zM324 440
c-87 0 -163 -180 -163 -293c0 -64 24 -100 68 -100c28 0 55 23 76 56l77 261c-3 39 -26 76 -58 76zM218 556l12 47h291l-12 -47h-291z" />
    <glyph glyph-name="Aogonek" unicode="&#x104;" horiz-adv-x="708" 
d="M456 -246c-58 0 -93 31 -93 78c0 67 68 105 144 141l57 27h-215l3 14c97 4 114 22 108 73l-21 180h-231l-71 -117c-53 -88 -38 -126 45 -136l-3 -14h-249l3 14c75 11 124 55 182 148l343 548h72l77 -614c7 -61 18 -72 94 -82l-3 -14h-110l-42 -31
c-55 -41 -88 -83 -88 -126c0 -37 24 -54 53 -54c21 0 40 5 62 14l5 -12c-37 -22 -80 -37 -122 -37zM437 287l-33 292h-6l-177 -292h216z" />
    <glyph glyph-name="aogonek" unicode="&#x105;" horiz-adv-x="555" 
d="M317 -246c-57 0 -92 31 -92 78c0 67 67 107 155 143l46 19c-12 -1 -25 -2 -32 -2c-55 0 -87 16 -86 69c0 4 0 9 1 15l-2 1c-46 -60 -89 -85 -145 -85c-77 0 -136 60 -136 163c0 178 148 315 271 315c60 0 82 -28 99 -64l19 51l134 13l-54 -161l-61 -205
c-6 -20 -10 -36 -10 -48c0 -29 24 -34 90 -30v-11l-49 -21c-115 -50 -145 -108 -145 -151c0 -37 23 -54 53 -54c21 0 39 5 62 14l4 -12c-37 -22 -79 -37 -122 -37zM229 47c28 0 55 23 76 56l77 261c-3 39 -26 76 -58 76c-87 0 -163 -180 -163 -293c0 -64 24 -100 68 -100z
" />
    <glyph glyph-name="Aring" unicode="&#xc5;" horiz-adv-x="708" 
d="M208 267l-71 -117c-53 -88 -38 -126 45 -136l-3 -14h-249l3 13c75 11 124 56 182 149l338 540c-38 11 -64 40 -64 90c0 78 68 140 147 140c56 0 102 -29 102 -96c0 -64 -46 -117 -107 -133l76 -607c8 -61 18 -73 94 -83l-3 -13h-349l3 13c97 4 114 23 108 74l-21 180
h-231zM437 287l-33 292h-6l-177 -292h216zM492 712c52 0 79 92 79 146c0 42 -15 58 -36 58c-52 0 -79 -92 -79 -146c0 -42 15 -58 36 -58z" />
    <glyph glyph-name="aring" unicode="&#xe5;" horiz-adv-x="555" 
d="M495 309l-61 -205c-6 -20 -10 -36 -10 -48c0 -29 24 -34 90 -30v-11c-30 -11 -82 -23 -120 -23c-55 0 -87 16 -86 69c0 4 0 9 1 15l-2 1c-46 -60 -89 -85 -145 -85c-77 0 -136 60 -136 163c0 178 148 315 271 315c60 0 82 -28 99 -64l19 51l134 13zM324 440
c-87 0 -163 -180 -163 -293c0 -64 24 -100 68 -100c28 0 55 23 76 56l77 261c-3 39 -26 76 -58 76zM376 531c-56 0 -105 31 -105 89c0 73 68 126 146 126c56 0 105 -31 105 -89c0 -74 -68 -126 -146 -126zM378 548c48 0 75 80 75 129c0 36 -14 52 -38 52
c-48 0 -75 -80 -75 -129c0 -36 14 -52 38 -52z" />
    <glyph glyph-name="Aringacute" unicode="&#x1fa;" horiz-adv-x="708" 
d="M208 267l-71 -117c-53 -88 -38 -126 45 -136l-3 -14h-249l3 13c75 11 124 56 182 149l338 540c-38 11 -64 40 -64 90c0 78 68 140 147 140c56 0 102 -29 102 -96c0 -64 -46 -117 -107 -133l76 -607c8 -61 18 -73 94 -83l-3 -13h-349l3 13c97 4 114 23 108 74l-21 180
h-231zM437 287l-33 292h-6l-177 -292h216zM516 953l88 153c34 59 47 77 79 77c28 0 50 -23 50 -48c0 -26 -17 -44 -123 -123l-79 -59h-15zM492 712c52 0 79 92 79 146c0 42 -15 58 -36 58c-52 0 -79 -92 -79 -146c0 -42 15 -58 36 -58z" />
    <glyph glyph-name="aringacute" unicode="&#x1fb;" horiz-adv-x="555" 
d="M495 309l-61 -205c-6 -20 -10 -36 -10 -48c0 -29 24 -34 90 -30v-11c-30 -11 -82 -23 -120 -23c-55 0 -87 16 -86 69c0 4 0 9 1 15l-2 1c-46 -60 -89 -85 -145 -85c-77 0 -136 60 -136 163c0 178 148 315 271 315c60 0 82 -28 99 -64l19 51l134 13zM324 440
c-87 0 -163 -180 -163 -293c0 -64 24 -100 68 -100c28 0 55 23 76 56l77 261c-3 39 -26 76 -58 76zM376 531c-56 0 -105 31 -105 89c0 73 68 126 146 126c56 0 105 -31 105 -89c0 -74 -68 -126 -146 -126zM399 799l88 153c34 59 47 77 79 77c28 0 50 -23 50 -48
c0 -26 -17 -44 -123 -123l-79 -59h-15zM378 548c48 0 75 80 75 129c0 36 -14 52 -38 52c-48 0 -75 -80 -75 -129c0 -36 14 -52 38 -52z" />
    <glyph glyph-name="Atilde" unicode="&#xc3;" horiz-adv-x="708" 
d="M-70 0l3 14c75 11 124 55 182 148l343 548h72l77 -614c7 -61 18 -72 94 -82l-3 -14h-349l3 14c97 4 114 22 108 73l-21 180h-231l-71 -117c-53 -88 -38 -126 45 -136l-3 -14h-249zM437 287l-33 292h-6l-177 -292h216zM359 767c21 101 55 139 108 139
c45 0 109 -55 146 -55c31 0 38 8 59 59h16c-20 -102 -53 -139 -108 -139c-44 0 -108 54 -146 54c-30 0 -38 -9 -59 -58h-16z" />
    <glyph glyph-name="atilde" unicode="&#xe3;" horiz-adv-x="555" 
d="M495 309l-61 -205c-6 -20 -10 -36 -10 -48c0 -29 24 -34 90 -30v-11c-30 -11 -82 -23 -120 -23c-55 0 -87 16 -86 69c0 4 0 9 1 15l-2 1c-46 -60 -89 -85 -145 -85c-77 0 -136 60 -136 163c0 178 148 315 271 315c60 0 82 -28 99 -64l19 51l134 13zM324 440
c-87 0 -163 -180 -163 -293c0 -64 24 -100 68 -100c28 0 55 23 76 56l77 261c-3 39 -26 76 -58 76zM216 527c21 101 55 139 108 139c45 0 109 -55 146 -55c31 0 38 8 59 59h16c-20 -102 -53 -139 -108 -139c-44 0 -108 54 -146 54c-30 0 -38 -9 -59 -58h-16z" />
    <glyph glyph-name="Cacute" unicode="&#x106;" horiz-adv-x="714" 
d="M452 766l88 153c34 59 47 77 79 77c28 0 50 -23 50 -48c0 -26 -17 -44 -123 -123l-79 -59h-15zM348 -17c-166 0 -287 114 -287 299c0 206 168 432 440 432c84 0 134 -23 178 -49l57 46h16l-65 -253h-16c-51 187 -88 236 -176 236c-146 0 -281 -249 -281 -444
c0 -146 63 -227 188 -227c88 0 182 57 261 164l17 -11c-74 -106 -191 -193 -332 -193z" />
    <glyph glyph-name="cacute" unicode="&#x107;" horiz-adv-x="467" 
d="M257 526l88 153c34 59 47 77 79 77c28 0 50 -23 50 -48c0 -26 -17 -44 -123 -123l-79 -59h-15zM304 470c98 0 156 -43 156 -107c0 -36 -27 -72 -69 -72s-69 24 -69 64c0 25 18 58 50 72c-13 15 -30 24 -56 24c-84 0 -157 -151 -157 -272c0 -92 36 -139 117 -139
c52 0 103 34 141 93l14 -9c-47 -84 -119 -132 -213 -132c-115 0 -192 77 -192 189c0 155 118 289 278 289z" />
    <glyph glyph-name="Ccaron" unicode="&#x10c;" horiz-adv-x="714" 
d="M507 766l-81 208h16l103 -89l150 89h22l-197 -208h-13zM348 -17c-166 0 -287 114 -287 299c0 206 168 432 440 432c84 0 134 -23 178 -49l57 46h16l-65 -253h-16c-51 187 -88 236 -176 236c-146 0 -281 -249 -281 -444c0 -146 63 -227 188 -227c88 0 182 57 261 164
l17 -11c-74 -106 -191 -193 -332 -193z" />
    <glyph glyph-name="ccaron" unicode="&#x10d;" horiz-adv-x="467" 
d="M305 526l-81 208h16l103 -89l150 89h22l-197 -208h-13zM304 470c98 0 156 -43 156 -107c0 -36 -27 -72 -69 -72s-69 24 -69 64c0 25 18 58 50 72c-13 15 -30 24 -56 24c-84 0 -157 -151 -157 -272c0 -92 36 -139 117 -139c52 0 103 34 141 93l14 -9
c-47 -84 -119 -132 -213 -132c-115 0 -192 77 -192 189c0 155 118 289 278 289z" />
    <glyph glyph-name="Ccedilla" unicode="&#xc7;" horiz-adv-x="714" 
d="M285 -245c-48 0 -73 9 -101 26l9 15c26 -15 48 -23 77 -23c41 0 65 24 65 54c0 31 -32 50 -81 50c-9 0 -21 -1 -31 -2l-2 10l122 98c-163 2 -282 115 -282 299c0 206 168 432 440 432c84 0 134 -23 178 -49l57 46h16l-65 -253h-16c-51 187 -88 236 -176 236
c-146 0 -281 -249 -281 -444c0 -146 63 -227 188 -227c88 0 182 57 261 164l17 -11c-70 -101 -179 -184 -310 -192l-60 -47l1 -4c72 -8 110 -33 110 -82c0 -60 -67 -96 -136 -96z" />
    <glyph glyph-name="ccedilla" unicode="&#xe7;" horiz-adv-x="467" 
d="M145 -245c-48 0 -73 9 -101 26l9 15c26 -15 48 -23 77 -23c41 0 65 24 65 54c0 31 -32 50 -81 50c-9 0 -21 -1 -31 -2l-2 10l134 107c-114 2 -189 78 -189 189c0 155 118 289 278 289c98 0 156 -43 156 -107c0 -36 -27 -72 -69 -72s-69 24 -69 64c0 25 18 58 50 72
c-13 15 -30 24 -56 24c-84 0 -157 -151 -157 -272c0 -92 36 -139 117 -139c52 0 103 34 141 93l14 -9c-43 -77 -107 -124 -189 -131l-72 -56l1 -4c72 -8 110 -33 110 -82c0 -60 -67 -96 -136 -96z" />
    <glyph glyph-name="Cdotaccent" unicode="&#x10a;" horiz-adv-x="714" 
d="M348 -17c-166 0 -287 114 -287 299c0 206 168 432 440 432c84 0 134 -23 178 -49l57 46h16l-65 -253h-16c-51 187 -88 236 -176 236c-146 0 -281 -249 -281 -444c0 -146 63 -227 188 -227c88 0 182 57 261 164l17 -11c-74 -106 -191 -193 -332 -193zM525 771
c-31 0 -61 23 -61 64c0 54 41 97 90 97c31 0 61 -22 61 -64c0 -54 -41 -97 -90 -97z" />
    <glyph glyph-name="cdotaccent" unicode="&#x10b;" horiz-adv-x="467" 
d="M304 470c98 0 156 -43 156 -107c0 -36 -27 -72 -69 -72s-69 24 -69 64c0 25 18 58 50 72c-13 15 -30 24 -56 24c-84 0 -157 -151 -157 -272c0 -92 36 -139 117 -139c52 0 103 34 141 93l14 -9c-47 -84 -119 -132 -213 -132c-115 0 -192 77 -192 189
c0 155 118 289 278 289zM322 531c-31 0 -61 23 -61 64c0 54 41 97 90 97c31 0 61 -22 61 -64c0 -54 -41 -97 -90 -97z" />
    <glyph glyph-name="Dcaron" unicode="&#x10e;" horiz-adv-x="777" 
d="M88 60l155 578c7 27 -1 42 -91 46l3 13h300c196 0 324 -108 324 -283c0 -102 -43 -211 -123 -291c-73 -74 -177 -123 -307 -123h-380l3 14c87 3 106 10 116 46zM223 20h110c64 0 116 26 158 68c100 101 139 294 139 402c0 110 -39 187 -172 187h-59zM510 766l-81 208h16
l103 -89l150 89h22l-197 -208h-13z" />
    <glyph glyph-name="dcaron" unicode="&#x10f;" horiz-adv-x="552" 
d="M611 717l-173 -611c-6 -19 -10 -36 -10 -47c0 -29 22 -38 91 -33v-11c-26 -9 -79 -23 -121 -23c-55 0 -86 17 -86 71v11l-3 1c-44 -56 -87 -83 -143 -83c-74 0 -140 63 -140 167c0 173 149 311 272 311c60 0 83 -23 100 -56l59 227c8 31 -9 45 -83 49v12zM325 440
c-89 0 -164 -180 -164 -293c0 -64 29 -97 73 -97c28 0 53 17 74 50l77 270c-5 35 -26 70 -60 70zM646 529l33 169c10 51 26 69 56 69c24 0 46 -17 46 -41c0 -23 -19 -51 -40 -82l-80 -115h-15z" />
    <glyph glyph-name="Dcroat" unicode="&#x110;" horiz-adv-x="777" 
d="M88 60l78 290h-98l6 26h99l70 262c7 27 -1 42 -91 46l3 13h300c196 0 324 -108 324 -283c0 -102 -43 -211 -123 -291c-73 -74 -177 -123 -307 -123h-380l3 14c87 3 106 10 116 46zM223 20h110c64 0 116 26 158 68c100 101 139 294 139 402c0 110 -39 187 -172 187h-59
l-81 -301h137l-6 -26h-138z" />
    <glyph glyph-name="dcroat" unicode="&#x111;" horiz-adv-x="552" 
d="M611 717l-35 -123h67l-6 -22h-67l-132 -466c-6 -19 -10 -36 -10 -47c0 -29 22 -38 91 -33v-11c-26 -9 -79 -23 -121 -23c-55 0 -86 17 -86 71v11l-3 1c-44 -56 -87 -83 -143 -83c-74 0 -140 63 -140 167c0 173 149 311 272 311c60 0 83 -23 100 -56l41 158h-129l6 22h128
l13 47c8 31 -9 45 -83 49v12zM325 440c-89 0 -164 -180 -164 -293c0 -64 29 -97 73 -97c28 0 53 17 74 50l77 270c-5 35 -26 70 -60 70z" />
    <glyph glyph-name="Eacute" unicode="&#xc9;" horiz-adv-x="709" 
d="M453 766l88 153c34 59 47 77 79 77c28 0 50 -23 50 -48c0 -26 -17 -44 -123 -123l-79 -59h-15zM155 697h595l-58 -233h-16c-27 140 -49 212 -168 212h-110l-79 -298h53c78 0 99 24 171 124h15l-73 -280h-15c-22 112 -25 136 -103 136h-54l-90 -337h130
c140 0 209 83 301 227h17l-69 -248h-633l3 14c87 3 106 10 116 46l155 578c7 27 -1 42 -91 46z" />
    <glyph glyph-name="eacute" unicode="&#xe9;" horiz-adv-x="475" 
d="M475 365c0 -80 -96 -146 -313 -136c-3 -17 -4 -34 -4 -51c0 -92 31 -138 112 -138c53 0 113 32 153 88l12 -11c-51 -79 -128 -125 -222 -125c-109 0 -188 69 -188 184c0 157 127 294 303 294c100 0 147 -46 147 -105zM320 451c-62 0 -132 -99 -155 -205
c171 -2 201 85 201 149c0 38 -16 56 -46 56zM275 526l88 153c34 59 47 77 79 77c28 0 50 -23 50 -48c0 -26 -17 -44 -123 -123l-79 -59h-15z" />
    <glyph glyph-name="Ebreve" unicode="&#x114;" horiz-adv-x="709" 
d="M155 697h595l-58 -233h-16c-27 140 -49 212 -168 212h-110l-79 -298h53c78 0 99 24 171 124h15l-73 -280h-15c-22 112 -25 136 -103 136h-54l-90 -337h130c140 0 209 83 301 227h17l-69 -248h-633l3 14c87 3 106 10 116 46l155 578c7 27 -1 42 -91 46zM500 771
c-80 0 -126 51 -101 167h16c6 -57 38 -89 99 -89c65 0 111 33 145 89h20c-37 -114 -96 -167 -179 -167z" />
    <glyph glyph-name="ebreve" unicode="&#x115;" horiz-adv-x="475" 
d="M475 365c0 -80 -96 -146 -313 -136c-3 -17 -4 -34 -4 -51c0 -92 31 -138 112 -138c53 0 113 32 153 88l12 -11c-51 -79 -128 -125 -222 -125c-109 0 -188 69 -188 184c0 157 127 294 303 294c100 0 147 -46 147 -105zM320 451c-62 0 -132 -99 -155 -205
c171 -2 201 85 201 149c0 38 -16 56 -46 56zM326 531c-80 0 -126 51 -101 167h16c6 -57 38 -89 99 -89c65 0 111 33 145 89h20c-37 -114 -96 -167 -179 -167z" />
    <glyph glyph-name="Ecaron" unicode="&#x11a;" horiz-adv-x="709" 
d="M494 766l-81 208h16l103 -89l150 89h22l-197 -208h-13zM155 697h595l-58 -233h-16c-27 140 -49 212 -168 212h-110l-79 -298h53c78 0 99 24 171 124h15l-73 -280h-15c-22 112 -25 136 -103 136h-54l-90 -337h130c140 0 209 83 301 227h17l-69 -248h-633l3 14
c87 3 106 10 116 46l155 578c7 27 -1 42 -91 46z" />
    <glyph glyph-name="ecaron" unicode="&#x11b;" horiz-adv-x="475" 
d="M475 365c0 -80 -96 -146 -313 -136c-3 -17 -4 -34 -4 -51c0 -92 31 -138 112 -138c53 0 113 32 153 88l12 -11c-51 -79 -128 -125 -222 -125c-109 0 -188 69 -188 184c0 157 127 294 303 294c100 0 147 -46 147 -105zM320 451c-62 0 -132 -99 -155 -205
c171 -2 201 85 201 149c0 38 -16 56 -46 56zM318 526l-81 208h16l103 -89l150 89h22l-197 -208h-13z" />
    <glyph glyph-name="Ecircumflex" unicode="&#xca;" horiz-adv-x="709" 
d="M349 766l197 208h13l81 -208h-16l-103 89l-150 -89h-22zM155 697h595l-58 -233h-16c-27 140 -49 212 -168 212h-110l-79 -298h53c78 0 99 24 171 124h15l-73 -280h-15c-22 112 -25 136 -103 136h-54l-90 -337h130c140 0 209 83 301 227h17l-69 -248h-633l3 14
c87 3 106 10 116 46l155 578c7 27 -1 42 -91 46z" />
    <glyph glyph-name="ecircumflex" unicode="&#xea;" horiz-adv-x="475" 
d="M475 365c0 -80 -96 -146 -313 -136c-3 -17 -4 -34 -4 -51c0 -92 31 -138 112 -138c53 0 113 32 153 88l12 -11c-51 -79 -128 -125 -222 -125c-109 0 -188 69 -188 184c0 157 127 294 303 294c100 0 147 -46 147 -105zM320 451c-62 0 -132 -99 -155 -205
c171 -2 201 85 201 149c0 38 -16 56 -46 56zM178 526l197 208h13l81 -208h-16l-103 89l-150 -89h-22z" />
    <glyph glyph-name="Edieresis" unicode="&#xcb;" horiz-adv-x="709" 
d="M609 771c-29 0 -58 21 -58 61c0 53 39 93 86 93c30 0 58 -21 58 -61c0 -52 -39 -93 -86 -93zM405 771c-30 0 -59 21 -59 61c0 53 39 93 86 93c30 0 58 -21 58 -61c0 -52 -39 -93 -85 -93zM155 697h595l-58 -233h-16c-27 140 -49 212 -168 212h-110l-79 -298h53
c78 0 99 24 171 124h15l-73 -280h-15c-22 112 -25 136 -103 136h-54l-90 -337h130c140 0 209 83 301 227h17l-69 -248h-633l3 14c87 3 106 10 116 46l155 578c7 27 -1 42 -91 46z" />
    <glyph glyph-name="edieresis" unicode="&#xeb;" horiz-adv-x="475" 
d="M475 365c0 -80 -96 -146 -313 -136c-3 -17 -4 -34 -4 -51c0 -92 31 -138 112 -138c53 0 113 32 153 88l12 -11c-51 -79 -128 -125 -222 -125c-109 0 -188 69 -188 184c0 157 127 294 303 294c100 0 147 -46 147 -105zM320 451c-62 0 -132 -99 -155 -205
c171 -2 201 85 201 149c0 38 -16 56 -46 56zM235 531c-30 0 -59 21 -59 61c0 53 39 93 86 93c30 0 58 -21 58 -61c0 -52 -39 -93 -85 -93zM439 531c-29 0 -58 21 -58 61c0 53 39 93 86 93c30 0 58 -21 58 -61c0 -52 -39 -93 -86 -93z" />
    <glyph glyph-name="Edotaccent" unicode="&#x116;" horiz-adv-x="709" 
d="M155 697h595l-58 -233h-16c-27 140 -49 212 -168 212h-110l-79 -298h53c78 0 99 24 171 124h15l-73 -280h-15c-22 112 -25 136 -103 136h-54l-90 -337h130c140 0 209 83 301 227h17l-69 -248h-633l3 14c87 3 106 10 116 46l155 578c7 27 -1 42 -91 46zM507 771
c-31 0 -61 23 -61 64c0 54 41 97 90 97c31 0 61 -22 61 -64c0 -54 -41 -97 -90 -97z" />
    <glyph glyph-name="edotaccent" unicode="&#x117;" horiz-adv-x="475" 
d="M475 365c0 -80 -96 -146 -313 -136c-3 -17 -4 -34 -4 -51c0 -92 31 -138 112 -138c53 0 113 32 153 88l12 -11c-51 -79 -128 -125 -222 -125c-109 0 -188 69 -188 184c0 157 127 294 303 294c100 0 147 -46 147 -105zM320 451c-62 0 -132 -99 -155 -205
c171 -2 201 85 201 149c0 38 -16 56 -46 56zM336 531c-31 0 -61 23 -61 64c0 54 41 97 90 97c31 0 61 -22 61 -64c0 -54 -41 -97 -90 -97z" />
    <glyph glyph-name="Egrave" unicode="&#xc8;" horiz-adv-x="709" 
d="M155 697h595l-58 -233h-16c-27 140 -49 212 -168 212h-110l-79 -298h53c78 0 99 24 171 124h15l-73 -280h-15c-22 112 -25 136 -103 136h-54l-90 -337h130c140 0 209 83 301 227h17l-69 -248h-633l3 14c87 3 106 10 116 46l155 578c7 27 -1 42 -91 46zM521 766l-100 96
c-38 37 -56 59 -56 83c0 25 23 49 53 49c32 0 45 -28 64 -83l51 -145h-12z" />
    <glyph glyph-name="egrave" unicode="&#xe8;" horiz-adv-x="475" 
d="M475 365c0 -80 -96 -146 -313 -136c-3 -17 -4 -34 -4 -51c0 -92 31 -138 112 -138c53 0 113 32 153 88l12 -11c-51 -79 -128 -125 -222 -125c-109 0 -188 69 -188 184c0 157 127 294 303 294c100 0 147 -46 147 -105zM320 451c-62 0 -132 -99 -155 -205
c171 -2 201 85 201 149c0 38 -16 56 -46 56zM349 526l-100 96c-38 37 -56 59 -56 83c0 25 23 49 53 49c32 0 45 -28 64 -83l51 -145h-12z" />
    <glyph glyph-name="Emacron" unicode="&#x112;" horiz-adv-x="709" 
d="M155 697h595l-58 -233h-16c-27 140 -49 212 -168 212h-110l-79 -298h53c78 0 99 24 171 124h15l-73 -280h-15c-22 112 -25 136 -103 136h-54l-90 -337h130c140 0 209 83 301 227h17l-69 -248h-633l3 14c87 3 106 10 116 46l155 578c7 27 -1 42 -91 46zM359 796l12 47h291
l-12 -47h-291z" />
    <glyph glyph-name="emacron" unicode="&#x113;" horiz-adv-x="475" 
d="M475 365c0 -80 -96 -146 -313 -136c-3 -17 -4 -34 -4 -51c0 -92 31 -138 112 -138c53 0 113 32 153 88l12 -11c-51 -79 -128 -125 -222 -125c-109 0 -188 69 -188 184c0 157 127 294 303 294c100 0 147 -46 147 -105zM320 451c-62 0 -132 -99 -155 -205
c171 -2 201 85 201 149c0 38 -16 56 -46 56zM184 556l12 47h291l-12 -47h-291z" />
    <glyph glyph-name="Eogonek" unicode="&#x118;" horiz-adv-x="712" 
d="M155 697h595l-58 -233h-16c-27 140 -49 212 -168 212h-110l-79 -298h53c78 0 99 24 171 124h15l-73 -280h-15c-22 112 -25 136 -103 136h-54l-90 -337h130c140 0 209 83 301 227h17l-69 -248h-84l-42 -31c-55 -41 -88 -83 -88 -126c0 -37 24 -54 53 -54c21 0 40 5 62 14
l5 -12c-37 -22 -80 -37 -122 -37c-58 0 -93 31 -93 78c0 67 68 105 144 141l57 27h-525l3 14c87 3 106 10 116 46l155 578c7 27 -1 42 -91 46z" />
    <glyph glyph-name="eogonek" unicode="&#x119;" horiz-adv-x="475" 
d="M181 -246c-57 0 -92 31 -92 78c0 68 72 104 122 130l77 40c-27 -8 -54 -10 -75 -10c-109 0 -188 69 -188 184c0 157 127 294 303 294c100 0 147 -46 147 -105c0 -80 -96 -146 -313 -136c-3 -17 -4 -34 -4 -51c0 -92 31 -138 112 -138c53 0 113 32 153 88l12 -11
c-23 -35 -50 -61 -80 -83l-72 -55c-63 -47 -99 -90 -99 -136c0 -37 23 -54 53 -54c21 0 39 5 62 14l5 -12c-38 -22 -80 -37 -123 -37zM320 451c-62 0 -132 -99 -155 -205c171 -2 201 85 201 149c0 38 -16 56 -46 56z" />
    <glyph glyph-name="Eth" unicode="&#xd0;" horiz-adv-x="777" 
d="M88 60l78 290h-98l6 26h99l70 262c7 27 -1 42 -91 46l3 13h300c196 0 324 -108 324 -283c0 -102 -43 -211 -123 -291c-73 -74 -177 -123 -307 -123h-380l3 14c87 3 106 10 116 46zM223 20h110c64 0 116 26 158 68c100 101 139 294 139 402c0 110 -39 187 -172 187h-59
l-81 -301h137l-6 -26h-138z" />
    <glyph glyph-name="eth" unicode="&#xf0;" horiz-adv-x="527" 
d="M308 603l-142 -79l-10 18l140 76c-35 41 -85 74 -148 101l8 14c82 -17 148 -45 201 -81l101 56l10 -18l-95 -51c88 -68 132 -165 131 -290c-1 -193 -102 -357 -283 -357c-120 0 -196 78 -196 197c0 128 99 281 280 281c25 0 48 -6 63 -18c-7 59 -27 110 -60 151zM215 11
c102 0 164 230 164 344c0 60 -19 96 -67 96c-103 0 -164 -230 -164 -344c0 -60 18 -96 67 -96z" />
    <glyph glyph-name="Gbreve" unicode="&#x11e;" horiz-adv-x="757" 
d="M760 711l-64 -244h-16c-59 177 -88 227 -175 227c-171 0 -291 -268 -291 -479c0 -119 59 -212 162 -212c39 0 69 8 103 28l62 234c7 28 -1 42 -94 46l3 13h322l-3 -13c-70 -4 -80 -18 -87 -46l-63 -225c-78 -35 -165 -57 -254 -57c-168 0 -304 114 -304 299
c0 200 168 432 440 432c84 0 147 -22 190 -46l53 43h16zM511 771c-80 0 -126 51 -101 167h16c6 -57 38 -89 99 -89c65 0 111 33 145 89h20c-37 -114 -96 -167 -179 -167z" />
    <glyph glyph-name="gbreve" unicode="&#x11f;" horiz-adv-x="539" 
d="M165 0c-75 0 -138 58 -138 162c0 172 144 308 266 308c61 0 84 -26 103 -61l17 48l136 13l-54 -162l-90 -315c-38 -138 -104 -193 -268 -193c-123 0 -174 55 -174 103c0 42 31 77 74 77c42 0 64 -30 64 -66c0 -25 -17 -52 -40 -63c13 -24 51 -32 75 -32
c69 0 108 48 137 149l30 100l-3 2c-38 -47 -79 -70 -135 -70zM321 440c-89 0 -160 -178 -160 -289c0 -65 26 -95 71 -95c27 0 51 14 72 43l79 267c-5 35 -28 74 -62 74zM339 531c-80 0 -126 51 -101 167h16c6 -57 38 -89 99 -89c65 0 111 33 145 89h20
c-37 -114 -96 -167 -179 -167z" />
    <glyph glyph-name="Gcommaaccent" unicode="&#x122;" horiz-adv-x="757" 
d="M183 -309l-5 11c82 38 110 80 117 101l-3 4c-36 -3 -64 25 -64 63c0 39 31 70 69 70c44 0 72 -35 72 -77c0 -74 -69 -134 -186 -172zM760 711l-64 -244h-16c-59 177 -88 227 -175 227c-171 0 -291 -268 -291 -479c0 -119 59 -212 162 -212c39 0 69 8 103 28l62 234
c7 28 -1 42 -94 46l3 13h322l-3 -13c-70 -4 -80 -18 -87 -46l-63 -225c-78 -35 -165 -57 -254 -57c-168 0 -304 114 -304 299c0 200 168 432 440 432c84 0 147 -22 190 -46l53 43h16z" />
    <glyph glyph-name="gcommaaccent" unicode="&#x123;" horiz-adv-x="539" 
d="M479 804l5 -11c-82 -38 -110 -80 -117 -101l3 -4c36 3 64 -25 64 -63c0 -39 -31 -70 -69 -70c-44 0 -72 35 -72 77c0 74 69 134 186 172zM165 0c-75 0 -138 58 -138 162c0 172 144 308 266 308c61 0 84 -26 103 -61l17 48l136 13l-54 -162l-90 -315
c-38 -138 -104 -193 -268 -193c-123 0 -174 55 -174 103c0 42 31 77 74 77c42 0 64 -30 64 -66c0 -25 -17 -52 -40 -63c13 -24 51 -32 75 -32c69 0 108 48 137 149l30 100l-3 2c-38 -47 -79 -70 -135 -70zM321 440c-89 0 -160 -178 -160 -289c0 -65 26 -95 71 -95
c27 0 51 14 72 43l79 267c-5 35 -28 74 -62 74z" />
    <glyph glyph-name="Gdotaccent" unicode="&#x120;" horiz-adv-x="757" 
d="M760 711l-64 -244h-16c-59 177 -88 227 -175 227c-171 0 -291 -268 -291 -479c0 -119 59 -212 162 -212c39 0 69 8 103 28l62 234c7 28 -1 42 -94 46l3 13h322l-3 -13c-70 -4 -80 -18 -87 -46l-63 -225c-78 -35 -165 -57 -254 -57c-168 0 -304 114 -304 299
c0 200 168 432 440 432c84 0 147 -22 190 -46l53 43h16zM522 771c-31 0 -61 23 -61 64c0 54 41 97 90 97c31 0 61 -22 61 -64c0 -54 -41 -97 -90 -97z" />
    <glyph glyph-name="gdotaccent" unicode="&#x121;" horiz-adv-x="539" 
d="M165 0c-75 0 -138 58 -138 162c0 172 144 308 266 308c61 0 84 -26 103 -61l17 48l136 13l-54 -162l-90 -315c-38 -138 -104 -193 -268 -193c-123 0 -174 55 -174 103c0 42 31 77 74 77c42 0 64 -30 64 -66c0 -25 -17 -52 -40 -63c13 -24 51 -32 75 -32
c69 0 108 48 137 149l30 100l-3 2c-38 -47 -79 -70 -135 -70zM321 440c-89 0 -160 -178 -160 -289c0 -65 26 -95 71 -95c27 0 51 14 72 43l79 267c-5 35 -28 74 -62 74zM348 531c-31 0 -61 23 -61 64c0 54 41 97 90 97c31 0 61 -22 61 -64c0 -54 -41 -97 -90 -97z" />
    <glyph glyph-name="Hbar" unicode="&#x126;" horiz-adv-x="843" 
d="M880 511h-97l-120 -451c-10 -36 6 -43 91 -46l-3 -14h-346l3 14c73 4 99 9 109 47l78 291h-283l-78 -292c-10 -36 15 -42 86 -46l-3 -14h-348l3 14c87 3 106 10 116 46l121 451h-97l6 24h97l28 103c7 27 -1 42 -91 46l3 13h345l-3 -13c-83 -5 -101 -19 -108 -47l-28 -102
h282l28 103c7 26 -1 41 -86 46l3 13h349l-3 -13c-88 -4 -110 -18 -117 -46l-28 -103h97zM317 372h283l37 139h-282z" />
    <glyph glyph-name="hbar" unicode="&#x127;" horiz-adv-x="565" 
d="M512 303l-64 -203c-6 -20 -9 -35 -9 -46c0 -28 23 -32 90 -28v-11c-26 -9 -77 -23 -119 -23c-64 0 -98 21 -98 67c0 13 3 31 9 49l63 201c7 23 10 39 10 56c0 29 -12 44 -42 44c-35 0 -77 -23 -119 -61l-88 -348h-134l48 162l103 410h-67l6 22h67l12 48
c7 31 -9 44 -83 48v12l236 15l-34 -123h129l-6 -22h-129l-56 -202l3 -2c59 63 126 100 184 100c64 0 100 -35 100 -96c0 -19 -4 -43 -12 -69z" />
    <glyph glyph-name="Iacute" unicode="&#xcd;" horiz-adv-x="437" 
d="M520 684c-89 -4 -113 -18 -120 -45l-155 -579c-10 -37 9 -43 97 -46l-3 -14h-363l3 14c89 3 110 10 120 46l155 578c8 28 -4 42 -96 46l3 13h362zM303 766l88 153c34 59 47 77 79 77c28 0 50 -23 50 -48c0 -26 -17 -44 -123 -123l-79 -59h-15z" />
    <glyph glyph-name="iacute" unicode="&#xed;" horiz-adv-x="318" 
d="M177 526l88 153c34 59 47 77 79 77c28 0 50 -23 50 -48c0 -26 -17 -44 -123 -123l-79 -59h-15zM276 32v-11c-31 -13 -84 -29 -133 -29c-65 0 -97 24 -97 72c0 13 3 29 8 46l84 278c11 33 -18 48 -79 52v12l232 13l-108 -356c-5 -18 -9 -31 -9 -42c0 -32 28 -40 102 -35z
" />
    <glyph glyph-name="Ibreve" unicode="&#x12c;" horiz-adv-x="437" 
d="M520 684c-89 -4 -113 -18 -120 -45l-155 -579c-10 -37 9 -43 97 -46l-3 -14h-363l3 14c89 3 110 10 120 46l155 578c8 28 -4 42 -96 46l3 13h362zM358 771c-80 0 -126 51 -101 167h16c6 -57 38 -89 99 -89c65 0 111 33 145 89h20c-37 -114 -96 -167 -179 -167z" />
    <glyph glyph-name="ibreve" unicode="&#x12d;" horiz-adv-x="318" 
d="M276 32v-11c-31 -13 -84 -29 -133 -29c-65 0 -97 24 -97 72c0 13 3 29 8 46l84 278c11 33 -18 48 -79 52v12l232 13l-108 -356c-5 -18 -9 -31 -9 -42c0 -32 28 -40 102 -35zM230 531c-80 0 -126 51 -101 167h16c6 -57 38 -89 99 -89c65 0 111 33 145 89h20
c-37 -114 -96 -167 -179 -167z" />
    <glyph glyph-name="Icircumflex" unicode="&#xce;" horiz-adv-x="437" 
d="M520 684c-89 -4 -113 -18 -120 -45l-155 -579c-10 -37 9 -43 97 -46l-3 -14h-363l3 14c89 3 110 10 120 46l155 578c8 28 -4 42 -96 46l3 13h362zM208 766l197 208h13l81 -208h-16l-103 89l-150 -89h-22z" />
    <glyph glyph-name="icircumflex" unicode="&#xee;" horiz-adv-x="318" 
d="M78 526l197 208h13l81 -208h-16l-103 89l-150 -89h-22zM276 32v-11c-31 -13 -84 -29 -133 -29c-65 0 -97 24 -97 72c0 13 3 29 8 46l84 278c11 33 -18 48 -79 52v12l232 13l-108 -356c-5 -18 -9 -31 -9 -42c0 -32 28 -40 102 -35z" />
    <glyph glyph-name="Idieresis" unicode="&#xcf;" horiz-adv-x="437" 
d="M520 684c-89 -4 -113 -18 -120 -45l-155 -579c-10 -37 9 -43 97 -46l-3 -14h-363l3 14c89 3 110 10 120 46l155 578c8 28 -4 42 -96 46l3 13h362zM471 771c-29 0 -58 21 -58 61c0 53 39 93 86 93c30 0 58 -21 58 -61c0 -52 -39 -93 -86 -93zM267 771c-30 0 -59 21 -59 61
c0 53 39 93 86 93c30 0 58 -21 58 -61c0 -52 -39 -93 -85 -93z" />
    <glyph glyph-name="idieresis" unicode="&#xef;" horiz-adv-x="318" 
d="M342 531c-29 0 -58 21 -58 61c0 53 39 93 86 93c30 0 58 -21 58 -61c0 -52 -39 -93 -86 -93zM138 531c-30 0 -59 21 -59 61c0 53 39 93 86 93c30 0 58 -21 58 -61c0 -52 -39 -93 -85 -93zM276 32v-11c-31 -13 -84 -29 -133 -29c-65 0 -97 24 -97 72c0 13 3 29 8 46
l84 278c11 33 -18 48 -79 52v12l232 13l-108 -356c-5 -18 -9 -31 -9 -42c0 -32 28 -40 102 -35z" />
    <glyph glyph-name="Idotaccent" unicode="&#x130;" horiz-adv-x="437" 
d="M520 684c-89 -4 -113 -18 -120 -45l-155 -579c-10 -37 9 -43 97 -46l-3 -14h-363l3 14c89 3 110 10 120 46l155 578c8 28 -4 42 -96 46l3 13h362zM369 771c-31 0 -61 23 -61 64c0 54 41 97 90 97c31 0 61 -22 61 -64c0 -54 -41 -97 -90 -97z" />
    <glyph glyph-name="dotlessi" unicode="&#x131;" horiz-adv-x="318" 
d="M276 32v-11c-31 -13 -84 -29 -133 -29c-65 0 -97 24 -97 72c0 13 3 29 8 46l84 278c11 33 -18 48 -79 52v12l232 13l-108 -356c-5 -18 -9 -31 -9 -42c0 -32 28 -40 102 -35z" />
    <glyph glyph-name="Igrave" unicode="&#xcc;" horiz-adv-x="437" 
d="M520 684c-89 -4 -113 -18 -120 -45l-155 -579c-10 -37 9 -43 97 -46l-3 -14h-363l3 14c89 3 110 10 120 46l155 578c8 28 -4 42 -96 46l3 13h362zM382 766l-100 96c-38 37 -56 59 -56 83c0 25 23 49 53 49c32 0 45 -28 64 -83l51 -145h-12z" />
    <glyph glyph-name="igrave" unicode="&#xec;" horiz-adv-x="318" 
d="M276 32v-11c-31 -13 -84 -29 -133 -29c-65 0 -97 24 -97 72c0 13 3 29 8 46l84 278c11 33 -18 48 -79 52v12l232 13l-108 -356c-5 -18 -9 -31 -9 -42c0 -32 28 -40 102 -35zM255 526l-100 96c-38 37 -56 59 -56 83c0 25 23 49 53 49c32 0 45 -28 64 -83l51 -145h-12z" />
    <glyph glyph-name="Imacron" unicode="&#x12a;" horiz-adv-x="437" 
d="M520 684c-89 -4 -113 -18 -120 -45l-155 -579c-10 -37 9 -43 97 -46l-3 -14h-363l3 14c89 3 110 10 120 46l155 578c8 28 -4 42 -96 46l3 13h362zM218 796l12 47h291l-12 -47h-291z" />
    <glyph glyph-name="imacron" unicode="&#x12b;" horiz-adv-x="318" 
d="M276 32v-11c-31 -13 -84 -29 -133 -29c-65 0 -97 24 -97 72c0 13 3 29 8 46l84 278c11 33 -18 48 -79 52v12l232 13l-108 -356c-5 -18 -9 -31 -9 -42c0 -32 28 -40 102 -35zM86 556l12 47h291l-12 -47h-291z" />
    <glyph glyph-name="Iogonek" unicode="&#x12e;" horiz-adv-x="437" 
d="M72 -246c-58 0 -93 31 -93 78c0 67 68 105 144 141l57 27h-204l3 14c89 3 110 10 120 46l155 578c8 28 -4 42 -96 46l3 13h362l-3 -13c-89 -4 -113 -18 -120 -45l-155 -579c-10 -37 9 -43 97 -46l-3 -14h-135l-42 -31c-55 -41 -88 -83 -88 -126c0 -37 24 -54 53 -54
c21 0 40 5 62 14l5 -12c-37 -22 -80 -37 -122 -37z" />
    <glyph glyph-name="iogonek" unicode="&#x12f;" horiz-adv-x="313" 
d="M76 -246c-58 0 -93 31 -93 78c0 67 67 106 148 141l53 22c-12 -1 -26 -3 -41 -3c-65 0 -97 24 -97 72c0 13 3 29 8 46l84 278c10 33 -18 48 -79 52v12l232 13l-108 -356c-5 -18 -9 -31 -9 -42c0 -32 28 -40 102 -35v-11c-17 -7 -62 -28 -80 -38
c-48 -26 -118 -75 -118 -140c0 -37 24 -54 53 -54c21 0 40 5 62 14l5 -12c-37 -22 -80 -37 -122 -37zM250 545c-31 0 -60 22 -60 64c0 54 40 97 89 97c32 0 61 -23 61 -64c0 -54 -41 -97 -90 -97z" />
    <glyph glyph-name="Kcommaaccent" unicode="&#x136;" horiz-adv-x="780" 
d="M194 -309l-5 11c82 38 110 80 117 101l-3 4c-36 -3 -64 25 -64 63c0 39 31 70 69 70c44 0 72 -35 72 -77c0 -74 -69 -134 -186 -172zM866 697l-3 -13c-89 -16 -141 -49 -240 -132l-133 -112l148 -342c30 -68 40 -76 105 -84l-3 -14h-337l3 14c87 7 96 20 73 77l-103 252
l-86 -72l-56 -211c-10 -36 15 -42 79 -46l-3 -14h-341l3 14c87 3 106 10 116 46l155 578c7 27 -1 42 -91 46l3 13h345l-3 -13c-83 -5 -101 -19 -108 -47l-90 -334l297 254c78 67 64 119 -18 127l3 13h285z" />
    <glyph glyph-name="kcommaaccent" unicode="&#x137;" horiz-adv-x="533" 
d="M66 -309l-5 11c82 38 110 80 117 101l-3 4c-36 -3 -64 25 -64 63c0 39 31 70 69 70c44 0 72 -35 72 -77c0 -74 -69 -134 -186 -172zM333 717l-119 -445h23c95 0 108 198 227 198c51 0 76 -33 76 -69c0 -46 -26 -74 -64 -74c-37 0 -65 19 -65 55c0 13 6 31 14 42
c-62 -12 -83 -134 -145 -153v-4c122 3 153 -40 153 -100c0 -27 -7 -72 -7 -105c0 -30 12 -41 80 -39v-11c-26 -9 -71 -20 -113 -20c-83 0 -97 35 -97 83c0 35 10 84 10 106c0 60 -20 76 -70 76h-26l-65 -257h-133l47 162l121 480c7 31 -9 44 -83 48v12z" />
    <glyph glyph-name="Lacute" unicode="&#x139;" horiz-adv-x="666" 
d="M326 766l88 153c34 59 47 77 79 77c28 0 50 -23 50 -48c0 -26 -17 -44 -123 -123l-79 -59h-15zM389 637l-166 -616h101c120 0 173 64 299 237h17l-75 -258h-596l3 14c87 3 106 10 116 46l155 578c7 27 -1 42 -91 46l3 13h349l-3 -13c-86 -4 -105 -19 -112 -47z" />
    <glyph glyph-name="lacute" unicode="&#x13a;" horiz-adv-x="303" 
d="M248 773l88 153c34 59 47 77 79 77c28 0 50 -23 50 -48c0 -26 -17 -44 -123 -123l-79 -59h-15zM345 717l-176 -608c-4 -16 -7 -29 -7 -40c0 -34 27 -41 103 -37v-11c-31 -13 -86 -29 -135 -29c-65 0 -96 24 -96 71c0 14 3 30 8 48l103 347l48 184c8 31 -9 44 -83 48v12z
" />
    <glyph glyph-name="Lcaron" unicode="&#x13d;" horiz-adv-x="666" 
d="M516 509l33 169c10 51 26 69 56 69c24 0 46 -17 46 -41c0 -23 -19 -51 -40 -82l-80 -115h-15zM389 637l-166 -616h101c120 0 173 64 299 237h17l-75 -258h-596l3 14c87 3 106 10 116 46l155 578c7 27 -1 42 -91 46l3 13h349l-3 -13c-86 -4 -105 -19 -112 -47z" />
    <glyph glyph-name="lcaron" unicode="&#x13e;" horiz-adv-x="303" 
d="M379 529l33 169c10 51 26 69 56 69c24 0 46 -17 46 -41c0 -23 -19 -51 -40 -82l-80 -115h-15zM345 717l-176 -608c-4 -16 -7 -29 -7 -40c0 -34 27 -41 103 -37v-11c-31 -13 -86 -29 -135 -29c-65 0 -96 24 -96 71c0 14 3 30 8 48l103 347l48 184c8 31 -9 44 -83 48v12z
" />
    <glyph glyph-name="Lcommaaccent" unicode="&#x13b;" horiz-adv-x="666" 
d="M169 -309l-5 11c82 38 110 80 117 101l-3 4c-36 -3 -64 25 -64 63c0 39 31 70 69 70c44 0 72 -35 72 -77c0 -74 -69 -134 -186 -172zM389 637l-166 -616h101c120 0 173 64 299 237h17l-75 -258h-596l3 14c87 3 106 10 116 46l155 578c7 27 -1 42 -91 46l3 13h349l-3 -13
c-86 -4 -105 -19 -112 -47z" />
    <glyph glyph-name="lcommaaccent" unicode="&#x13c;" horiz-adv-x="303" 
d="M-46 -309l-5 11c82 38 110 80 117 101l-3 4c-36 -3 -64 25 -64 63c0 39 31 70 69 70c44 0 72 -35 72 -77c0 -74 -69 -134 -186 -172zM345 717l-176 -608c-4 -16 -7 -29 -7 -40c0 -34 27 -41 103 -37v-11c-31 -13 -86 -29 -135 -29c-65 0 -96 24 -96 71c0 14 3 30 8 48
l103 347l48 184c8 31 -9 44 -83 48v12z" />
    <glyph glyph-name="Ldot" unicode="&#x13f;" horiz-adv-x="666" 
d="M-31 0l3 14c87 3 106 10 116 46l155 578c7 27 -1 42 -91 46l3 13h349l-3 -13c-86 -4 -105 -19 -112 -47l-166 -616h101c120 0 175 61 295 223h17l-71 -244h-596zM534 306c-31 0 -61 23 -61 64c0 54 41 97 90 97c31 0 61 -22 61 -64c0 -54 -41 -97 -90 -97z" />
    <glyph glyph-name="ldot" unicode="&#x140;" horiz-adv-x="402" 
d="M356 244c-31 0 -61 23 -61 64c0 55 41 97 90 97c31 0 61 -22 61 -63c0 -55 -41 -98 -90 -98zM345 717l-176 -608c-4 -16 -7 -29 -7 -40c0 -34 27 -41 103 -37v-11c-31 -13 -86 -29 -135 -29c-65 0 -96 24 -96 71c0 14 3 30 8 48l103 347l48 184c8 31 -9 44 -83 48v12z
" />
    <glyph glyph-name="Lslash" unicode="&#x141;" horiz-adv-x="666" 
d="M389 637l-70 -258l151 38v-26l-158 -40l-89 -330h101c120 0 173 64 299 237h17l-75 -258h-596l3 14c87 3 106 10 116 46l67 252l-99 -25v27l107 26l80 298c7 27 -1 42 -91 46l3 13h349l-3 -13c-86 -4 -105 -19 -112 -47z" />
    <glyph glyph-name="lslash" unicode="&#x142;" horiz-adv-x="334" 
d="M360 717l-98 -336l94 23v-24l-101 -25l-71 -246c-4 -16 -7 -29 -7 -40c0 -34 27 -41 103 -37v-11c-31 -13 -86 -29 -135 -29c-65 0 -96 24 -96 71c0 14 3 30 8 48l62 210l-86 -21v24l94 23l33 111l48 184c8 31 -9 44 -83 48v12z" />
    <glyph glyph-name="Nacute" unicode="&#x143;" horiz-adv-x="809" 
d="M502 763l88 153c34 59 47 77 79 77c28 0 50 -23 50 -48c0 -26 -17 -44 -123 -123l-79 -59h-15zM367 697l271 -533h1l100 380c27 100 2 132 -95 140l3 13h275l-3 -13c-93 -11 -128 -50 -152 -140l-149 -555h-52l-302 594h-1l-115 -429c-26 -100 -3 -133 94 -140l-3 -14
h-276l3 14c93 11 131 50 155 139l115 434c12 43 -10 93 -90 97l3 13h218z" />
    <glyph glyph-name="nacute" unicode="&#x144;" horiz-adv-x="570" 
d="M315 526l88 153c34 59 47 77 79 77c28 0 50 -23 50 -48c0 -26 -17 -44 -123 -123l-79 -59h-15zM64 162l61 229c8 32 0 45 -62 49v12l208 13l-29 -95l3 -2c59 63 126 100 184 100c64 0 100 -35 100 -96c0 -19 -4 -43 -12 -69l-64 -203c-6 -20 -9 -35 -9 -46
c0 -28 23 -32 91 -28v-11c-27 -9 -78 -23 -120 -23c-64 0 -98 21 -98 67c0 13 3 31 9 49l63 201c7 23 11 39 11 56c0 29 -13 44 -43 44c-35 0 -77 -23 -119 -61l-88 -348h-134z" />
    <glyph glyph-name="Ncaron" unicode="&#x147;" horiz-adv-x="809" 
d="M543 763l-81 208h16l103 -89l150 89h22l-197 -208h-13zM367 697l271 -533h1l100 380c27 100 2 132 -95 140l3 13h275l-3 -13c-93 -11 -128 -50 -152 -140l-149 -555h-52l-302 594h-1l-115 -429c-26 -100 -3 -133 94 -140l-3 -14h-276l3 14c93 11 131 50 155 139l115 434
c12 43 -10 93 -90 97l3 13h218z" />
    <glyph glyph-name="ncaron" unicode="&#x148;" horiz-adv-x="570" 
d="M356 526l-81 208h16l103 -89l150 89h22l-197 -208h-13zM64 162l61 229c8 32 0 45 -62 49v12l208 13l-29 -95l3 -2c59 63 126 100 184 100c64 0 100 -35 100 -96c0 -19 -4 -43 -12 -69l-64 -203c-6 -20 -9 -35 -9 -46c0 -28 23 -32 91 -28v-11c-27 -9 -78 -23 -120 -23
c-64 0 -98 21 -98 67c0 13 3 31 9 49l63 201c7 23 11 39 11 56c0 29 -13 44 -43 44c-35 0 -77 -23 -119 -61l-88 -348h-134z" />
    <glyph glyph-name="Ncommaaccent" unicode="&#x145;" horiz-adv-x="809" 
d="M223 -309l-5 11c82 38 110 80 117 101l-3 4c-36 -3 -64 25 -64 63c0 39 31 70 69 70c44 0 72 -35 72 -77c0 -74 -69 -134 -186 -172zM367 697l271 -533h1l100 380c27 100 2 132 -95 140l3 13h275l-3 -13c-93 -11 -128 -50 -152 -140l-149 -555h-52l-302 594h-1l-115 -429
c-26 -100 -3 -133 94 -140l-3 -14h-276l3 14c93 11 131 50 155 139l115 434c12 43 -10 93 -90 97l3 13h218z" />
    <glyph glyph-name="ncommaaccent" unicode="&#x146;" horiz-adv-x="570" 
d="M90 -309l-5 11c82 38 110 80 117 101l-3 4c-36 -3 -64 25 -64 63c0 39 31 70 69 70c44 0 72 -35 72 -77c0 -74 -69 -134 -186 -172zM64 162l61 229c8 32 0 45 -62 49v12l208 13l-29 -95l3 -2c59 63 126 100 184 100c64 0 100 -35 100 -96c0 -19 -4 -43 -12 -69l-64 -203
c-6 -20 -9 -35 -9 -46c0 -28 23 -32 91 -28v-11c-27 -9 -78 -23 -120 -23c-64 0 -98 21 -98 67c0 13 3 31 9 49l63 201c7 23 11 39 11 56c0 29 -13 44 -43 44c-35 0 -77 -23 -119 -61l-88 -348h-134z" />
    <glyph glyph-name="Ntilde" unicode="&#xd1;" horiz-adv-x="809" 
d="M367 697l271 -533h1l100 380c27 100 2 132 -95 140l3 13h275l-3 -13c-93 -11 -128 -50 -152 -140l-149 -555h-52l-302 594h-1l-115 -429c-26 -100 -3 -133 94 -140l-3 -14h-276l3 14c93 11 131 50 155 139l115 434c12 43 -10 93 -90 97l3 13h218zM408 767
c21 101 55 139 108 139c45 0 109 -55 146 -55c31 0 38 8 59 59h16c-20 -102 -53 -139 -108 -139c-44 0 -108 54 -146 54c-30 0 -38 -9 -59 -58h-16z" />
    <glyph glyph-name="ntilde" unicode="&#xf1;" horiz-adv-x="570" 
d="M64 162l61 229c8 32 0 45 -62 49v12l208 13l-29 -95l3 -2c59 63 126 100 184 100c64 0 100 -35 100 -96c0 -19 -4 -43 -12 -69l-64 -203c-6 -20 -9 -35 -9 -46c0 -28 23 -32 91 -28v-11c-27 -9 -78 -23 -120 -23c-64 0 -98 21 -98 67c0 13 3 31 9 49l63 201
c7 23 11 39 11 56c0 29 -13 44 -43 44c-35 0 -77 -23 -119 -61l-88 -348h-134zM213 527c21 101 55 139 108 139c45 0 109 -55 146 -55c31 0 38 8 59 59h16c-20 -102 -53 -139 -108 -139c-44 0 -108 54 -146 54c-30 0 -38 -9 -59 -58h-16z" />
    <glyph glyph-name="Oacute" unicode="&#xd3;" 
d="M469 766l88 153c34 59 47 77 79 77c28 0 50 -23 50 -48c0 -26 -17 -44 -123 -123l-79 -59h-15zM354 -17c-165 0 -293 106 -293 291c0 199 162 440 422 440c164 0 293 -106 293 -290c0 -200 -162 -441 -422 -441zM335 3c175 0 295 296 295 506c0 116 -41 185 -128 185
c-175 0 -296 -296 -296 -506c0 -116 42 -185 129 -185z" />
    <glyph glyph-name="oacute" unicode="&#xf3;" horiz-adv-x="525" 
d="M285 526l88 153c34 59 47 77 79 77c28 0 50 -23 50 -48c0 -26 -17 -44 -123 -123l-79 -59h-15zM304 470c121 0 196 -78 196 -197c0 -128 -99 -281 -279 -281c-121 0 -196 78 -196 197c0 128 99 281 279 281zM214 11c103 0 164 230 164 344c0 60 -19 96 -67 96
c-103 0 -164 -230 -164 -344c0 -60 19 -96 67 -96z" />
    <glyph glyph-name="Obreve" unicode="&#x14e;" 
d="M354 -17c-165 0 -293 106 -293 291c0 199 162 440 422 440c164 0 293 -106 293 -290c0 -200 -162 -441 -422 -441zM335 3c175 0 295 296 295 506c0 116 -41 185 -128 185c-175 0 -296 -296 -296 -506c0 -116 42 -185 129 -185zM527 771c-80 0 -126 51 -101 167h16
c6 -57 38 -89 99 -89c65 0 111 33 145 89h20c-37 -114 -96 -167 -179 -167z" />
    <glyph glyph-name="obreve" unicode="&#x14f;" horiz-adv-x="525" 
d="M304 470c121 0 196 -78 196 -197c0 -128 -99 -281 -279 -281c-121 0 -196 78 -196 197c0 128 99 281 279 281zM214 11c103 0 164 230 164 344c0 60 -19 96 -67 96c-103 0 -164 -230 -164 -344c0 -60 19 -96 67 -96zM341 531c-80 0 -126 51 -101 167h16
c6 -57 38 -89 99 -89c65 0 111 33 145 89h20c-37 -114 -96 -167 -179 -167z" />
    <glyph glyph-name="Ocircumflex" unicode="&#xd4;" 
d="M376 766l197 208h13l81 -208h-16l-103 89l-150 -89h-22zM354 -17c-165 0 -293 106 -293 291c0 199 162 440 422 440c164 0 293 -106 293 -290c0 -200 -162 -441 -422 -441zM335 3c175 0 295 296 295 506c0 116 -41 185 -128 185c-175 0 -296 -296 -296 -506
c0 -116 42 -185 129 -185z" />
    <glyph glyph-name="ocircumflex" unicode="&#xf4;" horiz-adv-x="525" 
d="M184 526l197 208h13l81 -208h-16l-103 89l-150 -89h-22zM304 470c121 0 196 -78 196 -197c0 -128 -99 -281 -279 -281c-121 0 -196 78 -196 197c0 128 99 281 279 281zM214 11c103 0 164 230 164 344c0 60 -19 96 -67 96c-103 0 -164 -230 -164 -344c0 -60 19 -96 67 -96
z" />
    <glyph glyph-name="Odieresis" unicode="&#xd6;" 
d="M636 771c-29 0 -58 21 -58 61c0 53 39 93 86 93c30 0 58 -21 58 -61c0 -52 -39 -93 -86 -93zM432 771c-30 0 -59 21 -59 61c0 53 39 93 86 93c30 0 58 -21 58 -61c0 -52 -39 -93 -85 -93zM354 -17c-165 0 -293 106 -293 291c0 199 162 440 422 440
c164 0 293 -106 293 -290c0 -200 -162 -441 -422 -441zM335 3c175 0 295 296 295 506c0 116 -41 185 -128 185c-175 0 -296 -296 -296 -506c0 -116 42 -185 129 -185z" />
    <glyph glyph-name="odieresis" unicode="&#xf6;" horiz-adv-x="525" 
d="M449 531c-29 0 -58 21 -58 61c0 53 39 93 86 93c30 0 58 -21 58 -61c0 -52 -39 -93 -86 -93zM245 531c-30 0 -59 21 -59 61c0 53 39 93 86 93c30 0 58 -21 58 -61c0 -52 -39 -93 -85 -93zM304 470c121 0 196 -78 196 -197c0 -128 -99 -281 -279 -281
c-121 0 -196 78 -196 197c0 128 99 281 279 281zM214 11c103 0 164 230 164 344c0 60 -19 96 -67 96c-103 0 -164 -230 -164 -344c0 -60 19 -96 67 -96z" />
    <glyph glyph-name="OE" unicode="&#x152;" horiz-adv-x="1078" 
d="M971 0h-572c-203 0 -336 106 -336 289c0 99 43 202 121 280c76 76 184 128 318 128h617l-58 -233h-16c-27 140 -49 212 -168 212h-110l-79 -298h53c78 0 99 24 171 124h15l-73 -280h-15c-22 112 -25 136 -103 136h-54l-90 -337h130c140 0 209 83 301 227h17zM622 677
h-103c-66 0 -121 -27 -165 -71c-100 -99 -143 -288 -143 -393c0 -118 43 -193 182 -193h53z" />
    <glyph glyph-name="oe" unicode="&#x153;" horiz-adv-x="807" 
d="M660 470c100 0 148 -46 148 -105c0 -80 -97 -146 -314 -136c-3 -17 -4 -34 -4 -51c0 -92 31 -138 113 -138c52 0 113 32 152 88l12 -11c-51 -79 -127 -125 -218 -125c-64 0 -117 26 -146 74c-44 -45 -105 -74 -182 -74c-120 0 -196 78 -196 197c0 128 99 281 280 281
c71 0 124 -30 153 -84c51 52 120 84 202 84zM215 11c102 0 164 230 164 344c0 60 -19 96 -67 96c-103 0 -164 -230 -164 -344c0 -60 18 -96 67 -96zM653 451c-62 0 -133 -99 -156 -205c171 -2 201 85 201 149c0 38 -16 56 -45 56z" />
    <glyph glyph-name="Ograve" unicode="&#xd2;" 
d="M354 -17c-165 0 -293 106 -293 291c0 199 162 440 422 440c164 0 293 -106 293 -290c0 -200 -162 -441 -422 -441zM335 3c175 0 295 296 295 506c0 116 -41 185 -128 185c-175 0 -296 -296 -296 -506c0 -116 42 -185 129 -185zM548 766l-100 96c-38 37 -56 59 -56 83
c0 25 23 49 53 49c32 0 45 -28 64 -83l51 -145h-12z" />
    <glyph glyph-name="ograve" unicode="&#xf2;" horiz-adv-x="525" 
d="M304 470c121 0 196 -78 196 -197c0 -128 -99 -281 -279 -281c-121 0 -196 78 -196 197c0 128 99 281 279 281zM214 11c103 0 164 230 164 344c0 60 -19 96 -67 96c-103 0 -164 -230 -164 -344c0 -60 19 -96 67 -96zM361 526l-100 96c-38 37 -56 59 -56 83
c0 25 23 49 53 49c32 0 45 -28 64 -83l51 -145h-12z" />
    <glyph glyph-name="Ohungarumlaut" unicode="&#x150;" 
d="M412 766l81 127c49 79 65 103 102 103c28 0 46 -22 46 -44c0 -30 -20 -46 -107 -109l-107 -77h-15zM590 766l81 127c49 79 65 103 102 103c28 0 46 -22 46 -44c0 -30 -20 -46 -107 -109l-107 -77h-15zM354 -17c-165 0 -293 106 -293 291c0 199 162 440 422 440
c164 0 293 -106 293 -290c0 -200 -162 -441 -422 -441zM335 3c175 0 295 296 295 506c0 116 -41 185 -128 185c-175 0 -296 -296 -296 -506c0 -116 42 -185 129 -185z" />
    <glyph glyph-name="ohungarumlaut" unicode="&#x151;" horiz-adv-x="525" 
d="M223 526l81 127c49 79 65 103 102 103c28 0 46 -22 46 -44c0 -30 -20 -46 -107 -109l-107 -77h-15zM401 526l81 127c49 79 65 103 102 103c28 0 46 -22 46 -44c0 -30 -20 -46 -107 -109l-107 -77h-15zM304 470c121 0 196 -78 196 -197c0 -128 -99 -281 -279 -281
c-121 0 -196 78 -196 197c0 128 99 281 279 281zM214 11c103 0 164 230 164 344c0 60 -19 96 -67 96c-103 0 -164 -230 -164 -344c0 -60 19 -96 67 -96z" />
    <glyph glyph-name="Omacron" unicode="&#x14c;" 
d="M385 796l12 47h291l-12 -47h-291zM354 -17c-165 0 -293 106 -293 291c0 199 162 440 422 440c164 0 293 -106 293 -290c0 -200 -162 -441 -422 -441zM335 3c175 0 295 296 295 506c0 116 -41 185 -128 185c-175 0 -296 -296 -296 -506c0 -116 42 -185 129 -185z" />
    <glyph glyph-name="omacron" unicode="&#x14d;" horiz-adv-x="525" 
d="M194 556l12 47h291l-12 -47h-291zM304 470c121 0 196 -78 196 -197c0 -128 -99 -281 -279 -281c-121 0 -196 78 -196 197c0 128 99 281 279 281zM214 11c103 0 164 230 164 344c0 60 -19 96 -67 96c-103 0 -164 -230 -164 -344c0 -60 19 -96 67 -96z" />
    <glyph glyph-name="Oslash" unicode="&#xd8;" 
d="M67 -36h-30l99 104c-47 49 -75 119 -75 206c0 199 162 440 422 440c79 0 150 -24 202 -70l85 89h30l-99 -105c47 -49 75 -118 75 -204c0 -200 -162 -441 -422 -441c-79 0 -150 24 -202 70zM335 3c175 0 295 296 295 506c0 16 -1 32 -3 46l-415 -438
c15 -73 55 -114 123 -114zM206 188c0 -16 1 -32 2 -46l415 437c-14 73 -54 115 -121 115c-175 0 -296 -296 -296 -506z" />
    <glyph glyph-name="oslash" unicode="&#xf8;" horiz-adv-x="525" 
d="M25 -27l59 66c-38 35 -59 86 -59 150c0 128 99 281 279 281c50 0 92 -14 125 -38l51 57h20l-59 -67c38 -34 59 -86 59 -149c0 -128 -99 -281 -279 -281c-51 0 -93 13 -126 38l-50 -57h-20zM311 451c-102 0 -163 -224 -164 -340l230 261c-3 50 -23 79 -66 79zM214 11
c101 0 162 224 164 339l-231 -262c4 -49 24 -77 67 -77z" />
    <glyph glyph-name="Oslashacute" unicode="&#x1fe;" 
d="M67 -36h-30l99 104c-47 49 -75 119 -75 206c0 199 162 440 422 440c79 0 150 -24 202 -70l85 89h30l-99 -105c47 -49 75 -118 75 -204c0 -200 -162 -441 -422 -441c-79 0 -150 24 -202 70zM335 3c175 0 295 296 295 506c0 16 -1 32 -3 46l-415 -438
c15 -73 55 -114 123 -114zM206 188c0 -16 1 -32 2 -46l415 437c-14 73 -54 115 -121 115c-175 0 -296 -296 -296 -506zM468 766l88 153c34 59 47 77 79 77c28 0 50 -23 50 -48c0 -26 -17 -44 -123 -123l-79 -59h-15z" />
    <glyph glyph-name="oslashacute" unicode="&#x1ff;" horiz-adv-x="525" 
d="M25 -27l59 66c-38 35 -59 86 -59 150c0 128 99 281 279 281c50 0 92 -14 125 -38l51 57h20l-59 -67c38 -34 59 -86 59 -149c0 -128 -99 -281 -279 -281c-51 0 -93 13 -126 38l-50 -57h-20zM311 451c-102 0 -163 -224 -164 -340l230 261c-3 50 -23 79 -66 79zM214 11
c101 0 162 224 164 339l-231 -262c4 -49 24 -77 67 -77zM285 526l88 153c34 59 47 77 79 77c28 0 50 -23 50 -48c0 -26 -17 -44 -123 -123l-79 -59h-15z" />
    <glyph glyph-name="Otilde" unicode="&#xd5;" 
d="M354 -17c-165 0 -293 106 -293 291c0 199 162 440 422 440c164 0 293 -106 293 -290c0 -200 -162 -441 -422 -441zM335 3c175 0 295 296 295 506c0 116 -41 185 -128 185c-175 0 -296 -296 -296 -506c0 -116 42 -185 129 -185zM380 767c21 101 55 139 108 139
c45 0 109 -55 146 -55c31 0 38 8 59 59h16c-20 -102 -53 -139 -108 -139c-44 0 -108 54 -146 54c-30 0 -38 -9 -59 -58h-16z" />
    <glyph glyph-name="otilde" unicode="&#xf5;" horiz-adv-x="525" 
d="M304 470c121 0 196 -78 196 -197c0 -128 -99 -281 -279 -281c-121 0 -196 78 -196 197c0 128 99 281 279 281zM214 11c103 0 164 230 164 344c0 60 -19 96 -67 96c-103 0 -164 -230 -164 -344c0 -60 19 -96 67 -96zM192 527c21 101 55 139 108 139c45 0 109 -55 146 -55
c31 0 38 8 59 59h16c-20 -102 -53 -139 -108 -139c-44 0 -108 54 -146 54c-30 0 -38 -9 -59 -58h-16z" />
    <glyph glyph-name="Racute" unicode="&#x154;" horiz-adv-x="732" 
d="M437 766l88 153c34 59 47 77 79 77c28 0 50 -23 50 -48c0 -26 -17 -44 -123 -123l-79 -59h-15zM314 358h52c174 0 209 136 209 209c0 72 -31 110 -115 110h-61zM152 684l3 13h311c171 0 254 -53 254 -147c0 -92 -65 -173 -270 -198l-1 -5c147 -9 187 -57 175 -165l-6 -65
c-9 -89 2 -103 84 -107l-3 -14c-26 -2 -52 -3 -82 -3c-149 0 -166 42 -151 135l15 88c14 91 -7 123 -101 123h-72l-74 -279c-10 -36 15 -42 86 -46l-3 -14h-348l3 14c87 3 106 10 116 46l155 578c7 27 -1 42 -91 46z" />
    <glyph glyph-name="racute" unicode="&#x155;" horiz-adv-x="460" 
d="M252 526l88 153c34 59 47 77 79 77c28 0 50 -23 50 -48c0 -26 -17 -44 -123 -123l-79 -59h-15zM397 470c57 0 87 -34 87 -79c0 -52 -32 -87 -77 -87c-41 0 -71 22 -71 64c0 10 3 33 18 47c-40 -1 -87 -47 -121 -85l-83 -330h-134l48 162l61 229c8 32 0 45 -62 49v12
l208 13l-32 -106l2 -2c41 63 98 113 156 113z" />
    <glyph glyph-name="Rcaron" unicode="&#x158;" horiz-adv-x="732" 
d="M480 766l-81 208h16l103 -89l150 89h22l-197 -208h-13zM314 358h52c174 0 209 136 209 209c0 72 -31 110 -115 110h-61zM152 684l3 13h311c171 0 254 -53 254 -147c0 -92 -65 -173 -270 -198l-1 -5c147 -9 187 -57 175 -165l-6 -65c-9 -89 2 -103 84 -107l-3 -14
c-26 -2 -52 -3 -82 -3c-149 0 -166 42 -151 135l15 88c14 91 -7 123 -101 123h-72l-74 -279c-10 -36 15 -42 86 -46l-3 -14h-348l3 14c87 3 106 10 116 46l155 578c7 27 -1 42 -91 46z" />
    <glyph glyph-name="rcaron" unicode="&#x159;" horiz-adv-x="460" 
d="M291 526l-81 208h16l103 -89l150 89h22l-197 -208h-13zM397 470c57 0 87 -34 87 -79c0 -52 -32 -87 -77 -87c-41 0 -71 22 -71 64c0 10 3 33 18 47c-40 -1 -87 -47 -121 -85l-83 -330h-134l48 162l61 229c8 32 0 45 -62 49v12l208 13l-32 -106l2 -2c41 63 98 113 156 113
z" />
    <glyph glyph-name="Rcommaaccent" unicode="&#x156;" horiz-adv-x="732" 
d="M190 -309l-5 11c82 38 110 80 117 101l-3 4c-36 -3 -64 25 -64 63c0 39 31 70 69 70c44 0 72 -35 72 -77c0 -74 -69 -134 -186 -172zM314 358h52c174 0 209 136 209 209c0 72 -31 110 -115 110h-61zM152 684l3 13h311c171 0 254 -53 254 -147c0 -92 -65 -173 -270 -198
l-1 -5c147 -9 187 -57 175 -165l-6 -65c-9 -89 2 -103 84 -107l-3 -14c-26 -2 -52 -3 -82 -3c-149 0 -166 42 -151 135l15 88c14 91 -7 123 -101 123h-72l-74 -279c-10 -36 15 -42 86 -46l-3 -14h-348l3 14c87 3 106 10 116 46l155 578c7 27 -1 42 -91 46z" />
    <glyph glyph-name="rcommaaccent" unicode="&#x157;" horiz-adv-x="460" 
d="M-58 -309l-5 11c82 38 110 80 117 101l-3 4c-36 -3 -64 25 -64 63c0 39 31 70 69 70c44 0 72 -35 72 -77c0 -74 -69 -134 -186 -172zM397 470c57 0 87 -34 87 -79c0 -52 -32 -87 -77 -87c-41 0 -71 22 -71 64c0 10 3 33 18 47c-40 -1 -87 -47 -121 -85l-83 -330h-134
l48 162l61 229c8 32 0 45 -62 49v12l208 13l-32 -106l2 -2c41 63 98 113 156 113z" />
    <glyph glyph-name="Sacute" unicode="&#x15a;" horiz-adv-x="581" 
d="M377 766l88 153c34 59 47 77 79 77c28 0 50 -23 50 -48c0 -26 -17 -44 -123 -123l-79 -59h-15zM-13 -17l73 262h16c48 -173 103 -240 207 -240c84 0 150 49 150 127c0 77 -60 120 -149 165c-85 44 -158 87 -158 184c0 116 103 229 259 229c70 0 124 -17 173 -41l57 47h16
l-59 -239h-17c-56 173 -113 215 -190 215c-71 0 -127 -46 -127 -122c0 -70 66 -105 142 -146c84 -46 158 -95 158 -193c0 -127 -91 -244 -265 -244c-87 0 -165 24 -215 51l-55 -55h-16z" />
    <glyph glyph-name="sacute" unicode="&#x15b;" horiz-adv-x="433" 
d="M236 526l88 153c34 59 47 77 79 77c28 0 50 -23 50 -48c0 -26 -17 -44 -123 -123l-79 -59h-15zM172 -8c-90 0 -168 31 -168 91c0 37 27 68 67 68c35 0 60 -24 60 -56c0 -21 -9 -40 -28 -53c18 -18 53 -31 86 -31c62 0 102 33 102 83c0 47 -48 65 -99 86
c-73 28 -122 60 -122 131c0 89 74 159 200 159c99 0 156 -41 156 -91c0 -35 -20 -67 -65 -67c-34 0 -60 27 -60 53c0 18 9 41 31 56c-12 18 -41 30 -74 30c-64 0 -97 -37 -97 -82c0 -43 48 -63 101 -86c77 -33 123 -66 123 -130c0 -85 -57 -161 -213 -161z" />
    <glyph glyph-name="Scaron" unicode="&#x160;" horiz-adv-x="581" 
d="M427 766l-81 208h16l103 -89l150 89h22l-197 -208h-13zM-13 -17l73 262h16c48 -173 103 -240 207 -240c84 0 150 49 150 127c0 77 -60 120 -149 165c-85 44 -158 87 -158 184c0 116 103 229 259 229c70 0 124 -17 173 -41l57 47h16l-59 -239h-17
c-56 173 -113 215 -190 215c-71 0 -127 -46 -127 -122c0 -70 66 -105 142 -146c84 -46 158 -95 158 -193c0 -127 -91 -244 -265 -244c-87 0 -165 24 -215 51l-55 -55h-16z" />
    <glyph glyph-name="scaron" unicode="&#x161;" horiz-adv-x="433" 
d="M284 526l-81 208h16l103 -89l150 89h22l-197 -208h-13zM172 -8c-90 0 -168 31 -168 91c0 37 27 68 67 68c35 0 60 -24 60 -56c0 -21 -9 -40 -28 -53c18 -18 53 -31 86 -31c62 0 102 33 102 83c0 47 -48 65 -99 86c-73 28 -122 60 -122 131c0 89 74 159 200 159
c99 0 156 -41 156 -91c0 -35 -20 -67 -65 -67c-34 0 -60 27 -60 53c0 18 9 41 31 56c-12 18 -41 30 -74 30c-64 0 -97 -37 -97 -82c0 -43 48 -63 101 -86c77 -33 123 -66 123 -130c0 -85 -57 -161 -213 -161z" />
    <glyph glyph-name="Scedilla" unicode="&#x15e;" horiz-adv-x="581" 
d="M192 -245c-48 0 -73 9 -101 26l9 15c26 -15 48 -23 77 -23c41 0 65 24 65 54c0 31 -32 50 -81 50c-9 0 -21 -1 -31 -2l-2 10l128 102c-80 3 -152 26 -198 51l-55 -55h-16l73 262h16c48 -173 103 -240 207 -240c84 0 150 49 150 127c0 77 -60 120 -149 165
c-85 44 -158 87 -158 184c0 116 103 229 259 229c70 0 124 -17 173 -41l57 47h16l-59 -239h-17c-56 173 -113 215 -190 215c-71 0 -127 -46 -127 -122c0 -70 66 -105 142 -146c84 -46 158 -95 158 -193c0 -125 -88 -240 -257 -244l-64 -50l1 -4c72 -8 110 -33 110 -82
c0 -60 -67 -96 -136 -96z" />
    <glyph glyph-name="scedilla" unicode="&#x15f;" horiz-adv-x="433" 
d="M118 -245c-48 0 -73 9 -101 26l9 15c26 -15 48 -23 77 -23c41 0 65 24 65 54c0 31 -32 50 -81 50c-9 0 -21 -1 -31 -2l-2 10l134 107h-16c-90 0 -168 31 -168 91c0 37 27 68 67 68c35 0 60 -24 60 -56c0 -21 -9 -40 -28 -53c18 -18 53 -31 86 -31c62 0 102 33 102 83
c0 47 -48 65 -99 86c-73 28 -122 60 -122 131c0 89 74 159 200 159c99 0 156 -41 156 -91c0 -35 -20 -67 -65 -67c-34 0 -60 27 -60 53c0 18 9 41 31 56c-12 18 -41 30 -74 30c-64 0 -97 -37 -97 -82c0 -43 48 -63 101 -86c77 -33 123 -66 123 -130
c0 -77 -46 -146 -169 -159l-73 -57l1 -4c72 -8 110 -33 110 -82c0 -60 -67 -96 -136 -96z" />
    <glyph glyph-name="Scommaaccent" unicode="&#x218;" horiz-adv-x="581" 
d="M110 -309l-5 11c82 38 110 80 117 101l-3 4c-36 -3 -64 25 -64 63c0 39 31 70 69 70c44 0 72 -35 72 -77c0 -74 -69 -134 -186 -172zM-13 -17l73 262h16c48 -173 103 -240 207 -240c84 0 150 49 150 127c0 77 -60 120 -149 165c-85 44 -158 87 -158 184
c0 116 103 229 259 229c70 0 124 -17 173 -41l57 47h16l-59 -239h-17c-56 173 -113 215 -190 215c-71 0 -127 -46 -127 -122c0 -70 66 -105 142 -146c84 -46 158 -95 158 -193c0 -127 -91 -244 -265 -244c-87 0 -165 24 -215 51l-55 -55h-16z" />
    <glyph glyph-name="scommaaccent" unicode="&#x219;" horiz-adv-x="433" 
d="M22 -309l-5 11c82 38 110 80 117 101l-3 4c-36 -3 -64 25 -64 63c0 39 31 70 69 70c44 0 72 -35 72 -77c0 -74 -69 -134 -186 -172zM172 -8c-90 0 -168 31 -168 91c0 37 27 68 67 68c35 0 60 -24 60 -56c0 -21 -9 -40 -28 -53c18 -18 53 -31 86 -31c62 0 102 33 102 83
c0 47 -48 65 -99 86c-73 28 -122 60 -122 131c0 89 74 159 200 159c99 0 156 -41 156 -91c0 -35 -20 -67 -65 -67c-34 0 -60 27 -60 53c0 18 9 41 31 56c-12 18 -41 30 -74 30c-64 0 -97 -37 -97 -82c0 -43 48 -63 101 -86c77 -33 123 -66 123 -130
c0 -85 -57 -161 -213 -161z" />
    <glyph glyph-name="Tcaron" unicode="&#x164;" horiz-adv-x="723" 
d="M492 766l-81 208h16l103 -89l150 89h22l-197 -208h-13zM242 60l165 618h-26c-77 0 -133 -53 -263 -226h-19l70 245h631l-63 -245h-16c-47 188 -67 226 -145 226h-23l-165 -618c-11 -37 8 -43 108 -46l-3 -14h-386l3 14c101 3 122 10 132 46z" />
    <glyph glyph-name="tcaron" unicode="&#x165;" horiz-adv-x="362" 
d="M388 529l33 169c10 51 26 69 56 69c24 0 46 -17 46 -41c0 -23 -19 -51 -40 -82l-80 -115h-15zM403 433h-126l-80 -285c-6 -22 -9 -41 -9 -55c0 -34 19 -48 57 -48c25 0 61 6 90 15v-11c-39 -24 -100 -57 -173 -57c-74 0 -109 31 -109 89c0 18 4 40 11 64l84 288h-93l9 25
h92l43 152l138 18l-53 -170h127z" />
    <glyph glyph-name="Tcommaaccent" unicode="&#x162;" horiz-adv-x="723" 
d="M155 -309l-5 11c82 38 110 80 117 101l-3 4c-36 -3 -64 25 -64 63c0 39 31 70 69 70c44 0 72 -35 72 -77c0 -74 -69 -134 -186 -172zM242 60l165 618h-26c-77 0 -133 -53 -263 -226h-19l70 245h631l-63 -245h-16c-47 188 -67 226 -145 226h-23l-165 -618
c-11 -37 8 -43 108 -46l-3 -14h-386l3 14c101 3 122 10 132 46z" />
    <glyph glyph-name="tcommaaccent" unicode="&#x163;" horiz-adv-x="362" 
d="M-8 -309l-5 11c82 38 110 80 117 101l-3 4c-36 -3 -64 25 -64 63c0 39 31 70 69 70c44 0 72 -35 72 -77c0 -74 -69 -134 -186 -172zM403 433h-126l-80 -285c-6 -22 -9 -41 -9 -55c0 -34 19 -48 57 -48c25 0 61 6 90 15v-11c-39 -24 -100 -57 -173 -57
c-74 0 -109 31 -109 89c0 18 4 40 11 64l84 288h-93l9 25h92l43 152l138 18l-53 -170h127z" />
    <glyph glyph-name="Thorn" unicode="&#xde;" horiz-adv-x="683" 
d="M-31 0l3 14c87 3 106 10 116 46l155 578c7 27 -1 42 -91 46l3 13h342l-3 -13c-83 -5 -99 -19 -105 -47l-22 -81h48c202 0 263 -85 263 -167c0 -104 -88 -230 -342 -230h-76l-26 -99c-10 -36 15 -42 86 -46l-3 -14h-348zM265 178h59c164 0 205 151 205 247
c0 81 -39 111 -116 111h-52z" />
    <glyph glyph-name="thorn" unicode="&#xfe;" horiz-adv-x="537" 
d="M237 399c42 45 88 71 143 71c73 0 131 -57 131 -160c0 -177 -144 -317 -271 -317c-48 0 -82 17 -99 40l-48 -177c-4 -22 8 -31 94 -34v-12h-307v12c59 2 72 12 77 29l42 132l71 272l98 387c8 31 -9 44 -83 48v12l237 15l-88 -316zM218 20c86 0 159 179 159 304
c0 64 -20 93 -65 93c-25 0 -63 -21 -83 -44l-79 -302c9 -34 39 -51 68 -51z" />
    <glyph glyph-name="Uacute" unicode="&#xda;" horiz-adv-x="807" 
d="M496 766l88 153c34 59 47 77 79 77c28 0 50 -23 50 -48c0 -26 -17 -44 -123 -123l-79 -59h-15zM368 637l-101 -374c-10 -39 -15 -72 -15 -101c0 -95 52 -145 154 -145c111 0 192 58 235 219l84 315c23 85 0 125 -97 133l3 13h274l-3 -13c-92 -11 -124 -41 -149 -132
l-90 -337c-40 -151 -124 -232 -306 -232c-157 0 -246 70 -245 200c0 29 5 62 14 96l96 359c7 27 -1 42 -91 46l3 13h345l-3 -13c-83 -5 -101 -19 -108 -47z" />
    <glyph glyph-name="uacute" unicode="&#xfa;" horiz-adv-x="576" 
d="M307 526l88 153c34 59 47 77 79 77c28 0 50 -23 50 -48c0 -26 -17 -44 -123 -123l-79 -59h-15zM52 156l75 232c11 33 -2 48 -64 52v12l216 13l-99 -315c-6 -19 -9 -39 -9 -49c0 -30 16 -45 49 -45c34 0 69 18 111 56l56 193l41 158h135l-110 -362c-6 -19 -9 -33 -9 -45
c0 -28 22 -34 90 -30v-11c-26 -9 -79 -23 -121 -23c-56 0 -93 19 -93 61c0 11 2 23 7 36l-3 3c-58 -66 -122 -100 -180 -100c-68 0 -104 36 -104 96c0 19 4 42 12 68z" />
    <glyph glyph-name="Ubreve" unicode="&#x16c;" horiz-adv-x="807" 
d="M368 637l-101 -374c-10 -39 -15 -72 -15 -101c0 -95 52 -145 154 -145c111 0 192 58 235 219l84 315c23 85 0 125 -97 133l3 13h274l-3 -13c-92 -11 -124 -41 -149 -132l-90 -337c-40 -151 -124 -232 -306 -232c-157 0 -246 70 -245 200c0 29 5 62 14 96l96 359
c7 27 -1 42 -91 46l3 13h345l-3 -13c-83 -5 -101 -19 -108 -47zM554 771c-80 0 -126 51 -101 167h16c6 -57 38 -89 99 -89c65 0 111 33 145 89h20c-37 -114 -96 -167 -179 -167z" />
    <glyph glyph-name="ubreve" unicode="&#x16d;" horiz-adv-x="576" 
d="M52 156l75 232c11 33 -2 48 -64 52v12l216 13l-99 -315c-6 -19 -9 -39 -9 -49c0 -30 16 -45 49 -45c34 0 69 18 111 56l56 193l41 158h135l-110 -362c-6 -19 -9 -33 -9 -45c0 -28 22 -34 90 -30v-11c-26 -9 -79 -23 -121 -23c-56 0 -93 19 -93 61c0 11 2 23 7 36l-3 3
c-58 -66 -122 -100 -180 -100c-68 0 -104 36 -104 96c0 19 4 42 12 68zM365 531c-80 0 -126 51 -101 167h16c6 -57 38 -89 99 -89c65 0 111 33 145 89h20c-37 -114 -96 -167 -179 -167z" />
    <glyph glyph-name="Ucircumflex" unicode="&#xdb;" horiz-adv-x="807" 
d="M404 766l197 208h13l81 -208h-16l-103 89l-150 -89h-22zM368 637l-101 -374c-10 -39 -15 -72 -15 -101c0 -95 52 -145 154 -145c111 0 192 58 235 219l84 315c23 85 0 125 -97 133l3 13h274l-3 -13c-92 -11 -124 -41 -149 -132l-90 -337c-40 -151 -124 -232 -306 -232
c-157 0 -246 70 -245 200c0 29 5 62 14 96l96 359c7 27 -1 42 -91 46l3 13h345l-3 -13c-83 -5 -101 -19 -108 -47z" />
    <glyph glyph-name="ucircumflex" unicode="&#xfb;" horiz-adv-x="576" 
d="M210 526l197 208h13l81 -208h-16l-103 89l-150 -89h-22zM52 156l75 232c11 33 -2 48 -64 52v12l216 13l-99 -315c-6 -19 -9 -39 -9 -49c0 -30 16 -45 49 -45c34 0 69 18 111 56l56 193l41 158h135l-110 -362c-6 -19 -9 -33 -9 -45c0 -28 22 -34 90 -30v-11
c-26 -9 -79 -23 -121 -23c-56 0 -93 19 -93 61c0 11 2 23 7 36l-3 3c-58 -66 -122 -100 -180 -100c-68 0 -104 36 -104 96c0 19 4 42 12 68z" />
    <glyph glyph-name="Udieresis" unicode="&#xdc;" horiz-adv-x="807" 
d="M663 771c-29 0 -58 21 -58 61c0 53 39 93 86 93c30 0 58 -21 58 -61c0 -52 -39 -93 -86 -93zM459 771c-30 0 -59 21 -59 61c0 53 39 93 86 93c30 0 58 -21 58 -61c0 -52 -39 -93 -85 -93zM368 637l-101 -374c-10 -39 -15 -72 -15 -101c0 -95 52 -145 154 -145
c111 0 192 58 235 219l84 315c23 85 0 125 -97 133l3 13h274l-3 -13c-92 -11 -124 -41 -149 -132l-90 -337c-40 -151 -124 -232 -306 -232c-157 0 -246 70 -245 200c0 29 5 62 14 96l96 359c7 27 -1 42 -91 46l3 13h345l-3 -13c-83 -5 -101 -19 -108 -47z" />
    <glyph glyph-name="udieresis" unicode="&#xfc;" horiz-adv-x="576" 
d="M473 531c-29 0 -58 21 -58 61c0 53 39 93 86 93c30 0 58 -21 58 -61c0 -52 -39 -93 -86 -93zM269 531c-30 0 -59 21 -59 61c0 53 39 93 86 93c30 0 58 -21 58 -61c0 -52 -39 -93 -85 -93zM52 156l75 232c11 33 -2 48 -64 52v12l216 13l-99 -315c-6 -19 -9 -39 -9 -49
c0 -30 16 -45 49 -45c34 0 69 18 111 56l56 193l41 158h135l-110 -362c-6 -19 -9 -33 -9 -45c0 -28 22 -34 90 -30v-11c-26 -9 -79 -23 -121 -23c-56 0 -93 19 -93 61c0 11 2 23 7 36l-3 3c-58 -66 -122 -100 -180 -100c-68 0 -104 36 -104 96c0 19 4 42 12 68z" />
    <glyph glyph-name="Ugrave" unicode="&#xd9;" horiz-adv-x="807" 
d="M368 637l-101 -374c-10 -39 -15 -72 -15 -101c0 -95 52 -145 154 -145c111 0 192 58 235 219l84 315c23 85 0 125 -97 133l3 13h274l-3 -13c-92 -11 -124 -41 -149 -132l-90 -337c-40 -151 -124 -232 -306 -232c-157 0 -246 70 -245 200c0 29 5 62 14 96l96 359
c7 27 -1 42 -91 46l3 13h345l-3 -13c-83 -5 -101 -19 -108 -47zM571 766l-100 96c-38 37 -56 59 -56 83c0 25 23 49 53 49c32 0 45 -28 64 -83l51 -145h-12z" />
    <glyph glyph-name="ugrave" unicode="&#xf9;" horiz-adv-x="576" 
d="M52 156l75 232c11 33 -2 48 -64 52v12l216 13l-99 -315c-6 -19 -9 -39 -9 -49c0 -30 16 -45 49 -45c34 0 69 18 111 56l56 193l41 158h135l-110 -362c-6 -19 -9 -33 -9 -45c0 -28 22 -34 90 -30v-11c-26 -9 -79 -23 -121 -23c-56 0 -93 19 -93 61c0 11 2 23 7 36l-3 3
c-58 -66 -122 -100 -180 -100c-68 0 -104 36 -104 96c0 19 4 42 12 68zM383 526l-100 96c-38 37 -56 59 -56 83c0 25 23 49 53 49c32 0 45 -28 64 -83l51 -145h-12z" />
    <glyph glyph-name="Uhungarumlaut" unicode="&#x170;" horiz-adv-x="807" 
d="M368 637l-101 -374c-10 -39 -15 -72 -15 -101c0 -95 52 -145 154 -145c111 0 192 58 235 219l84 315c23 85 0 125 -97 133l3 13h274l-3 -13c-92 -11 -124 -41 -149 -132l-90 -337c-40 -151 -124 -232 -306 -232c-157 0 -246 70 -245 200c0 29 5 62 14 96l96 359
c7 27 -1 42 -91 46l3 13h345l-3 -13c-83 -5 -101 -19 -108 -47zM444 766l81 127c49 79 65 103 102 103c28 0 46 -22 46 -44c0 -30 -20 -46 -107 -109l-107 -77h-15zM622 766l81 127c49 79 65 103 102 103c28 0 46 -22 46 -44c0 -30 -20 -46 -107 -109l-107 -77h-15z" />
    <glyph glyph-name="uhungarumlaut" unicode="&#x171;" horiz-adv-x="576" 
d="M52 156l75 232c11 33 -2 48 -64 52v12l216 13l-99 -315c-6 -19 -9 -39 -9 -49c0 -30 16 -45 49 -45c34 0 69 18 111 56l56 193l41 158h135l-110 -362c-6 -19 -9 -33 -9 -45c0 -28 22 -34 90 -30v-11c-26 -9 -79 -23 -121 -23c-56 0 -93 19 -93 61c0 11 2 23 7 36l-3 3
c-58 -66 -122 -100 -180 -100c-68 0 -104 36 -104 96c0 19 4 42 12 68zM247 526l81 127c49 79 65 103 102 103c28 0 46 -22 46 -44c0 -30 -20 -46 -107 -109l-107 -77h-15zM425 526l81 127c49 79 65 103 102 103c28 0 46 -22 46 -44c0 -30 -20 -46 -107 -109l-107 -77h-15z
" />
    <glyph glyph-name="Umacron" unicode="&#x16a;" horiz-adv-x="807" 
d="M368 637l-101 -374c-10 -39 -15 -72 -15 -101c0 -95 52 -145 154 -145c111 0 192 58 235 219l84 315c23 85 0 125 -97 133l3 13h274l-3 -13c-92 -11 -124 -41 -149 -132l-90 -337c-40 -151 -124 -232 -306 -232c-157 0 -246 70 -245 200c0 29 5 62 14 96l96 359
c7 27 -1 42 -91 46l3 13h345l-3 -13c-83 -5 -101 -19 -108 -47zM413 796l12 47h291l-12 -47h-291z" />
    <glyph glyph-name="umacron" unicode="&#x16b;" horiz-adv-x="576" 
d="M52 156l75 232c11 33 -2 48 -64 52v12l216 13l-99 -315c-6 -19 -9 -39 -9 -49c0 -30 16 -45 49 -45c34 0 69 18 111 56l56 193l41 158h135l-110 -362c-6 -19 -9 -33 -9 -45c0 -28 22 -34 90 -30v-11c-26 -9 -79 -23 -121 -23c-56 0 -93 19 -93 61c0 11 2 23 7 36l-3 3
c-58 -66 -122 -100 -180 -100c-68 0 -104 36 -104 96c0 19 4 42 12 68zM222 556l12 47h291l-12 -47h-291z" />
    <glyph glyph-name="Uogonek" unicode="&#x172;" horiz-adv-x="807" 
d="M368 637l-101 -374c-10 -39 -15 -72 -15 -101c0 -95 52 -145 154 -145c111 0 192 58 235 219l84 315c23 85 0 125 -97 133l3 13h274l-3 -13c-92 -11 -124 -41 -149 -132l-90 -337c-37 -139 -111 -219 -265 -230l-21 -16c-55 -41 -88 -83 -88 -126c0 -37 24 -54 53 -54
c21 0 40 5 62 14l5 -12c-37 -22 -80 -37 -122 -37c-58 0 -93 31 -93 78c0 67 68 105 144 141l21 10h-2c-157 0 -246 70 -245 200c0 29 5 62 14 96l96 359c7 27 -1 42 -91 46l3 13h345l-3 -13c-83 -5 -101 -19 -108 -47z" />
    <glyph glyph-name="uogonek" unicode="&#x173;" horiz-adv-x="583" 
d="M336 -246c-57 0 -92 31 -92 78c0 67 68 107 156 143l46 19c-10 -1 -25 -2 -33 -2c-56 0 -93 19 -93 61c0 11 2 23 7 36l-3 3c-58 -66 -122 -100 -180 -100c-68 0 -104 36 -104 96c0 19 4 42 12 68l75 232c11 33 -2 48 -64 52v12l216 13l-99 -315c-6 -19 -9 -39 -9 -49
c0 -30 16 -45 49 -45c34 0 69 18 111 56l56 193l41 158h135l-110 -362c-6 -19 -9 -33 -9 -45c0 -28 22 -34 90 -30v-11l-49 -21c-115 -49 -146 -108 -146 -151c0 -37 23 -54 53 -54c21 0 39 5 62 14l5 -12c-38 -22 -80 -37 -123 -37z" />
    <glyph glyph-name="Uring" unicode="&#x16e;" horiz-adv-x="807" 
d="M570 771c-56 0 -105 31 -105 89c0 73 68 126 146 126c56 0 105 -31 105 -89c0 -74 -68 -126 -146 -126zM572 788c48 0 75 80 75 129c0 36 -14 52 -38 52c-48 0 -75 -80 -75 -129c0 -36 14 -52 38 -52zM368 637l-101 -374c-10 -39 -15 -72 -15 -101
c0 -95 52 -145 154 -145c111 0 192 58 235 219l84 315c23 85 0 125 -97 133l3 13h274l-3 -13c-92 -11 -124 -41 -149 -132l-90 -337c-40 -151 -124 -232 -306 -232c-157 0 -246 70 -245 200c0 29 5 62 14 96l96 359c7 27 -1 42 -91 46l3 13h345l-3 -13
c-83 -5 -101 -19 -108 -47z" />
    <glyph glyph-name="uring" unicode="&#x16f;" horiz-adv-x="576" 
d="M377 531c-56 0 -105 31 -105 89c0 73 68 126 146 126c56 0 105 -31 105 -89c0 -74 -68 -126 -146 -126zM379 548c48 0 75 80 75 129c0 36 -14 52 -38 52c-48 0 -75 -80 -75 -129c0 -36 14 -52 38 -52zM52 156l75 232c11 33 -2 48 -64 52v12l216 13l-99 -315
c-6 -19 -9 -39 -9 -49c0 -30 16 -45 49 -45c34 0 69 18 111 56l56 193l41 158h135l-110 -362c-6 -19 -9 -33 -9 -45c0 -28 22 -34 90 -30v-11c-26 -9 -79 -23 -121 -23c-56 0 -93 19 -93 61c0 11 2 23 7 36l-3 3c-58 -66 -122 -100 -180 -100c-68 0 -104 36 -104 96
c0 19 4 42 12 68z" />
    <glyph glyph-name="Wacute" unicode="&#x1e82;" horiz-adv-x="1044" 
d="M615 766l88 153c34 59 47 77 79 77c28 0 50 -23 50 -48c0 -26 -17 -44 -123 -123l-79 -59h-15zM323 616l38 -452h5l211 338l-9 101c-5 56 -16 75 -84 81l3 13h325l-3 -13c-85 -4 -100 -25 -97 -68l34 -449h5l207 357c61 106 38 148 -46 160l3 13h257l-3 -13
c-76 -10 -119 -53 -175 -149l-318 -547h-52l-44 476l-292 -476h-53l-55 615c-6 56 -16 70 -91 81l3 13h324l-3 -13c-81 -4 -93 -25 -90 -68z" />
    <glyph glyph-name="wacute" unicode="&#x1e83;" horiz-adv-x="752" 
d="M393 526l88 153c34 59 47 77 79 77c28 0 50 -23 50 -48c0 -26 -17 -44 -123 -123l-79 -59h-15zM498 -16l-96 11l-9 155l-8 68l-160 -233l-97 10l-9 155l-27 231c-7 42 -20 53 -79 54v12l197 21l32 -296l4 -113h5l63 101c30 47 50 89 63 123l-20 171l129 14l30 -296
l5 -114h5l49 70c57 79 89 150 101 191c-36 15 -56 40 -56 77c0 44 27 75 74 75c42 0 71 -34 71 -73c0 -46 -12 -74 -102 -194z" />
    <glyph glyph-name="Wcircumflex" unicode="&#x174;" horiz-adv-x="1044" 
d="M510 766l197 208h13l81 -208h-16l-103 89l-150 -89h-22zM323 616l38 -452h5l211 338l-9 101c-5 56 -16 75 -84 81l3 13h325l-3 -13c-85 -4 -100 -25 -97 -68l34 -449h5l207 357c61 106 38 148 -46 160l3 13h257l-3 -13c-76 -10 -119 -53 -175 -149l-318 -547h-52l-44 476
l-292 -476h-53l-55 615c-6 56 -16 70 -91 81l3 13h324l-3 -13c-81 -4 -93 -25 -90 -68z" />
    <glyph glyph-name="wcircumflex" unicode="&#x175;" horiz-adv-x="752" 
d="M296 526l197 208h13l81 -208h-16l-103 89l-150 -89h-22zM498 -16l-96 11l-9 155l-8 68l-160 -233l-97 10l-9 155l-27 231c-7 42 -20 53 -79 54v12l197 21l32 -296l4 -113h5l63 101c30 47 50 89 63 123l-20 171l129 14l30 -296l5 -114h5l49 70c57 79 89 150 101 191
c-36 15 -56 40 -56 77c0 44 27 75 74 75c42 0 71 -34 71 -73c0 -46 -12 -74 -102 -194z" />
    <glyph glyph-name="Wdieresis" unicode="&#x1e84;" horiz-adv-x="1044" 
d="M769 771c-29 0 -58 21 -58 61c0 53 39 93 86 93c30 0 58 -21 58 -61c0 -52 -39 -93 -86 -93zM565 771c-30 0 -59 21 -59 61c0 53 39 93 86 93c30 0 58 -21 58 -61c0 -52 -39 -93 -85 -93zM323 616l38 -452h5l211 338l-9 101c-5 56 -16 75 -84 81l3 13h325l-3 -13
c-85 -4 -100 -25 -97 -68l34 -449h5l207 357c61 106 38 148 -46 160l3 13h257l-3 -13c-76 -10 -119 -53 -175 -149l-318 -547h-52l-44 476l-292 -476h-53l-55 615c-6 56 -16 70 -91 81l3 13h324l-3 -13c-81 -4 -93 -25 -90 -68z" />
    <glyph glyph-name="wdieresis" unicode="&#x1e85;" horiz-adv-x="752" 
d="M557 531c-29 0 -58 21 -58 61c0 53 39 93 86 93c30 0 58 -21 58 -61c0 -52 -39 -93 -86 -93zM353 531c-30 0 -59 21 -59 61c0 53 39 93 86 93c30 0 58 -21 58 -61c0 -52 -39 -93 -85 -93zM498 -16l-96 11l-9 155l-8 68l-160 -233l-97 10l-9 155l-27 231
c-7 42 -20 53 -79 54v12l197 21l32 -296l4 -113h5l63 101c30 47 50 89 63 123l-20 171l129 14l30 -296l5 -114h5l49 70c57 79 89 150 101 191c-36 15 -56 40 -56 77c0 44 27 75 74 75c42 0 71 -34 71 -73c0 -46 -12 -74 -102 -194z" />
    <glyph glyph-name="Wgrave" unicode="&#x1e80;" horiz-adv-x="1044" 
d="M323 616l38 -452h5l211 338l-9 101c-5 56 -16 75 -84 81l3 13h325l-3 -13c-85 -4 -100 -25 -97 -68l34 -449h5l207 357c61 106 38 148 -46 160l3 13h257l-3 -13c-76 -10 -119 -53 -175 -149l-318 -547h-52l-44 476l-292 -476h-53l-55 615c-6 56 -16 70 -91 81l3 13h324
l-3 -13c-81 -4 -93 -25 -90 -68zM671 766l-100 96c-38 37 -56 59 -56 83c0 25 23 49 53 49c32 0 45 -28 64 -83l51 -145h-12z" />
    <glyph glyph-name="wgrave" unicode="&#x1e81;" horiz-adv-x="752" 
d="M498 -16l-96 11l-9 155l-8 68l-160 -233l-97 10l-9 155l-27 231c-7 42 -20 53 -79 54v12l197 21l32 -296l4 -113h5l63 101c30 47 50 89 63 123l-20 171l129 14l30 -296l5 -114h5l49 70c57 79 89 150 101 191c-36 15 -56 40 -56 77c0 44 27 75 74 75c42 0 71 -34 71 -73
c0 -46 -12 -74 -102 -194zM466 526l-100 96c-38 37 -56 59 -56 83c0 25 23 49 53 49c32 0 45 -28 64 -83l51 -145h-12z" />
    <glyph glyph-name="Yacute" unicode="&#xdd;" horiz-adv-x="692" 
d="M636 545l-196 -240l-65 -245c-10 -37 9 -43 96 -46l-3 -14h-362l3 14c89 3 110 10 120 46l66 245l-95 306c-16 53 -27 61 -103 73l3 13h347l-3 -13c-110 -4 -117 -30 -106 -64l93 -293l178 223c61 79 57 117 -30 134l3 13h251l-3 -13c-72 -12 -117 -44 -194 -139z
M469 766l88 153c34 59 47 77 79 77c28 0 50 -23 50 -48c0 -26 -17 -44 -123 -123l-79 -59h-15z" />
    <glyph glyph-name="yacute" unicode="&#xfd;" horiz-adv-x="488" 
d="M203 468l40 -223l28 -200h4l43 69c55 84 83 155 90 203c-41 12 -67 42 -67 79c0 44 27 75 73 75c43 0 71 -34 71 -75c0 -56 -27 -109 -138 -284c-167 -263 -246 -312 -341 -312c-62 0 -97 33 -97 83c0 42 31 76 73 76c39 0 69 -29 69 -72c0 -25 -12 -47 -27 -58
c41 2 96 20 148 92l-46 259l-39 201c-8 42 -22 53 -81 54v12zM235 526l88 153c34 59 47 77 79 77c28 0 50 -23 50 -48c0 -26 -17 -44 -123 -123l-79 -59h-15z" />
    <glyph glyph-name="Ycircumflex" unicode="&#x176;" horiz-adv-x="692" 
d="M636 545l-196 -240l-65 -245c-10 -37 9 -43 96 -46l-3 -14h-362l3 14c89 3 110 10 120 46l66 245l-95 306c-16 53 -27 61 -103 73l3 13h347l-3 -13c-110 -4 -117 -30 -106 -64l93 -293l178 223c61 79 57 117 -30 134l3 13h251l-3 -13c-72 -12 -117 -44 -194 -139z
M367 766l197 208h13l81 -208h-16l-103 89l-150 -89h-22z" />
    <glyph glyph-name="ycircumflex" unicode="&#x177;" horiz-adv-x="488" 
d="M203 468l40 -223l28 -200h4l43 69c55 84 83 155 90 203c-41 12 -67 42 -67 79c0 44 27 75 73 75c43 0 71 -34 71 -75c0 -56 -27 -109 -138 -284c-167 -263 -246 -312 -341 -312c-62 0 -97 33 -97 83c0 42 31 76 73 76c39 0 69 -29 69 -72c0 -25 -12 -47 -27 -58
c41 2 96 20 148 92l-46 259l-39 201c-8 42 -22 53 -81 54v12zM142 526l197 208h13l81 -208h-16l-103 89l-150 -89h-22z" />
    <glyph glyph-name="Ydieresis" unicode="&#x178;" horiz-adv-x="692" 
d="M636 545l-196 -240l-65 -245c-10 -37 9 -43 96 -46l-3 -14h-362l3 14c89 3 110 10 120 46l66 245l-95 306c-16 53 -27 61 -103 73l3 13h347l-3 -13c-110 -4 -117 -30 -106 -64l93 -293l178 223c61 79 57 117 -30 134l3 13h251l-3 -13c-72 -12 -117 -44 -194 -139z
M621 771c-29 0 -58 21 -58 61c0 53 39 93 86 93c30 0 58 -21 58 -61c0 -52 -39 -93 -86 -93zM417 771c-30 0 -59 21 -59 61c0 53 39 93 86 93c30 0 58 -21 58 -61c0 -52 -39 -93 -85 -93z" />
    <glyph glyph-name="ydieresis" unicode="&#xff;" horiz-adv-x="488" 
d="M203 468l40 -223l28 -200h4l43 69c55 84 83 155 90 203c-41 12 -67 42 -67 79c0 44 27 75 73 75c43 0 71 -34 71 -75c0 -56 -27 -109 -138 -284c-167 -263 -246 -312 -341 -312c-62 0 -97 33 -97 83c0 42 31 76 73 76c39 0 69 -29 69 -72c0 -25 -12 -47 -27 -58
c41 2 96 20 148 92l-46 259l-39 201c-8 42 -22 53 -81 54v12zM407 531c-29 0 -58 21 -58 61c0 53 39 93 86 93c30 0 58 -21 58 -61c0 -52 -39 -93 -86 -93zM203 531c-30 0 -59 21 -59 61c0 53 39 93 86 93c30 0 58 -21 58 -61c0 -52 -39 -93 -85 -93z" />
    <glyph glyph-name="Ygrave" unicode="&#x1ef2;" horiz-adv-x="692" 
d="M636 545l-196 -240l-65 -245c-10 -37 9 -43 96 -46l-3 -14h-362l3 14c89 3 110 10 120 46l66 245l-95 306c-16 53 -27 61 -103 73l3 13h347l-3 -13c-110 -4 -117 -30 -106 -64l93 -293l178 223c61 79 57 117 -30 134l3 13h251l-3 -13c-72 -12 -117 -44 -194 -139z
M524 766l-100 96c-38 37 -56 59 -56 83c0 25 23 49 53 49c32 0 45 -28 64 -83l51 -145h-12z" />
    <glyph glyph-name="ygrave" unicode="&#x1ef3;" horiz-adv-x="488" 
d="M203 468l40 -223l28 -200h4l43 69c55 84 83 155 90 203c-41 12 -67 42 -67 79c0 44 27 75 73 75c43 0 71 -34 71 -75c0 -56 -27 -109 -138 -284c-167 -263 -246 -312 -341 -312c-62 0 -97 33 -97 83c0 42 31 76 73 76c39 0 69 -29 69 -72c0 -25 -12 -47 -27 -58
c41 2 96 20 148 92l-46 259l-39 201c-8 42 -22 53 -81 54v12zM299 526l-100 96c-38 37 -56 59 -56 83c0 25 23 49 53 49c32 0 45 -28 64 -83l51 -145h-12z" />
    <glyph glyph-name="Zacute" unicode="&#x179;" horiz-adv-x="672" 
d="M428 766l88 153c34 59 47 77 79 77c28 0 50 -23 50 -48c0 -26 -17 -44 -123 -123l-79 -59h-15zM584 677h-145c-90 0 -169 -49 -298 -216l-20 2l73 234h561l2 -17l-613 -660h176c92 0 170 61 297 228l17 -2l-72 -246h-592l-2 17z" />
    <glyph glyph-name="zacute" unicode="&#x17a;" horiz-adv-x="456" 
d="M238 526l88 153c34 59 47 77 79 77c28 0 50 -23 50 -48c0 -26 -17 -44 -123 -123l-79 -59h-15zM1 -15l-15 28l379 352l-2 5l-161 -3c-72 -2 -90 -14 -134 -85l-14 2l50 179h357l7 -35l-368 -342l2 -3c27 13 52 17 84 17c42 0 95 -7 125 -7c50 0 73 14 94 80l12 -2
c-17 -159 -55 -179 -122 -179c-79 0 -132 10 -184 10c-39 0 -80 -3 -110 -17z" />
    <glyph glyph-name="Zcaron" unicode="&#x17d;" horiz-adv-x="672" 
d="M464 766l-81 208h16l103 -89l150 89h22l-197 -208h-13zM584 677h-145c-90 0 -169 -49 -298 -216l-20 2l73 234h561l2 -17l-613 -660h176c92 0 170 61 297 228l17 -2l-72 -246h-592l-2 17z" />
    <glyph glyph-name="zcaron" unicode="&#x17e;" horiz-adv-x="456" 
d="M280 526l-81 208h16l103 -89l150 89h22l-197 -208h-13zM1 -15l-15 28l379 352l-2 5l-161 -3c-72 -2 -90 -14 -134 -85l-14 2l50 179h357l7 -35l-368 -342l2 -3c27 13 52 17 84 17c42 0 95 -7 125 -7c50 0 73 14 94 80l12 -2c-17 -159 -55 -179 -122 -179
c-79 0 -132 10 -184 10c-39 0 -80 -3 -110 -17z" />
    <glyph glyph-name="Zdotaccent" unicode="&#x17b;" horiz-adv-x="672" 
d="M584 677h-145c-90 0 -169 -49 -298 -216l-20 2l73 234h561l2 -17l-613 -660h176c92 0 170 61 297 228l17 -2l-72 -246h-592l-2 17zM482 771c-31 0 -61 23 -61 64c0 54 41 97 90 97c31 0 61 -22 61 -64c0 -54 -41 -97 -90 -97z" />
    <glyph glyph-name="zdotaccent" unicode="&#x17c;" horiz-adv-x="456" 
d="M1 -15l-15 28l379 352l-2 5l-161 -3c-72 -2 -90 -14 -134 -85l-14 2l50 179h357l7 -35l-368 -342l2 -3c27 13 52 17 84 17c42 0 95 -7 125 -7c50 0 73 14 94 80l12 -2c-17 -159 -55 -179 -122 -179c-79 0 -132 10 -184 10c-39 0 -80 -3 -110 -17zM294 531
c-31 0 -61 23 -61 64c0 54 41 97 90 97c31 0 61 -22 61 -64c0 -54 -41 -97 -90 -97z" />
    <glyph glyph-name="schwa" unicode="&#x259;" horiz-adv-x="475" 
d="M-1 96c0 79 95 146 312 136c3 17 5 34 5 51c0 92 -31 138 -112 138c-53 0 -113 -32 -153 -88l-12 11c51 79 128 125 222 125c109 0 188 -69 188 -184c0 -157 -127 -294 -303 -294c-100 0 -147 46 -147 105zM154 10c62 0 132 98 154 205c-170 1 -200 -85 -200 -149
c0 -38 16 -56 46 -56z" />
    <glyph glyph-name="germandbls" unicode="&#xdf;" horiz-adv-x="568" 
d="M-82 -200c-82 0 -127 31 -127 84c0 36 27 65 67 65c39 0 62 -32 62 -64c0 -24 -16 -48 -35 -57c9 -5 18 -8 35 -8c35 0 67 23 90 129l122 542c38 169 120 232 244 232c108 0 175 -43 175 -114c0 -129 -184 -110 -184 -217c0 -78 175 -123 175 -249
c0 -78 -52 -151 -185 -151c-71 0 -136 31 -136 91c0 37 24 68 64 68c35 0 58 -24 58 -56c0 -21 -12 -44 -32 -55c10 -17 34 -29 63 -29c51 0 77 38 77 81c0 108 -160 124 -160 240c0 130 146 112 146 275c0 59 -19 97 -65 97c-49 0 -78 -40 -103 -154l-97 -441
c-49 -227 -116 -309 -254 -309z" />
    <glyph glyph-name="zero" unicode="0" horiz-adv-x="637" 
d="M185 156c0 -93 26 -149 90 -149c153 0 238 339 238 502c0 93 -27 149 -91 149c-153 0 -237 -339 -237 -502zM646 420c0 -189 -135 -434 -366 -434c-140 0 -228 97 -228 259c0 189 135 434 365 434c140 0 229 -97 229 -259z" />
    <glyph glyph-name="one" unicode="1" horiz-adv-x="428" 
d="M-25 0l3 13c103 5 125 16 135 53l125 477c17 66 18 95 -98 98l3 13l267 20l-162 -608c-10 -38 8 -48 115 -53l-3 -13h-385z" />
    <glyph glyph-name="two" unicode="2" horiz-adv-x="564" 
d="M-12 0l17 86l225 145c151 96 221 174 221 301c0 86 -36 128 -106 128c-48 0 -99 -25 -126 -67c46 -12 74 -43 74 -86c0 -44 -32 -86 -84 -86c-50 0 -82 34 -82 89c0 95 102 169 240 169c154 0 221 -79 221 -167c0 -105 -94 -176 -381 -330l-117 -67v-4h279
c64 0 88 18 143 101l13 -1l-59 -211h-478z" />
    <glyph glyph-name="three" unicode="3" horiz-adv-x="567" 
d="M218 332l6 22c94 0 150 20 185 54c37 34 51 88 51 135c0 68 -27 117 -110 117c-52 0 -95 -29 -112 -54c35 -9 62 -37 62 -77c0 -41 -30 -81 -80 -81c-46 0 -81 35 -81 80c0 92 97 151 233 151c145 0 225 -63 225 -155c0 -88 -83 -168 -297 -182l-1 -4
c155 -10 227 -74 227 -163c0 -117 -121 -189 -291 -189c-149 0 -215 70 -215 145c0 58 38 98 88 98c48 0 79 -39 79 -81c0 -41 -28 -74 -73 -87c16 -29 61 -57 115 -57c42 0 75 14 101 40c36 36 55 94 55 156c0 86 -54 129 -167 132z" />
    <glyph glyph-name="four" unicode="4" horiz-adv-x="601" 
d="M577 194h-130l-35 -136c-9 -33 4 -44 83 -45l-3 -13h-327l3 13c73 1 95 18 103 45l36 136h-295l14 46l449 426h95l-101 -387h125zM402 566l-301 -287h228l77 287h-4z" />
    <glyph glyph-name="five" unicode="5" horiz-adv-x="566" 
d="M228 -14c-111 0 -205 62 -205 147c0 49 36 94 89 94c51 0 77 -38 77 -77c0 -45 -22 -74 -65 -89c16 -38 56 -57 114 -57c129 0 156 176 156 258c0 85 -40 124 -107 124c-52 0 -106 -24 -150 -61l-21 7l93 333h408l-44 -121h-374l-58 -196c50 36 105 63 174 63
c132 0 218 -61 218 -174c0 -142 -127 -251 -305 -251z" />
    <glyph glyph-name="six" unicode="6" horiz-adv-x="580" 
d="M262 -14c-136 0 -211 96 -211 231c0 251 207 456 581 466l-1 -14c-259 -44 -371 -168 -423 -313l4 -3c51 64 102 98 182 98c109 0 165 -84 165 -178c0 -138 -115 -287 -297 -287zM261 5c98 0 167 195 167 322c0 70 -28 99 -67 99c-103 0 -187 -154 -187 -291
c0 -93 31 -130 87 -130z" />
    <glyph glyph-name="seven" unicode="7" horiz-adv-x="529" 
d="M30 -10v9l498 546h-270c-63 0 -85 -17 -144 -120l-12 1l59 239h466l3 -12l-263 -364l-194 -299h-143z" />
    <glyph glyph-name="eight" unicode="8" horiz-adv-x="566" 
d="M264 -14c-155 0 -228 74 -228 154c0 87 69 150 191 185c-55 37 -97 80 -97 151c0 110 109 203 246 203c138 0 214 -67 214 -150c0 -69 -61 -132 -182 -166c63 -41 120 -90 120 -176c0 -126 -125 -201 -264 -201zM266 301l-21 12c-60 -37 -93 -99 -93 -164
c0 -78 43 -142 119 -142c71 0 129 44 129 135c0 75 -60 114 -134 159zM255 531c0 -67 60 -109 132 -154c61 46 87 108 87 170c0 68 -37 112 -102 112c-67 0 -117 -49 -117 -128z" />
    <glyph glyph-name="nine" unicode="9" horiz-adv-x="574" 
d="M386 679c135 0 210 -96 210 -232c0 -250 -200 -454 -581 -464l1 14c246 44 372 159 417 301l-4 4c-48 -59 -90 -87 -166 -87c-118 0 -175 82 -175 178c0 137 116 286 298 286zM385 660c-96 0 -166 -194 -166 -311c0 -76 30 -110 79 -110c98 0 171 151 171 286
c0 81 -23 135 -84 135z" />
    <glyph glyph-name="period" unicode="." horiz-adv-x="257" 
d="M90 -17c-46 0 -80 35 -80 78c0 42 35 79 81 79s80 -35 80 -78c0 -42 -35 -79 -81 -79z" />
    <glyph glyph-name="comma" unicode="," horiz-adv-x="257" 
d="M-65 -150l-4 12c100 45 140 85 154 123l-3 4c-42 -3 -72 28 -72 72c0 45 35 79 78 79c49 0 81 -40 81 -88c0 -84 -73 -158 -234 -202z" />
    <glyph glyph-name="colon" unicode=":" horiz-adv-x="271" 
d="M97 -17c-46 0 -80 35 -80 78c0 42 35 79 81 79s80 -35 80 -78c0 -42 -35 -79 -81 -79zM164 258c-46 0 -80 36 -80 78c0 43 35 79 82 79c46 0 79 -35 79 -78c0 -42 -35 -79 -81 -79z" />
    <glyph glyph-name="semicolon" unicode=";" horiz-adv-x="271" 
d="M164 258c-46 0 -80 36 -80 78c0 43 35 79 82 79c46 0 79 -35 79 -78c0 -42 -35 -79 -81 -79zM-58 -150l-4 12c100 45 140 85 154 123l-3 4c-42 -3 -72 28 -72 72c0 45 35 79 78 79c49 0 81 -40 81 -88c0 -84 -73 -158 -234 -202z" />
    <glyph glyph-name="ellipsis" unicode="&#x2026;" horiz-adv-x="759" 
d="M90 -17c-46 0 -80 35 -80 78c0 42 35 79 81 79s80 -35 80 -78c0 -42 -35 -79 -81 -79zM341 -17c-46 0 -80 35 -80 78c0 42 35 79 81 79s80 -35 80 -78c0 -42 -35 -79 -81 -79zM592 -17c-46 0 -80 35 -80 78c0 42 35 79 82 79c46 0 79 -35 79 -78c0 -42 -35 -79 -81 -79z
" />
    <glyph glyph-name="periodcentered" unicode="&#xb7;" horiz-adv-x="257" 
d="M153 244c-46 0 -80 35 -80 77c0 43 35 79 82 79c46 0 79 -35 79 -77c0 -43 -35 -79 -81 -79z" />
    <glyph glyph-name="bullet" unicode="&#x2022;" horiz-adv-x="477" 
d="M263 194c-79 0 -138 61 -138 136s59 137 138 137c78 0 137 -62 137 -137s-59 -136 -137 -136z" />
    <glyph glyph-name="ampersand" unicode="&#x26;" horiz-adv-x="716" 
d="M360 384c78 46 108 123 108 194c0 53 -29 78 -67 78c-50 0 -96 -48 -96 -130c0 -56 13 -87 55 -142zM247 332c-72 -45 -105 -101 -105 -168c0 -72 43 -114 109 -114c37 0 79 17 122 57c-20 70 -78 163 -126 225zM470 208c63 115 120 160 175 160c49 0 81 -31 81 -78
c0 -39 -30 -76 -73 -76c-38 0 -68 27 -68 63c0 6 1 12 3 18l-3 2c-27 -9 -54 -27 -106 -105c42 -122 79 -135 127 -135c21 0 38 7 68 28l8 -7c-47 -62 -101 -95 -155 -95c-59 0 -123 24 -148 108c-58 -71 -123 -108 -209 -108c-99 0 -165 60 -165 144c0 104 84 185 230 219
c-36 47 -44 81 -44 130c0 107 101 195 208 195c112 0 170 -61 170 -132c0 -68 -76 -134 -197 -171c40 -47 81 -106 98 -160z" />
    <glyph glyph-name="exclam" unicode="!" horiz-adv-x="284" 
d="M145 197l-16 3c27 166 32 375 52 450c12 49 42 75 79 75c42 0 69 -28 69 -75c0 -77 -109 -259 -184 -453zM98 -17c-46 0 -80 35 -80 78c0 42 35 79 82 79c46 0 79 -35 79 -78c0 -42 -35 -79 -81 -79z" />
    <glyph glyph-name="exclamdown" unicode="&#xa1;" horiz-adv-x="284" 
d="M256 568c-46 0 -80 36 -80 78c0 43 35 79 81 79s80 -35 80 -78c0 -42 -35 -79 -81 -79zM211 512l15 -4c-26 -165 -31 -375 -51 -450c-14 -49 -43 -75 -80 -75c-41 0 -69 29 -69 75c0 77 109 259 185 454z" />
    <glyph glyph-name="question" unicode="?" horiz-adv-x="503" 
d="M203 197l-26 6l42 136c146 44 198 157 198 260c0 71 -37 105 -108 105c-57 0 -104 -34 -120 -63c47 -11 66 -43 66 -77c1 -39 -28 -75 -74 -75s-80 34 -80 80c-1 84 92 155 213 155c147 0 237 -78 237 -183c0 -119 -121 -190 -309 -216zM158 -17c-46 0 -80 35 -80 78
c0 42 35 79 81 79s80 -35 80 -78c0 -42 -35 -79 -81 -79z" />
    <glyph glyph-name="questiondown" unicode="&#xbf;" horiz-adv-x="503" 
d="M366 515l27 -6l-42 -136c-146 -45 -198 -157 -198 -260c0 -72 37 -106 108 -106c57 0 104 34 120 63c-47 11 -66 43 -66 78c-1 38 28 74 74 74s80 -34 80 -80c1 -83 -93 -155 -213 -155c-147 0 -237 79 -237 183c0 119 121 190 308 216zM412 728c46 0 80 -35 80 -78
c0 -42 -35 -79 -81 -79s-80 35 -80 78c0 42 35 79 81 79z" />
    <glyph glyph-name="quotedblleft" unicode="&#x201c;" horiz-adv-x="465" 
d="M560 709l4 -12c-99 -44 -140 -85 -154 -123l4 -4c41 4 71 -28 71 -72s-35 -79 -77 -79c-50 0 -82 41 -82 88c0 84 73 158 234 202zM352 709l4 -12c-100 -44 -140 -85 -154 -123l3 -4c42 4 72 -28 72 -72s-35 -79 -78 -79c-49 0 -81 41 -81 88c0 84 73 158 234 202z" />
    <glyph glyph-name="quotedblright" unicode="&#x201d;" horiz-adv-x="465" 
d="M76 423l-4 12c99 44 140 85 154 123l-3 4c-42 -4 -72 28 -72 72s35 79 78 79c49 0 81 -41 81 -88c0 -84 -73 -158 -234 -202zM285 423l-4 12c99 44 139 85 153 123l-3 4c-42 -4 -72 28 -72 72s35 79 78 79c49 0 81 -41 81 -88c0 -84 -73 -158 -233 -202z" />
    <glyph glyph-name="quoteleft" unicode="&#x2018;" horiz-adv-x="257" 
d="M352 709l4 -12c-100 -44 -140 -85 -154 -123l3 -4c42 4 72 -28 72 -72s-35 -79 -78 -79c-49 0 -81 41 -81 88c0 84 73 158 234 202z" />
    <glyph glyph-name="quoteright" unicode="&#x2019;" horiz-adv-x="257" 
d="M76 423l-4 12c99 44 140 85 154 123l-3 4c-42 -4 -72 28 -72 72s35 79 78 79c49 0 81 -41 81 -88c0 -84 -73 -158 -234 -202z" />
    <glyph glyph-name="quotedblbase" unicode="&#x201e;" horiz-adv-x="465" 
d="M144 -150l-4 12c99 45 139 85 153 123l-3 4c-42 -3 -72 28 -72 72c0 45 35 79 78 79c50 0 81 -40 81 -88c0 -84 -73 -158 -233 -202zM-65 -150l-4 12c100 45 140 85 154 123l-3 4c-42 -3 -72 28 -72 72c0 45 35 79 78 79c49 0 81 -40 81 -88c0 -84 -73 -158 -234 -202z
" />
    <glyph glyph-name="quotesinglbase" unicode="&#x201a;" horiz-adv-x="257" 
d="M-65 -150l-4 12c100 45 140 85 154 123l-3 4c-42 -3 -72 28 -72 72c0 45 35 79 78 79c49 0 81 -40 81 -88c0 -84 -73 -158 -234 -202z" />
    <glyph glyph-name="guillemotleft" unicode="&#xab;" horiz-adv-x="508" 
d="M397 22l-143 178c-14 18 -20 27 -20 34c0 6 9 14 34 31l233 162l11 -12l-163 -188l63 -196zM195 28l-141 176c-15 19 -19 27 -19 33c0 5 4 12 32 30l233 159l11 -12l-164 -185l63 -192z" />
    <glyph glyph-name="guillemotright" unicode="&#xbb;" horiz-adv-x="507" 
d="M215 28l-11 12l164 184l-63 193l15 9l141 -176c15 -19 19 -27 19 -34c0 -4 -4 -11 -32 -29zM14 27l-11 12l163 188l-63 196l15 9l143 -178c14 -19 20 -27 20 -34c0 -6 -9 -14 -34 -31z" />
    <glyph glyph-name="guilsinglleft" unicode="&#x2039;" horiz-adv-x="307" 
d="M195 27l-141 176c-15 19 -19 27 -19 34c0 5 4 11 32 29l233 159l11 -12l-164 -184l63 -193z" />
    <glyph glyph-name="guilsinglright" unicode="&#x203a;" horiz-adv-x="307" 
d="M14 27l-11 12l163 187l-63 195l15 9l143 -177c14 -18 20 -27 20 -34c0 -6 -9 -14 -34 -31z" />
    <glyph glyph-name="hyphen" unicode="-" horiz-adv-x="366" 
d="M57 239l11 41h256l-11 -41h-256z" />
    <glyph glyph-name="endash" unicode="&#x2013;" horiz-adv-x="540" 
d="M60 252l6 22h430l-6 -22h-430z" />
    <glyph glyph-name="emdash" unicode="&#x2014;" horiz-adv-x="790" 
d="M60 252l6 22h680l-6 -22h-680z" />
    <glyph glyph-name="underscore" unicode="_" horiz-adv-x="440" 
d="M-61 0l8 31h444l-8 -31h-444z" />
    <glyph glyph-name="slash" unicode="/" horiz-adv-x="457" 
d="M-119 -215l340 480l339 481h31l-340 -481l-339 -480h-31z" />
    <glyph glyph-name="backslash" unicode="\" horiz-adv-x="457" 
d="M307 -215l-81 480l-82 481h27l80 -481l83 -480h-27z" />
    <glyph glyph-name="bar" unicode="|" horiz-adv-x="306" 
d="M140 746h26v-961h-26v961z" />
    <glyph glyph-name="brokenbar" unicode="&#xa6;" horiz-adv-x="306" 
d="M166 337h-26v409h26v-409zM140 194h26v-409h-26v409z" />
    <glyph glyph-name="parenleft" unicode="(" horiz-adv-x="383" 
d="M316 -166c-143 73 -243 201 -243 389c0 292 272 498 484 541l2 -12c-242 -82 -362 -373 -362 -597c0 -143 35 -228 124 -313z" />
    <glyph glyph-name="parenright" unicode=")" horiz-adv-x="383" 
d="M-136 -164l-3 12c242 82 362 373 362 597c0 144 -35 228 -123 313l5 8c143 -73 243 -201 243 -389c0 -292 -273 -498 -484 -541z" />
    <glyph glyph-name="bracketleft" unicode="[" horiz-adv-x="371" 
d="M-14 -165l249 929h300l-6 -20h-180l-238 -889h180l-5 -20h-300z" />
    <glyph glyph-name="bracketright" unicode="]" horiz-adv-x="371" 
d="M-127 -166l6 20h180l238 889h-180l5 20h300l-249 -929h-300z" />
    <glyph glyph-name="braceleft" unicode="{" horiz-adv-x="404" 
d="M325 -169c-147 1 -226 64 -226 150c0 84 66 187 66 259c0 52 -26 70 -123 79l4 16c84 7 122 15 151 44c65 65 10 218 115 323c43 43 97 62 246 62l-4 -15c-62 -2 -93 -13 -120 -40c-85 -84 -40 -237 -126 -322c-39 -39 -91 -55 -202 -60l-3 -5c140 -12 175 -61 175 -125
c0 -74 -50 -166 -50 -241c0 -61 22 -103 101 -110z" />
    <glyph glyph-name="braceright" unicode="}" horiz-adv-x="404" 
d="M-119 -169l4 15c62 2 93 15 120 42c84 84 44 257 130 344c39 38 92 55 202 59l4 5c-141 12 -175 61 -175 125c0 73 45 143 45 218c0 61 -22 104 -101 111l4 14c147 -1 227 -64 227 -150c0 -84 -62 -165 -62 -236c0 -51 26 -69 122 -79l-3 -16c-84 -6 -123 -16 -152 -44
c-66 -66 -15 -241 -119 -345c-43 -43 -97 -63 -246 -63z" />
    <glyph glyph-name="at" unicode="@" horiz-adv-x="909" 
d="M452 -146c-224 0 -376 142 -376 363c0 267 201 467 463 467c191 0 334 -128 334 -308c0 -200 -130 -318 -260 -318c-85 0 -114 29 -120 77l-3 2c-43 -46 -81 -71 -129 -71c-71 0 -113 51 -113 128c0 147 130 286 245 286c61 0 86 -25 99 -56h4l18 47l112 8l-62 -142
l-52 -143c-11 -29 -17 -52 -17 -69c0 -27 14 -42 43 -42c98 0 213 119 213 292c0 165 -130 290 -314 290c-257 0 -439 -204 -439 -448c0 -198 135 -344 356 -344c111 0 186 33 259 83l10 -14c-77 -54 -158 -88 -271 -88zM419 115c25 0 44 15 71 47l91 234
c-8 36 -28 56 -62 56c-75 0 -158 -154 -158 -272c0 -52 22 -65 58 -65z" />
    <glyph glyph-name="copyright" unicode="&#xa9;" horiz-adv-x="838" 
d="M426 150c-95 0 -164 61 -164 166c0 118 90 239 241 239c47 0 77 -17 101 -30l26 28h15l-34 -145h-15c-29 106 -49 133 -97 133c-75 0 -146 -125 -146 -241c0 -73 31 -121 103 -121c47 0 94 24 139 87l11 -9c-40 -62 -104 -107 -180 -107zM409 -34
c-198 0 -334 137 -334 325c0 235 168 440 416 440c199 0 334 -136 334 -325c0 -235 -168 -440 -416 -440zM410 -17c238 0 395 197 395 422c0 180 -126 309 -315 309c-238 0 -395 -197 -395 -422c0 -179 127 -309 315 -309z" />
    <glyph glyph-name="published" unicode="&#x2117;" horiz-adv-x="838" 
d="M223 158l3 12c47 2 58 3 62 22l86 324c4 14 -1 21 -50 23l2 11h171c113 0 150 -47 150 -95c0 -60 -52 -130 -193 -130h-44l-35 -132c-6 -19 15 -21 55 -23l-3 -12h-204zM414 340h33c87 0 114 78 114 134c0 49 -29 61 -68 61h-27zM409 -34c-198 0 -334 137 -334 325
c0 235 168 440 416 440c199 0 334 -136 334 -325c0 -235 -168 -440 -416 -440zM410 -17c238 0 395 197 395 422c0 180 -126 309 -315 309c-238 0 -395 -197 -395 -422c0 -179 127 -309 315 -309z" />
    <glyph glyph-name="registered.alt" horiz-adv-x="838" 
d="M409 -34c-198 0 -334 137 -334 325c0 235 168 440 416 440c199 0 334 -136 334 -325c0 -235 -168 -440 -416 -440zM410 -17c238 0 395 197 395 422c0 180 -126 309 -315 309c-238 0 -395 -197 -395 -422c0 -179 127 -309 315 -309zM417 363h24c95 0 116 69 116 112
s-16 60 -60 60h-34zM413 349l-42 -156c-5 -20 9 -21 48 -23l-3 -12h-197l3 12c48 2 58 3 63 22l86 324c3 14 -2 21 -51 23l3 11h179c97 0 141 -31 141 -83c0 -51 -37 -97 -147 -111l-1 -3c79 -4 100 -29 95 -92l-4 -36c-4 -49 3 -55 46 -57l-3 -11c-15 -2 -28 -3 -46 -3
c-80 0 -96 23 -87 76l9 49c9 50 -4 70 -57 70h-35z" />
    <glyph glyph-name="registered" unicode="&#xae;" horiz-adv-x="377" 
d="M247 423c-81 0 -138 59 -138 138c0 94 76 170 170 170c81 0 138 -59 138 -138c0 -94 -76 -170 -170 -170zM248 435c86 0 155 71 155 157c0 73 -51 127 -125 127c-86 0 -155 -71 -155 -157c0 -73 51 -127 125 -127zM251 586h13c27 0 45 17 45 46c0 21 -17 24 -32 24h-9z
M249 578l-14 -60c-1 -6 0 -9 16 -10l-2 -7h-79l2 7c20 1 26 5 27 10l33 129c1 6 -5 9 -24 11l2 7h74c42 0 61 -16 61 -39s-17 -38 -56 -43l-1 -3c25 -3 37 -12 36 -29v-24c-1 -16 2 -21 18 -21l-2 -7c-2 -1 -17 -1 -21 -1c-26 0 -34 10 -33 32l2 16c1 22 -3 32 -26 32h-13z
" />
    <glyph glyph-name="servicemark" unicode="&#x2120;" horiz-adv-x="603" 
d="M116 468l23 83h10c15 -45 39 -69 73 -69c29 0 46 16 46 38c0 18 -12 30 -53 48c-26 12 -54 26 -54 62c0 45 39 76 92 76c22 0 45 -5 63 -14l19 16h8l-20 -74h-11c-14 42 -34 60 -62 60c-22 0 -43 -12 -43 -35c0 -20 17 -31 51 -46c33 -15 55 -31 55 -64
c0 -38 -29 -80 -96 -80c-21 0 -46 4 -71 17l-21 -18h-9zM317 483c31 4 40 16 49 48l35 131c4 15 1 29 -27 30l3 10h100l15 -158h4l95 158h107l-3 -10c-28 -2 -36 -5 -39 -16l-48 -176c-3 -11 5 -14 32 -15l-3 -11h-126l3 11c25 1 31 4 34 15l44 163h-8l-113 -189h-27
l-20 190h-7l-35 -133c-9 -33 -5 -44 23 -48l-3 -9h-88z" />
    <glyph glyph-name="trademark" unicode="&#x2122;" horiz-adv-x="647" 
d="M352 474l2 9c31 4 41 16 49 48l36 131c4 15 1 29 -27 30l3 10h100l15 -158h4l94 158h108l-3 -10c-29 -2 -37 -5 -40 -16l-48 -176c-3 -11 5 -14 32 -15l-3 -11h-126l3 11c25 1 31 4 34 15l44 163h-7l-113 -189h-27l-21 190h-6l-36 -133c-8 -33 -4 -44 23 -48l-2 -9h-88z
M147 474l3 11c30 0 39 4 42 15l51 190h-6c-24 0 -55 -33 -84 -74h-12l27 86h218l-20 -86h-11c-6 43 -19 74 -46 74h-5l-51 -190c-3 -11 4 -15 34 -15l-3 -11h-137z" />
    <glyph glyph-name="asterisk" unicode="*" horiz-adv-x="423" 
d="M365 384c-22 -9 -45 -2 -57 26c-9 20 -10 103 -11 128l-10 2c-12 -22 -49 -92 -66 -108c-22 -20 -45 -17 -61 2c-16 18 -16 42 6 62c17 14 94 40 117 49v9c-25 5 -106 17 -124 28c-26 16 -30 40 -17 61c12 21 35 28 60 12c19 -13 68 -76 83 -96l10 4
c-3 25 -17 106 -12 127c8 29 28 40 52 35c23 -5 38 -25 32 -54c-4 -21 -53 -89 -68 -111l7 -6c22 11 95 49 117 51c30 2 47 -14 49 -39s-12 -43 -41 -46c-22 -2 -101 22 -124 28l-5 -8c17 -18 77 -76 85 -97c10 -27 1 -49 -22 -59z" />
    <glyph glyph-name="dagger" unicode="&#x2020;" horiz-adv-x="582" 
d="M173 -108c39 173 57 375 56 436l62 57c20 18 27 33 27 48c0 20 -14 36 -40 36c-51 0 -101 -36 -138 -36c-31 0 -55 18 -55 45c0 34 36 61 82 61c59 0 110 -33 161 -74l4 3l1 112c1 52 4 91 11 120c9 33 33 53 60 53c33 0 53 -22 53 -56c0 -33 -19 -71 -55 -133l-57 -97
l3 -3c58 31 119 52 171 52c48 0 80 -22 80 -54c0 -33 -30 -52 -66 -52c-49 0 -82 50 -140 50c-36 0 -57 -23 -57 -53c0 -8 2 -18 6 -27l30 -70c-36 -62 -130 -248 -186 -421z" />
    <glyph glyph-name="daggerdbl" unicode="&#x2021;" horiz-adv-x="607" 
d="M391 309l-58 -54c-20 -17 -27 -32 -27 -48c0 -20 14 -36 40 -36c51 0 101 36 138 36c31 0 55 -18 55 -45c0 -34 -36 -60 -83 -60c-58 0 -109 32 -160 73l-4 -3l-1 -112c-1 -51 -3 -88 -10 -117c-9 -32 -33 -53 -60 -53c-34 0 -54 23 -54 57c0 33 19 68 55 130l56 96l-2 3
c-58 -30 -119 -51 -171 -51c-48 0 -80 21 -80 53c0 33 30 52 66 52c49 0 82 -50 140 -50c36 0 57 22 57 52c0 8 -2 21 -6 31l-27 74l59 52c20 17 27 32 27 47c0 21 -15 37 -41 37c-51 0 -101 -36 -138 -36c-31 0 -55 18 -55 45c0 34 36 60 83 60c59 0 109 -32 160 -73l4 3
l2 112c1 51 2 87 10 116c8 33 33 53 60 53c33 0 53 -22 53 -56c0 -33 -19 -68 -54 -130l-57 -96l2 -3c59 30 120 51 171 51c49 0 80 -21 80 -54c0 -32 -30 -51 -65 -51c-50 0 -83 50 -141 50c-35 0 -57 -22 -57 -52c0 -8 2 -21 6 -31z" />
    <glyph glyph-name="asciicircum" unicode="^" horiz-adv-x="359" 
d="M84 517l219 249h15l96 -249h-24l-109 115l-167 -115h-30z" />
    <glyph glyph-name="asciitilde" unicode="~" horiz-adv-x="381" 
d="M50 243c19 101 54 139 107 139c46 0 116 -53 154 -53c31 0 42 9 61 60h14c-20 -101 -52 -139 -107 -139c-46 0 -116 52 -155 52c-31 0 -42 -9 -61 -59h-13z" />
    <glyph glyph-name="dollar" unicode="$" horiz-adv-x="577" 
d="M224 -68l-26 6l23 84c-121 13 -194 69 -194 144c0 41 26 90 86 90c44 0 70 -34 70 -72s-29 -67 -70 -74c15 -27 63 -55 116 -66l65 233l-12 5c-84 38 -165 79 -165 170c0 110 103 193 270 193c5 0 11 0 16 -1l21 76l26 -5l-20 -73c100 -13 172 -68 172 -136
c0 -44 -30 -83 -75 -83c-42 0 -72 26 -72 64c0 32 20 61 53 74c-11 21 -41 47 -86 58l-59 -214l7 -3c79 -38 166 -80 166 -181s-98 -202 -260 -202h-28zM413 154c0 53 -42 84 -97 112l-63 -226c8 -1 15 -1 23 -1c89 0 137 47 137 115zM238 524c0 -50 41 -78 102 -108l58 208
c-7 1 -14 1 -22 1c-85 0 -137 -41 -138 -101z" />
    <glyph glyph-name="sterling" unicode="&#xa3;" horiz-adv-x="615" 
d="M495 333h-153v-12c0 -83 -43 -152 -144 -193c88 -7 135 -23 237 -23c77 0 104 27 135 101l17 -3c-37 -147 -91 -217 -196 -217c-102 0 -152 51 -216 110c-38 -73 -80 -110 -134 -110c-37 0 -58 27 -58 56c0 48 53 89 137 89c20 0 38 -1 55 -2c21 37 29 79 29 119
c0 31 -5 57 -11 85h-114l6 21h104c-5 26 -9 55 -9 90c0 136 117 235 275 235c116 0 179 -66 179 -142c0 -59 -39 -97 -87 -97c-46 0 -79 27 -79 73c0 47 36 82 85 85c-7 30 -45 62 -97 62c-79 0 -131 -57 -131 -167c0 -44 11 -89 15 -139h161z" />
    <glyph glyph-name="Euro" unicode="&#x20ac;" horiz-adv-x="687" 
d="M462 271h-194c0 -129 58 -218 173 -218c58 0 124 26 191 109l14 -10c-72 -108 -162 -169 -276 -169c-152 0 -251 106 -251 272v16h-96l7 21h91c2 32 8 63 17 93h-87l7 21h87c57 157 200 274 379 274c111 0 183 -57 183 -134c0 -53 -38 -91 -86 -91c-43 0 -76 31 -76 75
c0 42 30 75 69 86c-16 24 -43 47 -96 47c-123 0 -202 -124 -234 -257h213l-7 -21h-210c-7 -32 -11 -63 -12 -93h200z" />
    <glyph glyph-name="yen" unicode="&#xa5;" horiz-adv-x="691" 
d="M606 214h-205l-38 -148c-10 -37 4 -49 93 -53l-4 -13h-349l2 13c90 4 112 18 122 53l38 148h-202l6 21h202l16 61l-4 15h-194l6 21h182l-67 251c-11 45 -28 57 -87 70l4 13h338l-4 -13c-102 -5 -112 -27 -105 -60l65 -267l175 212c51 62 45 100 -37 114l3 14h234l-3 -13
c-67 -14 -107 -43 -178 -129l-160 -192h182l-6 -21h-193l-16 -19l-15 -57h204z" />
    <glyph glyph-name="cent" unicode="&#xa2;" horiz-adv-x="541" 
d="M235 -88l-26 5l20 77c-105 10 -175 83 -175 192c0 160 131 284 292 284h8l17 67l25 -5l-17 -64c95 -10 152 -63 152 -129c0 -36 -27 -74 -69 -74c-41 0 -68 26 -68 61c0 31 19 61 53 75c-15 25 -38 43 -72 48l-105 -403c14 -4 29 -6 46 -6c53 0 115 34 152 92l14 -9
c-46 -83 -130 -131 -225 -131h-1zM186 182c0 -60 22 -102 60 -125l102 393c-89 -9 -162 -143 -162 -268z" />
    <glyph glyph-name="numbersign" unicode="#" horiz-adv-x="703" 
d="M391 703l-70 -226h210l70 226h25l-70 -226h155l-1 -21h-160l-78 -252h168l-1 -21h-174l-69 -226h-25l69 226h-210l-69 -226h-25l69 226h-154l1 21h160l78 252h-167l1 21h172l70 226h25zM315 456l-78 -252h210l78 252h-210z" />
    <glyph glyph-name="paragraph" unicode="&#xb6;" horiz-adv-x="702" 
d="M302 -99l77 285c-162 13 -250 88 -250 199c0 142 127 281 371 281h274l-3 -12c-100 -6 -126 -17 -138 -61l-185 -692h-26l199 745h-92l-200 -745h-27z" />
    <glyph glyph-name="section" unicode="&#xa7;" horiz-adv-x="601" 
d="M234 -138c-155 0 -214 67 -214 123c0 34 24 77 73 77c39 0 59 -27 59 -56c0 -37 -19 -56 -40 -67c11 -27 64 -55 125 -55c96 0 145 54 145 107c0 58 -65 84 -134 109c-75 28 -154 63 -154 149c0 67 48 127 149 148c-42 27 -64 61 -64 109c0 89 94 173 231 173
c134 0 196 -60 196 -119c0 -35 -22 -72 -68 -72c-40 0 -61 27 -61 56c0 30 16 53 37 62c-12 26 -51 52 -109 52c-82 0 -133 -45 -133 -102c0 -49 58 -73 123 -101c98 -39 157 -73 157 -158c0 -59 -40 -119 -136 -149c36 -27 55 -59 55 -102c0 -93 -87 -184 -237 -184z
M455 243c0 60 -52 85 -125 115c-24 10 -49 19 -72 31c-42 -16 -65 -47 -65 -85c0 -52 57 -82 122 -107c29 -11 59 -23 85 -38c38 19 55 51 55 84z" />
    <glyph glyph-name="ordfeminine" unicode="&#xaa;" horiz-adv-x="469" 
d="M196 331c-62 0 -107 45 -107 124c0 134 111 236 208 236c45 0 63 -22 76 -50l15 42l105 9l-40 -121l-47 -156c-15 -51 -10 -62 60 -57v-10c-23 -8 -64 -16 -92 -16c-48 0 -71 17 -66 61l-4 2c-34 -45 -66 -64 -108 -64zM247 376c21 0 40 16 56 41l57 192
c-2 31 -16 56 -42 56c-68 0 -120 -132 -120 -217c0 -46 16 -72 49 -72z" />
    <glyph glyph-name="ordmasculine" unicode="&#xba;" horiz-adv-x="455" 
d="M249 330c-93 0 -155 56 -155 146c0 100 81 215 216 215c93 0 154 -56 154 -152c0 -94 -79 -209 -215 -209zM244 347c77 0 119 170 119 255c0 46 -12 72 -49 72c-76 0 -119 -169 -119 -255c0 -46 12 -72 49 -72z" />
    <glyph glyph-name="degree" unicode="&#xb0;" horiz-adv-x="390" 
d="M417 598c0 -99 -88 -182 -187 -182c-67 0 -132 35 -132 122c0 99 88 182 188 182c67 0 131 -36 131 -122zM180 512c0 -56 22 -75 51 -75c66 0 104 126 104 186c0 56 -22 76 -50 76c-67 0 -105 -126 -105 -187z" />
    <glyph glyph-name="percent" unicode="%" horiz-adv-x="814" 
d="M415 623c29 -16 60 -24 101 -24c59 0 117 27 191 94h30l-570 -719h-48l542 653l-3 3c-54 -41 -111 -62 -182 -62c-14 0 -34 1 -50 4v-7c0 -111 -85 -277 -223 -277c-77 0 -123 50 -123 131c0 120 114 260 245 260c46 0 76 -20 90 -56zM561 -14c-76 0 -122 50 -122 130
c0 121 114 261 245 261c66 0 101 -42 101 -114c0 -111 -85 -277 -224 -277zM582 12c99 0 178 151 178 250c0 53 -18 78 -56 78c-83 0 -177 -157 -177 -258c0 -45 21 -70 55 -70zM400 578c-33 10 -66 28 -94 53c-71 -36 -138 -162 -138 -246c0 -46 21 -70 55 -70
c99 0 178 151 178 249c0 5 0 10 -1 14z" />
    <glyph glyph-name="percent.alt" horiz-adv-x="860" 
d="M312 679c90 0 148 -56 148 -148c0 -99 -79 -215 -213 -215c-90 0 -148 56 -148 147c0 100 79 216 213 216zM80 -8l372 349l349 332h36l-371 -348l-349 -333h-37zM241 331c74 0 128 153 128 259c0 44 -15 73 -51 73c-75 0 -128 -152 -128 -258c0 -44 15 -74 51 -74z
M671 349c90 0 148 -56 148 -147c0 -100 -79 -216 -213 -216c-90 0 -148 56 -148 148c0 99 79 215 213 215zM600 2c74 0 128 152 128 258c0 44 -15 74 -51 74c-74 0 -128 -153 -128 -259c0 -44 15 -73 51 -73z" />
    <glyph glyph-name="quotedbl" unicode="&#x22;" horiz-adv-x="467" 
d="M103 409l-10 6l50 123c55 137 79 169 123 169c33 0 53 -30 53 -52c0 -33 -15 -62 -107 -146zM304 409l-10 6l50 123c55 137 79 169 123 169c33 0 53 -30 53 -52c0 -33 -15 -62 -107 -146z" />
    <glyph glyph-name="quotesingle" unicode="'" horiz-adv-x="266" 
d="M103 409l-10 6l50 123c55 137 79 169 123 169c33 0 53 -30 53 -52c0 -33 -15 -62 -107 -146z" />
    <glyph glyph-name="plus" unicode="+" horiz-adv-x="546" 
d="M377 547l-56 -211h210l-6 -22h-210l-57 -214h-26l57 214h-212l6 22h212l56 211h26z" />
    <glyph glyph-name="minus" unicode="&#x2212;" horiz-adv-x="536" 
d="M505 316h-428l5 22h428z" />
    <glyph glyph-name="divide" unicode="&#xf7;" horiz-adv-x="576" 
d="M545 316h-468l5 22h468zM353 414c-33 0 -59 26 -59 58s26 58 59 58c32 0 58 -26 58 -58s-26 -58 -58 -58zM275 124c-33 0 -59 26 -59 58s26 58 59 58c32 0 58 -26 58 -58s-26 -58 -58 -58z" />
    <glyph glyph-name="equal" unicode="=" horiz-adv-x="543" 
d="M488 216h-438l5 22h438zM538 414h-438l5 22h438z" />
    <glyph glyph-name="multiply" unicode="&#xd7;" horiz-adv-x="556" 
d="M59 147l226 178l-130 178l19 15l130 -178l228 180l13 -19l-227 -179l130 -177l-19 -15l-130 177l-227 -179z" />
    <glyph glyph-name="less" unicode="&#x3c;" horiz-adv-x="550" 
d="M445 102l-338 213l6 23l445 214l-9 -32l-411 -196l315 -196z" />
    <glyph glyph-name="greater" unicode="&#x3e;" horiz-adv-x="550" 
d="M155 552l338 -213l-6 -23l-445 -214l9 32l411 196l-315 196z" />
    <glyph glyph-name="plusminus" unicode="&#xb1;" horiz-adv-x="530" 
d="M357 529l-52 -193h193l-6 -22h-193l-52 -196h-26l52 196h-193l6 22h193l52 193h26zM408 0h-411l6 22h411z" />
    <glyph glyph-name="space" unicode=" " horiz-adv-x="184" 
 />
    <glyph glyph-name="uni00A0" unicode="&#xa0;" horiz-adv-x="184" 
 />
    <glyph glyph-name="emspace" unicode="&#x2003;" horiz-adv-x="1000" 
 />
    <glyph glyph-name="enspace" unicode="&#x2002;" horiz-adv-x="500" 
 />
    <glyph glyph-name="threeperemspace" unicode="&#x2004;" horiz-adv-x="333" 
 />
    <glyph glyph-name="fourperemspace" unicode="&#x2005;" horiz-adv-x="250" 
 />
    <glyph glyph-name="thinspace" unicode="&#x2009;" horiz-adv-x="133" 
 />
    <glyph glyph-name="hairspace" unicode="&#x200a;" horiz-adv-x="75" 
 />
    <glyph glyph-name="NUL" horiz-adv-x="0" 
 />
    <glyph glyph-name="hfjslug" horiz-adv-x="694" 
d="M644 -200h-208l-8 14h-163l-8 -14h-207v303c18 0 32 14 32 32c0 17 -14 32 -32 32v554h100l30 79h334l29 -79h101v-921zM400 563v-172h15v78h38v14h-38v66h43v14h-58zM184 563v-172h15v79h47v-79h15v172h-15v-79h-47v79h-15zM460 394c5 -2 14 -4 21 -4c20 0 31 11 31 36
v137h-16v-137c0 -16 -5 -22 -16 -22c-6 0 -15 3 -20 5v-15zM371 465l-13 3c-2 -9 -5 -21 -8 -30h-1l-16 31c13 12 23 26 23 42c0 15 -9 31 -27 31c-17 0 -28 -16 -28 -31s6 -24 14 -39c-15 -12 -23 -28 -23 -47c0 -22 12 -37 29 -37c13 0 23 9 29 24h1l12 -24l12 6l-17 32
c5 12 9 25 13 39zM523 323v-46h8v12l8 8l15 -20h10l-20 26l18 20h-10l-20 -24h-1v24h-8zM488 292l10 -15h9l-12 17c5 2 10 6 10 14c0 9 -7 15 -17 15h-20v-46h8v15h12zM426 276c14 0 24 11 24 24c0 12 -10 24 -24 24s-24 -12 -24 -24c0 -13 10 -24 24 -24zM370 301l-13 22
h-9l18 -29v-17h8v17l18 29h-9zM193 323v-46h34v7h-26v13h23v7h-23v12h26v7h-34zM132 323v-46h8v32l25 -32h7v46h-8v-32l-25 32h-7zM241 323l14 -47h8l11 34h1l11 -34h8l14 47h-8l-10 -35h-1l-11 35h-7l-11 -35h-1l-10 35h-8zM327 479c-7 13 -12 22 -12 32s6 19 14 19
s13 -9 13 -19c0 -12 -5 -21 -15 -32zM342 423c-5 -13 -12 -21 -20 -21c-9 0 -16 10 -16 25c0 13 7 26 16 35zM487 299h-11v17h11c6 0 10 -3 10 -8s-4 -9 -10 -9zM426 283c-10 0 -16 8 -16 17c0 8 6 17 16 17s16 -9 16 -17c0 -9 -6 -17 -16 -17z" />
    <glyph glyph-name="i.dot" horiz-adv-x="318" 
d="M190 609c0 54 40 97 89 97c32 0 61 -23 61 -64c0 -54 -41 -97 -90 -97c-31 0 -60 22 -60 64zM276 32v-11c-31 -13 -84 -29 -133 -29c-65 0 -97 24 -97 72c0 13 3 29 8 46l84 278c11 33 -18 48 -79 52v12l232 13l-108 -356c-5 -18 -9 -31 -9 -42c0 -32 28 -40 102 -35z
" />
    <glyph glyph-name="fraction" unicode="&#x2044;" horiz-adv-x="606" 
d="M-29 -32l341 358l336 356h32l-336 -356l-341 -358h-32z" />
    <glyph glyph-name="acute" unicode="&#xb4;" horiz-adv-x="238" 
d="M115 526l88 153c34 59 47 77 79 77c28 0 50 -23 50 -48c0 -26 -17 -44 -123 -123l-79 -59h-15z" />
    <glyph glyph-name="hungarumlaut" unicode="&#x2dd;" horiz-adv-x="444" 
d="M126 526l81 127c49 79 65 103 102 103c28 0 46 -22 46 -44c0 -30 -20 -46 -107 -109l-107 -77h-15zM304 526l81 127c49 79 65 103 102 103c28 0 46 -22 46 -44c0 -30 -20 -46 -107 -109l-107 -77h-15z" />
    <glyph glyph-name="caron.alt" horiz-adv-x="142" 
d="M120 529l33 169c10 51 26 69 56 69c24 0 46 -17 46 -41c0 -23 -19 -51 -40 -82l-80 -115h-15z" />
    <glyph glyph-name="grave" unicode="`" horiz-adv-x="238" 
d="M299 526l-100 96c-38 37 -56 59 -56 83c0 25 23 49 53 49c32 0 45 -28 64 -83l51 -145h-12z" />
    <glyph glyph-name="circumflex" unicode="&#x2c6;" horiz-adv-x="320" 
d="M108 526l197 208h13l81 -208h-16l-103 89l-150 -89h-22z" />
    <glyph glyph-name="caron" unicode="&#x2c7;" horiz-adv-x="320" 
d="M230 526l-81 208h16l103 -89l150 89h22l-197 -208h-13z" />
    <glyph glyph-name="breve" unicode="&#x2d8;" horiz-adv-x="336" 
d="M247 531c-80 0 -126 51 -101 167h16c6 -57 38 -89 99 -89c65 0 111 33 145 89h20c-37 -114 -96 -167 -179 -167z" />
    <glyph glyph-name="tilde" unicode="&#x2dc;" horiz-adv-x="356" 
d="M113 527c21 101 55 139 108 139c45 0 109 -55 146 -55c31 0 38 8 59 59h16c-20 -102 -53 -139 -108 -139c-44 0 -108 54 -146 54c-30 0 -38 -9 -59 -58h-16z" />
    <glyph glyph-name="macron" unicode="&#xaf;" horiz-adv-x="321" 
d="M108 556l12 47h291l-12 -47h-291z" />
    <glyph glyph-name="dieresis" unicode="&#xa8;" horiz-adv-x="389" 
d="M383 531c-29 0 -58 21 -58 61c0 53 39 93 86 93c30 0 58 -21 58 -61c0 -52 -39 -93 -86 -93zM179 531c-30 0 -59 21 -59 61c0 53 39 93 86 93c30 0 58 -21 58 -61c0 -52 -39 -93 -85 -93z" />
    <glyph glyph-name="dotaccent" unicode="&#x2d9;" horiz-adv-x="233" 
d="M212 531c-31 0 -61 23 -61 64c0 54 41 97 90 97c31 0 61 -22 61 -64c0 -54 -41 -97 -90 -97z" />
    <glyph glyph-name="ring" unicode="&#x2da;" horiz-adv-x="275" 
d="M235 531c-56 0 -105 31 -105 89c0 73 68 126 146 126c56 0 105 -31 105 -89c0 -74 -68 -126 -146 -126zM237 548c48 0 75 80 75 129c0 36 -14 52 -38 52c-48 0 -75 -80 -75 -129c0 -36 14 -52 38 -52z" />
    <glyph glyph-name="commaaccent" unicode="&#x326;" horiz-adv-x="255" 
d="M-85 -309l-5 11c82 38 110 80 117 101l-3 4c-36 -3 -64 25 -64 63c0 39 31 70 69 70c44 0 72 -35 72 -77c0 -74 -69 -134 -186 -172z" />
    <glyph glyph-name="cedilla" unicode="&#xb8;" horiz-adv-x="282" 
d="M27 -245c-48 0 -73 9 -101 26l9 15c26 -15 48 -23 77 -23c41 0 65 24 65 54c0 31 -32 50 -81 50c-9 0 -21 -1 -31 -2l-2 10l149 119h26l-86 -67l1 -4c72 -8 110 -33 110 -82c0 -60 -67 -96 -136 -96z" />
    <glyph glyph-name="ogonek" unicode="&#x2db;" horiz-adv-x="269" 
d="M1 -246c-58 0 -93 31 -93 78c0 67 68 105 144 141l89 42h12l-62 -46c-55 -41 -88 -83 -88 -126c0 -37 24 -54 53 -54c21 0 40 5 62 14l5 -12c-37 -22 -80 -37 -122 -37z" />
    </font>
</defs>
</svg>
